SplineFontDB: 3.0
FontName: Acid3-Regular
FullName: Acid3-Regular
FamilyName: Acid3
Weight: Regular
Copyright: 
Version: 001.000
ItalicAngle: 0
UnderlinePosition: -100
UnderlineWidth: 50
Ascent: 512
Descent: 512
LayerCount: 2
Layer: 0 0 "Arri+AOgA-re"  1
Layer: 1 0 "Avant"  0
NeedsXUIDChange: 1
XUID: [1021 298 1341886361 8499593]
FSType: 8
OS2Version: 0
OS2_WeightWidthSlopeOnly: 0
OS2_UseTypoMetrics: 1
CreationTime: 1361220999
ModificationTime: 1361640360
PfmFamily: 17
TTFWeight: 500
TTFWidth: 5
LineGap: 94
VLineGap: 0
OS2TypoAscent: 0
OS2TypoAOffset: 1
OS2TypoDescent: 0
OS2TypoDOffset: 1
OS2TypoLinegap: 94
OS2WinAscent: 0
OS2WinAOffset: 1
OS2WinDescent: 0
OS2WinDOffset: 1
HheadAscent: 0
HheadAOffset: 1
HheadDescent: 0
HheadDOffset: 1
OS2Vendor: 'PfEd'
MarkAttachClasses: 1
DEI: 91125
LangName: 1033 
Encoding: UnicodeFull
UnicodeInterp: none
NameList: Adobe Glyph List
DisplaySize: -24
AntiAlias: 1
FitToEm: 1
WinInfo: 0 50 15
TeXData: 1 0 0 346030 173015 115343 0 1048576 115343 783286 444596 497025 792723 393216 433062 380633 303038 157286 324010 404750 52429 2506097 1059062 262144
BeginChars: 1114112 1257

StartChar: parenleft
Encoding: 40 40 1
Width: 1024
GlyphClass: 2
Flags: MW
LayerCount: 2
Fore
SplineSet
0 0 m 1
 512 512 l 1
 1024 0 l 1
 512 -512 l 1
 0 0 l 1
EndSplineSet
Validated: 1
EndChar

StartChar: parenright
Encoding: 41 41 2
Width: 1024
GlyphClass: 2
Flags: MW
LayerCount: 2
Fore
SplineSet
0 0 m 1
 512 512 l 1
 1024 0 l 1
 512 -512 l 1
 0 0 l 1
EndSplineSet
Validated: 1
EndChar

StartChar: comma
Encoding: 44 44 3
Width: 1024
GlyphClass: 2
Flags: MW
LayerCount: 2
Fore
SplineSet
0 0 m 1
 512 512 l 1
 1024 0 l 1
 512 -512 l 1
 0 0 l 1
EndSplineSet
Validated: 1
EndChar

StartChar: zero
Encoding: 48 48 4
Width: 1024
GlyphClass: 2
Flags: MW
LayerCount: 2
Fore
SplineSet
0 -512 m 1
 0 512 l 1
 1024 512 l 1
 1024 -512 l 1
 0 -512 l 1
EndSplineSet
Validated: 1
EndChar

StartChar: one
Encoding: 49 49 5
Width: 1024
GlyphClass: 2
Flags: MW
LayerCount: 2
Fore
SplineSet
0 -512 m 1
 0 512 l 1
 1024 512 l 1
 1024 -512 l 1
 0 -512 l 1
EndSplineSet
Validated: 1
EndChar

StartChar: two
Encoding: 50 50 6
Width: 1024
GlyphClass: 2
Flags: MW
LayerCount: 2
Fore
SplineSet
0 -512 m 1
 0 512 l 1
 1024 512 l 1
 1024 -512 l 1
 0 -512 l 1
EndSplineSet
Validated: 1
EndChar

StartChar: three
Encoding: 51 51 7
Width: 1024
GlyphClass: 2
Flags: MW
LayerCount: 2
Fore
SplineSet
0 -512 m 1
 0 512 l 1
 1024 512 l 1
 1024 -512 l 1
 0 -512 l 1
EndSplineSet
Validated: 1
EndChar

StartChar: four
Encoding: 52 52 8
Width: 1024
GlyphClass: 2
Flags: MW
LayerCount: 2
Fore
SplineSet
0 -512 m 1
 0 512 l 1
 1024 512 l 1
 1024 -512 l 1
 0 -512 l 1
EndSplineSet
Validated: 1
EndChar

StartChar: five
Encoding: 53 53 9
Width: 1024
GlyphClass: 2
Flags: MW
LayerCount: 2
Fore
SplineSet
0 -512 m 1
 0 512 l 1
 1024 512 l 1
 1024 -512 l 1
 0 -512 l 1
EndSplineSet
Validated: 1
EndChar

StartChar: six
Encoding: 54 54 10
Width: 1024
GlyphClass: 2
Flags: MW
LayerCount: 2
Fore
SplineSet
0 -512 m 1
 0 512 l 1
 1024 512 l 1
 1024 -512 l 1
 0 -512 l 1
EndSplineSet
Validated: 1
EndChar

StartChar: seven
Encoding: 55 55 11
Width: 1024
GlyphClass: 2
Flags: MW
LayerCount: 2
Fore
SplineSet
0 -512 m 1
 0 512 l 1
 1024 512 l 1
 1024 -512 l 1
 0 -512 l 1
EndSplineSet
Validated: 1
EndChar

StartChar: eight
Encoding: 56 56 12
Width: 1024
GlyphClass: 2
Flags: MW
LayerCount: 2
Fore
SplineSet
0 -512 m 1
 0 512 l 1
 1024 512 l 1
 1024 -512 l 1
 0 -512 l 1
EndSplineSet
Validated: 1
EndChar

StartChar: nine
Encoding: 57 57 13
Width: 1024
GlyphClass: 2
Flags: MW
LayerCount: 2
Fore
SplineSet
0 -512 m 1
 0 512 l 1
 1024 512 l 1
 1024 -512 l 1
 0 -512 l 1
EndSplineSet
Validated: 1
EndChar

StartChar: A
Encoding: 65 65 14
Width: 1024
GlyphClass: 2
Flags: MW
LayerCount: 2
Fore
SplineSet
0 -512 m 1
 0 512 l 1
 1024 512 l 1
 1024 -512 l 1
 0 -512 l 1
EndSplineSet
Validated: 1
EndChar

StartChar: B
Encoding: 66 66 15
Width: 1024
GlyphClass: 2
Flags: MW
LayerCount: 2
Fore
SplineSet
0 -512 m 1
 0 512 l 1
 1024 512 l 1
 1024 -512 l 1
 0 -512 l 1
EndSplineSet
Validated: 1
EndChar

StartChar: C
Encoding: 67 67 16
Width: 1024
GlyphClass: 2
Flags: MW
LayerCount: 2
Fore
SplineSet
0 -512 m 1
 0 512 l 1
 1024 512 l 1
 1024 -512 l 1
 0 -512 l 1
EndSplineSet
Validated: 1
EndChar

StartChar: D
Encoding: 68 68 17
Width: 1024
GlyphClass: 2
Flags: MW
LayerCount: 2
Fore
SplineSet
0 -512 m 1
 0 512 l 1
 1024 512 l 1
 1024 -512 l 1
 0 -512 l 1
EndSplineSet
Validated: 1
EndChar

StartChar: E
Encoding: 69 69 18
Width: 1024
GlyphClass: 2
Flags: MW
LayerCount: 2
Fore
SplineSet
0 -512 m 1
 0 512 l 1
 1024 512 l 1
 1024 -512 l 1
 0 -512 l 1
EndSplineSet
Validated: 1
EndChar

StartChar: F
Encoding: 70 70 19
Width: 1024
GlyphClass: 2
Flags: MW
LayerCount: 2
Fore
SplineSet
0 -512 m 1
 0 512 l 1
 1024 512 l 1
 1024 -512 l 1
 0 -512 l 1
EndSplineSet
Validated: 1
EndChar

StartChar: G
Encoding: 71 71 20
Width: 1024
GlyphClass: 2
Flags: MW
LayerCount: 2
Fore
SplineSet
0 -512 m 1
 0 512 l 1
 1024 512 l 1
 1024 -512 l 1
 0 -512 l 1
EndSplineSet
Validated: 1
EndChar

StartChar: H
Encoding: 72 72 21
Width: 1024
GlyphClass: 2
Flags: MW
LayerCount: 2
Fore
SplineSet
0 -512 m 1
 0 512 l 1
 1024 512 l 1
 1024 -512 l 1
 0 -512 l 1
EndSplineSet
Validated: 1
EndChar

StartChar: I
Encoding: 73 73 22
Width: 1024
GlyphClass: 2
Flags: MW
LayerCount: 2
Fore
SplineSet
0 -512 m 1
 0 512 l 1
 1024 512 l 1
 1024 -512 l 1
 0 -512 l 1
EndSplineSet
Validated: 1
EndChar

StartChar: J
Encoding: 74 74 23
Width: 1024
GlyphClass: 2
Flags: MW
LayerCount: 2
Fore
SplineSet
0 -512 m 1
 0 512 l 1
 1024 512 l 1
 1024 -512 l 1
 0 -512 l 1
EndSplineSet
Validated: 1
EndChar

StartChar: K
Encoding: 75 75 24
Width: 1024
GlyphClass: 2
Flags: MW
LayerCount: 2
Fore
SplineSet
0 -512 m 1
 0 512 l 1
 1024 512 l 1
 1024 -512 l 1
 0 -512 l 1
EndSplineSet
Validated: 1
EndChar

StartChar: L
Encoding: 76 76 25
Width: 1024
GlyphClass: 2
Flags: MW
LayerCount: 2
Fore
SplineSet
0 -512 m 1
 0 512 l 1
 1024 512 l 1
 1024 -512 l 1
 0 -512 l 1
EndSplineSet
Validated: 1
EndChar

StartChar: M
Encoding: 77 77 26
Width: 1024
GlyphClass: 2
Flags: MW
LayerCount: 2
Fore
SplineSet
0 -512 m 1
 0 512 l 1
 1024 512 l 1
 1024 -512 l 1
 0 -512 l 1
EndSplineSet
Validated: 1
EndChar

StartChar: N
Encoding: 78 78 27
Width: 1024
GlyphClass: 2
Flags: MW
LayerCount: 2
Fore
SplineSet
0 -512 m 1
 0 512 l 1
 1024 512 l 1
 1024 -512 l 1
 0 -512 l 1
EndSplineSet
Validated: 1
EndChar

StartChar: O
Encoding: 79 79 28
Width: 1024
GlyphClass: 2
Flags: MW
LayerCount: 2
Fore
SplineSet
0 -512 m 1
 0 512 l 1
 1024 512 l 1
 1024 -512 l 1
 0 -512 l 1
EndSplineSet
Validated: 1
EndChar

StartChar: P
Encoding: 80 80 29
Width: 1024
GlyphClass: 2
Flags: MW
LayerCount: 2
Fore
SplineSet
0 -512 m 1
 0 512 l 1
 1024 512 l 1
 1024 -512 l 1
 0 -512 l 1
EndSplineSet
Validated: 1
EndChar

StartChar: Q
Encoding: 81 81 30
Width: 1024
GlyphClass: 2
Flags: MW
LayerCount: 2
Fore
SplineSet
0 -512 m 1
 0 512 l 1
 1024 512 l 1
 1024 -512 l 1
 0 -512 l 1
EndSplineSet
Validated: 1
EndChar

StartChar: R
Encoding: 82 82 31
Width: 1024
GlyphClass: 2
Flags: MW
LayerCount: 2
Fore
SplineSet
0 -512 m 1
 0 512 l 1
 1024 512 l 1
 1024 -512 l 1
 0 -512 l 1
EndSplineSet
Validated: 1
EndChar

StartChar: S
Encoding: 83 83 32
Width: 1024
GlyphClass: 2
Flags: MW
LayerCount: 2
Fore
SplineSet
0 -512 m 1
 0 512 l 1
 1024 512 l 1
 1024 -512 l 1
 0 -512 l 1
EndSplineSet
Validated: 1
EndChar

StartChar: T
Encoding: 84 84 33
Width: 1024
GlyphClass: 2
Flags: MW
LayerCount: 2
Fore
SplineSet
0 -512 m 1
 0 512 l 1
 1024 512 l 1
 1024 -512 l 1
 0 -512 l 1
EndSplineSet
Validated: 1
EndChar

StartChar: U
Encoding: 85 85 34
Width: 1024
GlyphClass: 2
Flags: MW
LayerCount: 2
Fore
SplineSet
0 -512 m 1
 0 512 l 1
 1024 512 l 1
 1024 -512 l 1
 0 -512 l 1
EndSplineSet
Validated: 1
EndChar

StartChar: V
Encoding: 86 86 35
Width: 1024
GlyphClass: 2
Flags: MW
LayerCount: 2
Fore
SplineSet
0 -512 m 1
 0 512 l 1
 1024 512 l 1
 1024 -512 l 1
 0 -512 l 1
EndSplineSet
Validated: 1
EndChar

StartChar: W
Encoding: 87 87 36
Width: 1024
GlyphClass: 2
Flags: MW
LayerCount: 2
Fore
SplineSet
0 -512 m 1
 0 512 l 1
 1024 512 l 1
 1024 -512 l 1
 0 -512 l 1
EndSplineSet
Validated: 1
EndChar

StartChar: X
Encoding: 88 88 37
Width: 1024
GlyphClass: 2
Flags: MW
LayerCount: 2
Fore
SplineSet
0 -512 m 1
 0 512 l 1
 1024 512 l 1
 1024 -512 l 1
 0 -512 l 1
EndSplineSet
Validated: 1
EndChar

StartChar: Y
Encoding: 89 89 38
Width: 1024
GlyphClass: 2
Flags: MW
LayerCount: 2
Fore
SplineSet
0 -512 m 1
 0 512 l 1
 1024 512 l 1
 1024 -512 l 1
 0 -512 l 1
EndSplineSet
Validated: 1
EndChar

StartChar: Z
Encoding: 90 90 39
Width: 1024
GlyphClass: 2
Flags: MW
LayerCount: 2
Fore
SplineSet
0 -512 m 1
 0 512 l 1
 1024 512 l 1
 1024 -512 l 1
 0 -512 l 1
EndSplineSet
Validated: 1
EndChar

StartChar: bracketleft
Encoding: 91 91 40
Width: 1024
GlyphClass: 2
Flags: MW
LayerCount: 2
Fore
SplineSet
0 0 m 1
 512 512 l 1
 1024 0 l 1
 512 -512 l 1
 0 0 l 1
EndSplineSet
Validated: 1
EndChar

StartChar: bracketright
Encoding: 93 93 41
Width: 1024
GlyphClass: 2
Flags: MW
LayerCount: 2
Fore
SplineSet
0 0 m 1
 512 512 l 1
 1024 0 l 1
 512 -512 l 1
 0 0 l 1
EndSplineSet
Validated: 1
EndChar

StartChar: a
Encoding: 97 97 42
Width: 1024
GlyphClass: 2
Flags: MW
LayerCount: 2
Fore
SplineSet
0 -512 m 1
 0 512 l 1
 1024 512 l 1
 1024 -512 l 1
 0 -512 l 1
EndSplineSet
Validated: 1
EndChar

StartChar: b
Encoding: 98 98 43
Width: 1024
GlyphClass: 2
Flags: MW
LayerCount: 2
Fore
SplineSet
0 -512 m 1
 0 512 l 1
 1024 512 l 1
 1024 -512 l 1
 0 -512 l 1
EndSplineSet
Validated: 1
EndChar

StartChar: c
Encoding: 99 99 44
Width: 1024
GlyphClass: 2
Flags: MW
LayerCount: 2
Fore
SplineSet
0 -512 m 1
 0 512 l 1
 1024 512 l 1
 1024 -512 l 1
 0 -512 l 1
EndSplineSet
Validated: 1
EndChar

StartChar: d
Encoding: 100 100 45
Width: 1024
GlyphClass: 2
Flags: MW
LayerCount: 2
Fore
SplineSet
0 -512 m 1
 0 512 l 1
 1024 512 l 1
 1024 -512 l 1
 0 -512 l 1
EndSplineSet
Validated: 1
EndChar

StartChar: e
Encoding: 101 101 46
Width: 1024
GlyphClass: 2
Flags: MW
LayerCount: 2
Fore
SplineSet
0 -512 m 1
 0 512 l 1
 1024 512 l 1
 1024 -512 l 1
 0 -512 l 1
EndSplineSet
Validated: 1
EndChar

StartChar: f
Encoding: 102 102 47
Width: 1024
GlyphClass: 2
Flags: MW
LayerCount: 2
Fore
SplineSet
0 -512 m 1
 0 512 l 1
 1024 512 l 1
 1024 -512 l 1
 0 -512 l 1
EndSplineSet
Validated: 1
EndChar

StartChar: g
Encoding: 103 103 48
Width: 1024
GlyphClass: 2
Flags: MW
LayerCount: 2
Fore
SplineSet
0 -512 m 1
 0 512 l 1
 1024 512 l 1
 1024 -512 l 1
 0 -512 l 1
EndSplineSet
Validated: 1
EndChar

StartChar: h
Encoding: 104 104 49
Width: 1024
GlyphClass: 2
Flags: MW
LayerCount: 2
Fore
SplineSet
0 -512 m 1
 0 512 l 1
 1024 512 l 1
 1024 -512 l 1
 0 -512 l 1
EndSplineSet
Validated: 1
EndChar

StartChar: i
Encoding: 105 105 50
Width: 1024
GlyphClass: 2
Flags: MW
LayerCount: 2
Fore
SplineSet
0 -512 m 1
 0 512 l 1
 1024 512 l 1
 1024 -512 l 1
 0 -512 l 1
EndSplineSet
Validated: 1
EndChar

StartChar: j
Encoding: 106 106 51
Width: 1024
GlyphClass: 2
Flags: MW
LayerCount: 2
Fore
SplineSet
0 -512 m 1
 0 512 l 1
 1024 512 l 1
 1024 -512 l 1
 0 -512 l 1
EndSplineSet
Validated: 1
EndChar

StartChar: k
Encoding: 107 107 52
Width: 1024
GlyphClass: 2
Flags: MW
LayerCount: 2
Fore
SplineSet
0 -512 m 1
 0 512 l 1
 1024 512 l 1
 1024 -512 l 1
 0 -512 l 1
EndSplineSet
Validated: 1
EndChar

StartChar: l
Encoding: 108 108 53
Width: 1024
GlyphClass: 2
Flags: MW
LayerCount: 2
Fore
SplineSet
0 -512 m 1
 0 512 l 1
 1024 512 l 1
 1024 -512 l 1
 0 -512 l 1
EndSplineSet
Validated: 1
EndChar

StartChar: m
Encoding: 109 109 54
Width: 1024
GlyphClass: 2
Flags: MW
LayerCount: 2
Fore
SplineSet
0 -512 m 1
 0 512 l 1
 1024 512 l 1
 1024 -512 l 1
 0 -512 l 1
EndSplineSet
Validated: 1
EndChar

StartChar: n
Encoding: 110 110 55
Width: 1024
GlyphClass: 2
Flags: MW
LayerCount: 2
Fore
SplineSet
0 -512 m 1
 0 512 l 1
 1024 512 l 1
 1024 -512 l 1
 0 -512 l 1
EndSplineSet
Validated: 1
EndChar

StartChar: o
Encoding: 111 111 56
Width: 1024
GlyphClass: 2
Flags: MW
LayerCount: 2
Fore
SplineSet
0 -512 m 1
 0 512 l 1
 1024 512 l 1
 1024 -512 l 1
 0 -512 l 1
EndSplineSet
Validated: 1
EndChar

StartChar: p
Encoding: 112 112 57
Width: 1024
GlyphClass: 2
Flags: MW
LayerCount: 2
Fore
SplineSet
0 -512 m 1
 0 512 l 1
 1024 512 l 1
 1024 -512 l 1
 0 -512 l 1
EndSplineSet
Validated: 1
EndChar

StartChar: q
Encoding: 113 113 58
Width: 1024
GlyphClass: 2
Flags: MW
LayerCount: 2
Fore
SplineSet
0 -512 m 1
 0 512 l 1
 1024 512 l 1
 1024 -512 l 1
 0 -512 l 1
EndSplineSet
Validated: 1
EndChar

StartChar: r
Encoding: 114 114 59
Width: 1024
GlyphClass: 2
Flags: MW
LayerCount: 2
Fore
SplineSet
0 -512 m 1
 0 512 l 1
 1024 512 l 1
 1024 -512 l 1
 0 -512 l 1
EndSplineSet
Validated: 1
EndChar

StartChar: s
Encoding: 115 115 60
Width: 1024
GlyphClass: 2
Flags: MW
LayerCount: 2
Fore
SplineSet
0 -512 m 1
 0 512 l 1
 1024 512 l 1
 1024 -512 l 1
 0 -512 l 1
EndSplineSet
Validated: 1
EndChar

StartChar: t
Encoding: 116 116 61
Width: 1024
GlyphClass: 2
Flags: MW
LayerCount: 2
Fore
SplineSet
0 -512 m 1
 0 512 l 1
 1024 512 l 1
 1024 -512 l 1
 0 -512 l 1
EndSplineSet
Validated: 1
EndChar

StartChar: u
Encoding: 117 117 62
Width: 1024
GlyphClass: 2
Flags: MW
LayerCount: 2
Fore
SplineSet
0 -512 m 1
 0 512 l 1
 1024 512 l 1
 1024 -512 l 1
 0 -512 l 1
EndSplineSet
Validated: 1
EndChar

StartChar: v
Encoding: 118 118 63
Width: 1024
GlyphClass: 2
Flags: MW
LayerCount: 2
Fore
SplineSet
0 -512 m 1
 0 512 l 1
 1024 512 l 1
 1024 -512 l 1
 0 -512 l 1
EndSplineSet
Validated: 1
EndChar

StartChar: w
Encoding: 119 119 64
Width: 1024
GlyphClass: 2
Flags: MW
LayerCount: 2
Fore
SplineSet
0 -512 m 1
 0 512 l 1
 1024 512 l 1
 1024 -512 l 1
 0 -512 l 1
EndSplineSet
Validated: 1
EndChar

StartChar: x
Encoding: 120 120 65
Width: 1024
GlyphClass: 2
Flags: MW
LayerCount: 2
Fore
SplineSet
0 -512 m 1
 0 512 l 1
 1024 512 l 1
 1024 -512 l 1
 0 -512 l 1
EndSplineSet
Validated: 1
EndChar

StartChar: y
Encoding: 121 121 66
Width: 1024
GlyphClass: 2
Flags: MW
LayerCount: 2
Fore
SplineSet
0 -512 m 1
 0 512 l 1
 1024 512 l 1
 1024 -512 l 1
 0 -512 l 1
EndSplineSet
Validated: 1
EndChar

StartChar: z
Encoding: 122 122 67
Width: 1024
GlyphClass: 2
Flags: MW
LayerCount: 2
Fore
SplineSet
0 -512 m 1
 0 512 l 1
 1024 512 l 1
 1024 -512 l 1
 0 -512 l 1
EndSplineSet
Validated: 1
EndChar

StartChar: braceleft
Encoding: 123 123 68
Width: 1024
GlyphClass: 2
Flags: MW
LayerCount: 2
Fore
SplineSet
0 0 m 1
 512 512 l 1
 1024 0 l 1
 512 -512 l 1
 0 0 l 1
EndSplineSet
Validated: 1
EndChar

StartChar: bar
Encoding: 124 124 69
Width: 1024
GlyphClass: 2
Flags: MW
LayerCount: 2
Fore
SplineSet
0 0 m 1
 512 512 l 1
 1024 0 l 1
 512 -512 l 1
 0 0 l 1
EndSplineSet
Validated: 1
EndChar

StartChar: braceright
Encoding: 125 125 70
Width: 1024
GlyphClass: 2
Flags: MW
LayerCount: 2
Fore
SplineSet
0 0 m 1
 512 512 l 1
 1024 0 l 1
 512 -512 l 1
 0 0 l 1
EndSplineSet
Validated: 1
EndChar

StartChar: dotlessi
Encoding: 305 305 71
Width: 1024
GlyphClass: 2
Flags: MW
LayerCount: 2
Fore
SplineSet
0 -512 m 1
 0 512 l 1
 1024 512 l 1
 1024 -512 l 1
 0 -512 l 1
EndSplineSet
Validated: 1
EndChar

StartChar: uni0237
Encoding: 567 567 72
Width: 1024
GlyphClass: 2
Flags: MW
LayerCount: 2
Fore
SplineSet
0 -512 m 1
 0 512 l 1
 1024 512 l 1
 1024 -512 l 1
 0 -512 l 1
EndSplineSet
Validated: 1
EndChar

StartChar: Alpha
Encoding: 913 913 73
Width: 1024
GlyphClass: 2
Flags: MW
LayerCount: 2
Fore
SplineSet
0 -512 m 1
 0 512 l 1
 1024 512 l 1
 1024 -512 l 1
 0 -512 l 1
EndSplineSet
Validated: 1
EndChar

StartChar: Beta
Encoding: 914 914 74
Width: 1024
GlyphClass: 2
Flags: MW
LayerCount: 2
Fore
SplineSet
0 -512 m 1
 0 512 l 1
 1024 512 l 1
 1024 -512 l 1
 0 -512 l 1
EndSplineSet
Validated: 1
EndChar

StartChar: Gamma
Encoding: 915 915 75
Width: 1024
GlyphClass: 2
Flags: MW
LayerCount: 2
Fore
SplineSet
0 -512 m 1
 0 512 l 1
 1024 512 l 1
 1024 -512 l 1
 0 -512 l 1
EndSplineSet
Validated: 1
EndChar

StartChar: Delta
Encoding: 916 916 76
Width: 1024
GlyphClass: 2
Flags: MW
LayerCount: 2
Fore
SplineSet
0 -512 m 1
 0 512 l 1
 1024 512 l 1
 1024 -512 l 1
 0 -512 l 1
EndSplineSet
Validated: 1
EndChar

StartChar: Epsilon
Encoding: 917 917 77
Width: 1024
GlyphClass: 2
Flags: MW
LayerCount: 2
Fore
SplineSet
0 -512 m 1
 0 512 l 1
 1024 512 l 1
 1024 -512 l 1
 0 -512 l 1
EndSplineSet
Validated: 1
EndChar

StartChar: Zeta
Encoding: 918 918 78
Width: 1024
GlyphClass: 2
Flags: MW
LayerCount: 2
Fore
SplineSet
0 -512 m 1
 0 512 l 1
 1024 512 l 1
 1024 -512 l 1
 0 -512 l 1
EndSplineSet
Validated: 1
EndChar

StartChar: Eta
Encoding: 919 919 79
Width: 1024
GlyphClass: 2
Flags: MW
LayerCount: 2
Fore
SplineSet
0 -512 m 1
 0 512 l 1
 1024 512 l 1
 1024 -512 l 1
 0 -512 l 1
EndSplineSet
Validated: 1
EndChar

StartChar: Theta
Encoding: 920 920 80
Width: 1024
GlyphClass: 2
Flags: MW
LayerCount: 2
Fore
SplineSet
0 -512 m 1
 0 512 l 1
 1024 512 l 1
 1024 -512 l 1
 0 -512 l 1
EndSplineSet
Validated: 1
EndChar

StartChar: Iota
Encoding: 921 921 81
Width: 1024
GlyphClass: 2
Flags: MW
LayerCount: 2
Fore
SplineSet
0 -512 m 1
 0 512 l 1
 1024 512 l 1
 1024 -512 l 1
 0 -512 l 1
EndSplineSet
Validated: 1
EndChar

StartChar: Kappa
Encoding: 922 922 82
Width: 1024
GlyphClass: 2
Flags: MW
LayerCount: 2
Fore
SplineSet
0 -512 m 1
 0 512 l 1
 1024 512 l 1
 1024 -512 l 1
 0 -512 l 1
EndSplineSet
Validated: 1
EndChar

StartChar: Lambda
Encoding: 923 923 83
Width: 1024
GlyphClass: 2
Flags: MW
LayerCount: 2
Fore
SplineSet
0 -512 m 1
 0 512 l 1
 1024 512 l 1
 1024 -512 l 1
 0 -512 l 1
EndSplineSet
Validated: 1
EndChar

StartChar: Mu
Encoding: 924 924 84
Width: 1024
GlyphClass: 2
Flags: MW
LayerCount: 2
Fore
SplineSet
0 -512 m 1
 0 512 l 1
 1024 512 l 1
 1024 -512 l 1
 0 -512 l 1
EndSplineSet
Validated: 1
EndChar

StartChar: Nu
Encoding: 925 925 85
Width: 1024
GlyphClass: 2
Flags: MW
LayerCount: 2
Fore
SplineSet
0 -512 m 1
 0 512 l 1
 1024 512 l 1
 1024 -512 l 1
 0 -512 l 1
EndSplineSet
Validated: 1
EndChar

StartChar: Xi
Encoding: 926 926 86
Width: 1024
GlyphClass: 2
Flags: MW
LayerCount: 2
Fore
SplineSet
0 -512 m 1
 0 512 l 1
 1024 512 l 1
 1024 -512 l 1
 0 -512 l 1
EndSplineSet
Validated: 1
EndChar

StartChar: Omicron
Encoding: 927 927 87
Width: 1024
GlyphClass: 2
Flags: MW
LayerCount: 2
Fore
SplineSet
0 -512 m 1
 0 512 l 1
 1024 512 l 1
 1024 -512 l 1
 0 -512 l 1
EndSplineSet
Validated: 1
EndChar

StartChar: Pi
Encoding: 928 928 88
Width: 1024
GlyphClass: 2
Flags: MW
LayerCount: 2
Fore
SplineSet
0 -512 m 1
 0 512 l 1
 1024 512 l 1
 1024 -512 l 1
 0 -512 l 1
EndSplineSet
Validated: 1
EndChar

StartChar: Rho
Encoding: 929 929 89
Width: 1024
GlyphClass: 2
Flags: MW
LayerCount: 2
Fore
SplineSet
0 -512 m 1
 0 512 l 1
 1024 512 l 1
 1024 -512 l 1
 0 -512 l 1
EndSplineSet
Validated: 1
EndChar

StartChar: Sigma
Encoding: 931 931 90
Width: 1024
GlyphClass: 2
Flags: MW
LayerCount: 2
Fore
SplineSet
0 -512 m 1
 0 512 l 1
 1024 512 l 1
 1024 -512 l 1
 0 -512 l 1
EndSplineSet
Validated: 1
EndChar

StartChar: Tau
Encoding: 932 932 91
Width: 1024
GlyphClass: 2
Flags: MW
LayerCount: 2
Fore
SplineSet
0 -512 m 1
 0 512 l 1
 1024 512 l 1
 1024 -512 l 1
 0 -512 l 1
EndSplineSet
Validated: 1
EndChar

StartChar: Upsilon
Encoding: 933 933 92
Width: 1024
GlyphClass: 2
Flags: MW
LayerCount: 2
Fore
SplineSet
0 -512 m 1
 0 512 l 1
 1024 512 l 1
 1024 -512 l 1
 0 -512 l 1
EndSplineSet
Validated: 1
EndChar

StartChar: Phi
Encoding: 934 934 93
Width: 1024
GlyphClass: 2
Flags: MW
LayerCount: 2
Fore
SplineSet
0 -512 m 1
 0 512 l 1
 1024 512 l 1
 1024 -512 l 1
 0 -512 l 1
EndSplineSet
Validated: 1
EndChar

StartChar: Chi
Encoding: 935 935 94
Width: 1024
GlyphClass: 2
Flags: MW
LayerCount: 2
Fore
SplineSet
0 -512 m 1
 0 512 l 1
 1024 512 l 1
 1024 -512 l 1
 0 -512 l 1
EndSplineSet
Validated: 1
EndChar

StartChar: Psi
Encoding: 936 936 95
Width: 1024
GlyphClass: 2
Flags: MW
LayerCount: 2
Fore
SplineSet
0 -512 m 1
 0 512 l 1
 1024 512 l 1
 1024 -512 l 1
 0 -512 l 1
EndSplineSet
Validated: 1
EndChar

StartChar: Omega
Encoding: 937 937 96
Width: 1024
GlyphClass: 2
Flags: MW
LayerCount: 2
Fore
SplineSet
0 -512 m 1
 0 512 l 1
 1024 512 l 1
 1024 -512 l 1
 0 -512 l 1
EndSplineSet
Validated: 1
EndChar

StartChar: alpha
Encoding: 945 945 97
Width: 1024
GlyphClass: 2
Flags: MW
LayerCount: 2
Fore
SplineSet
0 -512 m 1
 0 512 l 1
 1024 512 l 1
 1024 -512 l 1
 0 -512 l 1
EndSplineSet
Validated: 1
EndChar

StartChar: beta
Encoding: 946 946 98
Width: 1024
GlyphClass: 2
Flags: MW
LayerCount: 2
Fore
SplineSet
0 -512 m 1
 0 512 l 1
 1024 512 l 1
 1024 -512 l 1
 0 -512 l 1
EndSplineSet
Validated: 1
EndChar

StartChar: gamma
Encoding: 947 947 99
Width: 1024
GlyphClass: 2
Flags: MW
LayerCount: 2
Fore
SplineSet
0 -512 m 1
 0 512 l 1
 1024 512 l 1
 1024 -512 l 1
 0 -512 l 1
EndSplineSet
Validated: 1
EndChar

StartChar: delta
Encoding: 948 948 100
Width: 1024
GlyphClass: 2
Flags: MW
LayerCount: 2
Fore
SplineSet
0 -512 m 1
 0 512 l 1
 1024 512 l 1
 1024 -512 l 1
 0 -512 l 1
EndSplineSet
Validated: 1
EndChar

StartChar: epsilon
Encoding: 949 949 101
Width: 1024
GlyphClass: 2
Flags: MW
LayerCount: 2
Fore
SplineSet
0 -512 m 1
 0 512 l 1
 1024 512 l 1
 1024 -512 l 1
 0 -512 l 1
EndSplineSet
Validated: 1
EndChar

StartChar: zeta
Encoding: 950 950 102
Width: 1024
GlyphClass: 2
Flags: MW
LayerCount: 2
Fore
SplineSet
0 -512 m 1
 0 512 l 1
 1024 512 l 1
 1024 -512 l 1
 0 -512 l 1
EndSplineSet
Validated: 1
EndChar

StartChar: eta
Encoding: 951 951 103
Width: 1024
GlyphClass: 2
Flags: MW
LayerCount: 2
Fore
SplineSet
0 -512 m 1
 0 512 l 1
 1024 512 l 1
 1024 -512 l 1
 0 -512 l 1
EndSplineSet
Validated: 1
EndChar

StartChar: theta
Encoding: 952 952 104
Width: 1024
GlyphClass: 2
Flags: MW
LayerCount: 2
Fore
SplineSet
0 -512 m 1
 0 512 l 1
 1024 512 l 1
 1024 -512 l 1
 0 -512 l 1
EndSplineSet
Validated: 1
EndChar

StartChar: iota
Encoding: 953 953 105
Width: 1024
GlyphClass: 2
Flags: MW
LayerCount: 2
Fore
SplineSet
0 -512 m 1
 0 512 l 1
 1024 512 l 1
 1024 -512 l 1
 0 -512 l 1
EndSplineSet
Validated: 1
EndChar

StartChar: kappa
Encoding: 954 954 106
Width: 1024
GlyphClass: 2
Flags: MW
LayerCount: 2
Fore
SplineSet
0 -512 m 1
 0 512 l 1
 1024 512 l 1
 1024 -512 l 1
 0 -512 l 1
EndSplineSet
Validated: 1
EndChar

StartChar: lambda
Encoding: 955 955 107
Width: 1024
GlyphClass: 2
Flags: MW
LayerCount: 2
Fore
SplineSet
0 -512 m 1
 0 512 l 1
 1024 512 l 1
 1024 -512 l 1
 0 -512 l 1
EndSplineSet
Validated: 1
EndChar

StartChar: mu
Encoding: 956 956 108
Width: 1024
GlyphClass: 2
Flags: MW
LayerCount: 2
Fore
SplineSet
0 -512 m 1
 0 512 l 1
 1024 512 l 1
 1024 -512 l 1
 0 -512 l 1
EndSplineSet
Validated: 1
EndChar

StartChar: nu
Encoding: 957 957 109
Width: 1024
GlyphClass: 2
Flags: MW
LayerCount: 2
Fore
SplineSet
0 -512 m 1
 0 512 l 1
 1024 512 l 1
 1024 -512 l 1
 0 -512 l 1
EndSplineSet
Validated: 1
EndChar

StartChar: xi
Encoding: 958 958 110
Width: 1024
GlyphClass: 2
Flags: MW
LayerCount: 2
Fore
SplineSet
0 -512 m 1
 0 512 l 1
 1024 512 l 1
 1024 -512 l 1
 0 -512 l 1
EndSplineSet
Validated: 1
EndChar

StartChar: omicron
Encoding: 959 959 111
Width: 1024
GlyphClass: 2
Flags: MW
LayerCount: 2
Fore
SplineSet
0 -512 m 1
 0 512 l 1
 1024 512 l 1
 1024 -512 l 1
 0 -512 l 1
EndSplineSet
Validated: 1
EndChar

StartChar: pi
Encoding: 960 960 112
Width: 1024
GlyphClass: 2
Flags: MW
LayerCount: 2
Fore
SplineSet
0 -512 m 1
 0 512 l 1
 1024 512 l 1
 1024 -512 l 1
 0 -512 l 1
EndSplineSet
Validated: 1
EndChar

StartChar: rho
Encoding: 961 961 113
Width: 1024
GlyphClass: 2
Flags: MW
LayerCount: 2
Fore
SplineSet
0 -512 m 1
 0 512 l 1
 1024 512 l 1
 1024 -512 l 1
 0 -512 l 1
EndSplineSet
Validated: 1
EndChar

StartChar: sigma1
Encoding: 962 962 114
Width: 1024
GlyphClass: 2
Flags: MW
LayerCount: 2
Fore
SplineSet
0 -512 m 1
 0 512 l 1
 1024 512 l 1
 1024 -512 l 1
 0 -512 l 1
EndSplineSet
Validated: 1
EndChar

StartChar: sigma
Encoding: 963 963 115
Width: 1024
GlyphClass: 2
Flags: MW
LayerCount: 2
Fore
SplineSet
0 -512 m 1
 0 512 l 1
 1024 512 l 1
 1024 -512 l 1
 0 -512 l 1
EndSplineSet
Validated: 1
EndChar

StartChar: tau
Encoding: 964 964 116
Width: 1024
GlyphClass: 2
Flags: MW
LayerCount: 2
Fore
SplineSet
0 -512 m 1
 0 512 l 1
 1024 512 l 1
 1024 -512 l 1
 0 -512 l 1
EndSplineSet
Validated: 1
EndChar

StartChar: upsilon
Encoding: 965 965 117
Width: 1024
GlyphClass: 2
Flags: MW
LayerCount: 2
Fore
SplineSet
0 -512 m 1
 0 512 l 1
 1024 512 l 1
 1024 -512 l 1
 0 -512 l 1
EndSplineSet
Validated: 1
EndChar

StartChar: phi
Encoding: 966 966 118
Width: 1024
GlyphClass: 2
Flags: MW
LayerCount: 2
Fore
SplineSet
0 -512 m 1
 0 512 l 1
 1024 512 l 1
 1024 -512 l 1
 0 -512 l 1
EndSplineSet
Validated: 1
EndChar

StartChar: chi
Encoding: 967 967 119
Width: 1024
GlyphClass: 2
Flags: MW
LayerCount: 2
Fore
SplineSet
0 -512 m 1
 0 512 l 1
 1024 512 l 1
 1024 -512 l 1
 0 -512 l 1
EndSplineSet
Validated: 1
EndChar

StartChar: psi
Encoding: 968 968 120
Width: 1024
GlyphClass: 2
Flags: MW
LayerCount: 2
Fore
SplineSet
0 -512 m 1
 0 512 l 1
 1024 512 l 1
 1024 -512 l 1
 0 -512 l 1
EndSplineSet
Validated: 1
EndChar

StartChar: omega
Encoding: 969 969 121
Width: 1024
GlyphClass: 2
Flags: MW
LayerCount: 2
Fore
SplineSet
0 -512 m 1
 0 512 l 1
 1024 512 l 1
 1024 -512 l 1
 0 -512 l 1
EndSplineSet
Validated: 1
EndChar

StartChar: theta1
Encoding: 977 977 122
Width: 1024
GlyphClass: 2
Flags: MW
LayerCount: 2
Fore
SplineSet
0 -512 m 1
 0 512 l 1
 1024 512 l 1
 1024 -512 l 1
 0 -512 l 1
EndSplineSet
Validated: 1
EndChar

StartChar: phi1
Encoding: 981 981 123
Width: 1024
GlyphClass: 2
Flags: MW
LayerCount: 2
Fore
SplineSet
0 -512 m 1
 0 512 l 1
 1024 512 l 1
 1024 -512 l 1
 0 -512 l 1
EndSplineSet
Validated: 1
EndChar

StartChar: omega1
Encoding: 982 982 124
Width: 1024
GlyphClass: 2
Flags: MW
LayerCount: 2
Fore
SplineSet
0 -512 m 1
 0 512 l 1
 1024 512 l 1
 1024 -512 l 1
 0 -512 l 1
EndSplineSet
Validated: 1
EndChar

StartChar: uni03DC
Encoding: 988 988 125
Width: 1024
GlyphClass: 2
Flags: MW
LayerCount: 2
Fore
SplineSet
0 -512 m 1
 0 512 l 1
 1024 512 l 1
 1024 -512 l 1
 0 -512 l 1
EndSplineSet
Validated: 1
EndChar

StartChar: uni03DD
Encoding: 989 989 126
Width: 1024
GlyphClass: 2
Flags: MW
LayerCount: 2
Fore
SplineSet
0 -512 m 1
 0 512 l 1
 1024 512 l 1
 1024 -512 l 1
 0 -512 l 1
EndSplineSet
Validated: 1
EndChar

StartChar: uni03F0
Encoding: 1008 1008 127
Width: 1024
GlyphClass: 2
Flags: MW
LayerCount: 2
Fore
SplineSet
0 -512 m 1
 0 512 l 1
 1024 512 l 1
 1024 -512 l 1
 0 -512 l 1
EndSplineSet
Validated: 1
EndChar

StartChar: uni03F1
Encoding: 1009 1009 128
Width: 1024
GlyphClass: 2
Flags: MW
LayerCount: 2
Fore
SplineSet
0 -512 m 1
 0 512 l 1
 1024 512 l 1
 1024 -512 l 1
 0 -512 l 1
EndSplineSet
Validated: 1
EndChar

StartChar: uni03F4
Encoding: 1012 1012 129
Width: 1024
GlyphClass: 2
Flags: MW
LayerCount: 2
Fore
SplineSet
0 -512 m 1
 0 512 l 1
 1024 512 l 1
 1024 -512 l 1
 0 -512 l 1
EndSplineSet
Validated: 1
EndChar

StartChar: uni03F5
Encoding: 1013 1013 130
Width: 1024
GlyphClass: 2
Flags: MW
LayerCount: 2
Fore
SplineSet
0 -512 m 1
 0 512 l 1
 1024 512 l 1
 1024 -512 l 1
 0 -512 l 1
EndSplineSet
Validated: 1
EndChar

StartChar: uni2102
Encoding: 8450 8450 131
Width: 1280
GlyphClass: 2
Flags: MW
LayerCount: 2
Fore
SplineSet
576 384 m 1
 1024 384 l 1
 1024 -384 l 1
 576 -387 l 1
 576 384 l 1
0 384 m 1
 448 384 l 1
 448 -384 l 1
 0 -384 l 1
 0 384 l 1
EndSplineSet
Validated: 1
EndChar

StartChar: uni210A
Encoding: 8458 8458 132
Width: 1088
GlyphClass: 2
Flags: MW
LayerCount: 2
Fore
SplineSet
0 0 m 0
 0 64 384 128 512 128 c 0
 640 128 1024 64 1024 0 c 0
 1024 -64 640 -128 512 -128 c 0
 384 -128 0 -64 0 0 c 0
EndSplineSet
Validated: 1
EndChar

StartChar: uni210B
Encoding: 8459 8459 133
Width: 1088
GlyphClass: 2
Flags: MW
LayerCount: 2
Fore
SplineSet
0 0 m 0
 0 64 384 128 512 128 c 0
 640 128 1024 64 1024 0 c 0
 1024 -64 640 -128 512 -128 c 0
 384 -128 0 -64 0 0 c 0
EndSplineSet
Validated: 1
EndChar

StartChar: uni210C
Encoding: 8460 8460 134
Width: 1152
GlyphClass: 2
Flags: MW
LayerCount: 2
Fore
SplineSet
0 -256 m 1
 512 256 l 1
 1024 -256 l 1
 0 -256 l 1
EndSplineSet
Validated: 1
EndChar

StartChar: uni210D
Encoding: 8461 8461 135
Width: 1280
GlyphClass: 2
Flags: MW
LayerCount: 2
Fore
SplineSet
576 384 m 1
 1024 384 l 1
 1024 -384 l 1
 576 -387 l 1
 576 384 l 1
0 384 m 1
 448 384 l 1
 448 -384 l 1
 0 -384 l 1
 0 384 l 1
EndSplineSet
Validated: 1
EndChar

StartChar: uni210E
Encoding: 8462 8462 136
Width: 768
GlyphClass: 2
Flags: MW
LayerCount: 2
Fore
SplineSet
0 -512 m 1
 256 512 l 1
 768 512 l 1
 512 -512 l 1
 0 -512 l 1
EndSplineSet
Validated: 1
EndChar

StartChar: uni2110
Encoding: 8464 8464 137
Width: 1088
GlyphClass: 2
Flags: MW
LayerCount: 2
Fore
SplineSet
0 0 m 0
 0 64 384 128 512 128 c 0
 640 128 1024 64 1024 0 c 0
 1024 -64 640 -128 512 -128 c 0
 384 -128 0 -64 0 0 c 0
EndSplineSet
Validated: 1
EndChar

StartChar: Ifraktur
Encoding: 8465 8465 138
Width: 1152
GlyphClass: 2
Flags: MW
LayerCount: 2
Fore
SplineSet
0 -256 m 1
 512 256 l 1
 1024 -256 l 1
 0 -256 l 1
EndSplineSet
Validated: 1
EndChar

StartChar: uni2112
Encoding: 8466 8466 139
Width: 1088
GlyphClass: 2
Flags: MW
LayerCount: 2
Fore
SplineSet
0 0 m 0
 0 64 384 128 512 128 c 0
 640 128 1024 64 1024 0 c 0
 1024 -64 640 -128 512 -128 c 0
 384 -128 0 -64 0 0 c 0
EndSplineSet
Validated: 1
EndChar

StartChar: uni2115
Encoding: 8469 8469 140
Width: 1280
GlyphClass: 2
Flags: MW
LayerCount: 2
Fore
SplineSet
576 384 m 1
 1024 384 l 1
 1024 -384 l 1
 576 -387 l 1
 576 384 l 1
0 384 m 1
 448 384 l 1
 448 -384 l 1
 0 -384 l 1
 0 384 l 1
EndSplineSet
Validated: 1
EndChar

StartChar: uni2119
Encoding: 8473 8473 141
Width: 1280
GlyphClass: 2
Flags: MW
LayerCount: 2
Fore
SplineSet
576 384 m 1
 1024 384 l 1
 1024 -384 l 1
 576 -387 l 1
 576 384 l 1
0 384 m 1
 448 384 l 1
 448 -384 l 1
 0 -384 l 1
 0 384 l 1
EndSplineSet
Validated: 1
EndChar

StartChar: uni211A
Encoding: 8474 8474 142
Width: 1280
GlyphClass: 2
Flags: MW
LayerCount: 2
Fore
SplineSet
576 384 m 1
 1024 384 l 1
 1024 -384 l 1
 576 -387 l 1
 576 384 l 1
0 384 m 1
 448 384 l 1
 448 -384 l 1
 0 -384 l 1
 0 384 l 1
EndSplineSet
Validated: 1
EndChar

StartChar: uni211B
Encoding: 8475 8475 143
Width: 1088
GlyphClass: 2
Flags: MW
LayerCount: 2
Fore
SplineSet
0 0 m 0
 0 64 384 128 512 128 c 0
 640 128 1024 64 1024 0 c 0
 1024 -64 640 -128 512 -128 c 0
 384 -128 0 -64 0 0 c 0
EndSplineSet
Validated: 1
EndChar

StartChar: Rfraktur
Encoding: 8476 8476 144
Width: 1152
GlyphClass: 2
Flags: MW
LayerCount: 2
Fore
SplineSet
0 -256 m 1
 512 256 l 1
 1024 -256 l 1
 0 -256 l 1
EndSplineSet
Validated: 1
EndChar

StartChar: uni211D
Encoding: 8477 8477 145
Width: 1280
GlyphClass: 2
Flags: MW
LayerCount: 2
Fore
SplineSet
576 384 m 1
 1024 384 l 1
 1024 -384 l 1
 576 -387 l 1
 576 384 l 1
0 384 m 1
 448 384 l 1
 448 -384 l 1
 0 -384 l 1
 0 384 l 1
EndSplineSet
Validated: 1
EndChar

StartChar: uni2124
Encoding: 8484 8484 146
Width: 1280
GlyphClass: 2
Flags: MW
LayerCount: 2
Fore
SplineSet
576 384 m 1
 1024 384 l 1
 1024 -384 l 1
 576 -387 l 1
 576 384 l 1
0 384 m 1
 448 384 l 1
 448 -384 l 1
 0 -384 l 1
 0 384 l 1
EndSplineSet
Validated: 1
EndChar

StartChar: uni2128
Encoding: 8488 8488 147
Width: 1152
GlyphClass: 2
Flags: MW
LayerCount: 2
Fore
SplineSet
0 -256 m 1
 512 256 l 1
 1024 -256 l 1
 0 -256 l 1
EndSplineSet
Validated: 1
EndChar

StartChar: uni212C
Encoding: 8492 8492 148
Width: 1088
GlyphClass: 2
Flags: MW
LayerCount: 2
Fore
SplineSet
0 0 m 0
 0 64 384 128 512 128 c 0
 640 128 1024 64 1024 0 c 0
 1024 -64 640 -128 512 -128 c 0
 384 -128 0 -64 0 0 c 0
EndSplineSet
Validated: 1
EndChar

StartChar: uni212D
Encoding: 8493 8493 149
Width: 1152
GlyphClass: 2
Flags: MW
LayerCount: 2
Fore
SplineSet
0 -256 m 1
 512 256 l 1
 1024 -256 l 1
 0 -256 l 1
EndSplineSet
Validated: 1
EndChar

StartChar: uni212F
Encoding: 8495 8495 150
Width: 1088
GlyphClass: 2
Flags: MW
LayerCount: 2
Fore
SplineSet
0 0 m 0
 0 64 384 128 512 128 c 0
 640 128 1024 64 1024 0 c 0
 1024 -64 640 -128 512 -128 c 0
 384 -128 0 -64 0 0 c 0
EndSplineSet
Validated: 1
EndChar

StartChar: uni2130
Encoding: 8496 8496 151
Width: 1088
GlyphClass: 2
Flags: MW
LayerCount: 2
Fore
SplineSet
0 0 m 0
 0 64 384 128 512 128 c 0
 640 128 1024 64 1024 0 c 0
 1024 -64 640 -128 512 -128 c 0
 384 -128 0 -64 0 0 c 0
EndSplineSet
Validated: 1
EndChar

StartChar: uni2131
Encoding: 8497 8497 152
Width: 1088
GlyphClass: 2
Flags: MW
LayerCount: 2
Fore
SplineSet
0 0 m 0
 0 64 384 128 512 128 c 0
 640 128 1024 64 1024 0 c 0
 1024 -64 640 -128 512 -128 c 0
 384 -128 0 -64 0 0 c 0
EndSplineSet
Validated: 1
EndChar

StartChar: uni2133
Encoding: 8499 8499 153
Width: 1088
GlyphClass: 2
Flags: MW
LayerCount: 2
Fore
SplineSet
0 0 m 0
 0 64 384 128 512 128 c 0
 640 128 1024 64 1024 0 c 0
 1024 -64 640 -128 512 -128 c 0
 384 -128 0 -64 0 0 c 0
EndSplineSet
Validated: 1
EndChar

StartChar: uni2134
Encoding: 8500 8500 154
Width: 1088
GlyphClass: 2
Flags: MW
LayerCount: 2
Fore
SplineSet
0 0 m 0
 0 64 384 128 512 128 c 0
 640 128 1024 64 1024 0 c 0
 1024 -64 640 -128 512 -128 c 0
 384 -128 0 -64 0 0 c 0
EndSplineSet
Validated: 1
EndChar

StartChar: arrowright
Encoding: 8594 8594 155
Width: 1024
GlyphClass: 2
Flags: MW
LayerCount: 2
Fore
SplineSet
0 0 m 1
 512 512 l 1
 1024 0 l 1
 512 -512 l 1
 0 0 l 1
EndSplineSet
Validated: 1
EndChar

StartChar: partialdiff
Encoding: 8706 8706 156
Width: 1024
GlyphClass: 2
Flags: MW
LayerCount: 2
Fore
SplineSet
0 -512 m 1
 0 512 l 1
 1024 512 l 1
 1024 -512 l 1
 0 -512 l 1
EndSplineSet
Validated: 1
EndChar

StartChar: gradient
Encoding: 8711 8711 157
Width: 1024
GlyphClass: 2
Flags: MW
LayerCount: 2
Fore
SplineSet
0 -512 m 1
 0 512 l 1
 1024 512 l 1
 1024 -512 l 1
 0 -512 l 1
EndSplineSet
Validated: 1
EndChar

StartChar: summation
Encoding: 8721 8721 158
Width: 1024
GlyphClass: 2
Flags: MW
LayerCount: 2
Fore
SplineSet
0 0 m 1
 512 512 l 1
 1024 0 l 1
 512 -512 l 1
 0 0 l 1
EndSplineSet
Validated: 1
EndChar

StartChar: minus
Encoding: 8722 8722 159
Width: 1024
GlyphClass: 2
Flags: MW
LayerCount: 2
Fore
SplineSet
0 0 m 1
 512 512 l 1
 1024 0 l 1
 512 -512 l 1
 0 0 l 1
EndSplineSet
Validated: 1
EndChar

StartChar: u1D400
Encoding: 119808 119808 160
Width: 512
GlyphClass: 2
Flags: MW
LayerCount: 2
Fore
SplineSet
0 512 m 1
 512 512 l 1
 512 -512 l 1
 0 -512 l 1
 0 512 l 1
EndSplineSet
Validated: 1
EndChar

StartChar: u1D401
Encoding: 119809 119809 161
Width: 512
GlyphClass: 2
Flags: MW
LayerCount: 2
Fore
SplineSet
0 512 m 1
 512 512 l 1
 512 -512 l 1
 0 -512 l 1
 0 512 l 1
EndSplineSet
Validated: 1
EndChar

StartChar: u1D402
Encoding: 119810 119810 162
Width: 512
GlyphClass: 2
Flags: MW
LayerCount: 2
Fore
SplineSet
0 512 m 1
 512 512 l 1
 512 -512 l 1
 0 -512 l 1
 0 512 l 1
EndSplineSet
Validated: 1
EndChar

StartChar: u1D403
Encoding: 119811 119811 163
Width: 512
GlyphClass: 2
Flags: MW
LayerCount: 2
Fore
SplineSet
0 512 m 1
 512 512 l 1
 512 -512 l 1
 0 -512 l 1
 0 512 l 1
EndSplineSet
Validated: 1
EndChar

StartChar: u1D404
Encoding: 119812 119812 164
Width: 512
GlyphClass: 2
Flags: MW
LayerCount: 2
Fore
SplineSet
0 512 m 1
 512 512 l 1
 512 -512 l 1
 0 -512 l 1
 0 512 l 1
EndSplineSet
Validated: 1
EndChar

StartChar: u1D405
Encoding: 119813 119813 165
Width: 512
GlyphClass: 2
Flags: MW
LayerCount: 2
Fore
SplineSet
0 512 m 1
 512 512 l 1
 512 -512 l 1
 0 -512 l 1
 0 512 l 1
EndSplineSet
Validated: 1
EndChar

StartChar: u1D406
Encoding: 119814 119814 166
Width: 512
GlyphClass: 2
Flags: MW
LayerCount: 2
Fore
SplineSet
0 512 m 1
 512 512 l 1
 512 -512 l 1
 0 -512 l 1
 0 512 l 1
EndSplineSet
Validated: 1
EndChar

StartChar: u1D407
Encoding: 119815 119815 167
Width: 512
GlyphClass: 2
Flags: MW
LayerCount: 2
Fore
SplineSet
0 512 m 1
 512 512 l 1
 512 -512 l 1
 0 -512 l 1
 0 512 l 1
EndSplineSet
Validated: 1
EndChar

StartChar: u1D408
Encoding: 119816 119816 168
Width: 512
GlyphClass: 2
Flags: MW
LayerCount: 2
Fore
SplineSet
0 512 m 1
 512 512 l 1
 512 -512 l 1
 0 -512 l 1
 0 512 l 1
EndSplineSet
Validated: 1
EndChar

StartChar: u1D409
Encoding: 119817 119817 169
Width: 512
GlyphClass: 2
Flags: MW
LayerCount: 2
Fore
SplineSet
0 512 m 1
 512 512 l 1
 512 -512 l 1
 0 -512 l 1
 0 512 l 1
EndSplineSet
Validated: 1
EndChar

StartChar: u1D40A
Encoding: 119818 119818 170
Width: 512
GlyphClass: 2
Flags: MW
LayerCount: 2
Fore
SplineSet
0 512 m 1
 512 512 l 1
 512 -512 l 1
 0 -512 l 1
 0 512 l 1
EndSplineSet
Validated: 1
EndChar

StartChar: u1D40B
Encoding: 119819 119819 171
Width: 512
GlyphClass: 2
Flags: MW
LayerCount: 2
Fore
SplineSet
0 512 m 1
 512 512 l 1
 512 -512 l 1
 0 -512 l 1
 0 512 l 1
EndSplineSet
Validated: 1
EndChar

StartChar: u1D40C
Encoding: 119820 119820 172
Width: 512
GlyphClass: 2
Flags: MW
LayerCount: 2
Fore
SplineSet
0 512 m 1
 512 512 l 1
 512 -512 l 1
 0 -512 l 1
 0 512 l 1
EndSplineSet
Validated: 1
EndChar

StartChar: u1D40D
Encoding: 119821 119821 173
Width: 512
GlyphClass: 2
Flags: MW
LayerCount: 2
Fore
SplineSet
0 512 m 1
 512 512 l 1
 512 -512 l 1
 0 -512 l 1
 0 512 l 1
EndSplineSet
Validated: 1
EndChar

StartChar: u1D40E
Encoding: 119822 119822 174
Width: 512
GlyphClass: 2
Flags: MW
LayerCount: 2
Fore
SplineSet
0 512 m 1
 512 512 l 1
 512 -512 l 1
 0 -512 l 1
 0 512 l 1
EndSplineSet
Validated: 1
EndChar

StartChar: u1D40F
Encoding: 119823 119823 175
Width: 512
GlyphClass: 2
Flags: MW
LayerCount: 2
Fore
SplineSet
0 512 m 1
 512 512 l 1
 512 -512 l 1
 0 -512 l 1
 0 512 l 1
EndSplineSet
Validated: 1
EndChar

StartChar: u1D410
Encoding: 119824 119824 176
Width: 512
GlyphClass: 2
Flags: MW
LayerCount: 2
Fore
SplineSet
0 512 m 1
 512 512 l 1
 512 -512 l 1
 0 -512 l 1
 0 512 l 1
EndSplineSet
Validated: 1
EndChar

StartChar: u1D411
Encoding: 119825 119825 177
Width: 512
GlyphClass: 2
Flags: MW
LayerCount: 2
Fore
SplineSet
0 512 m 1
 512 512 l 1
 512 -512 l 1
 0 -512 l 1
 0 512 l 1
EndSplineSet
Validated: 1
EndChar

StartChar: u1D412
Encoding: 119826 119826 178
Width: 512
GlyphClass: 2
Flags: MW
LayerCount: 2
Fore
SplineSet
0 512 m 1
 512 512 l 1
 512 -512 l 1
 0 -512 l 1
 0 512 l 1
EndSplineSet
Validated: 1
EndChar

StartChar: u1D413
Encoding: 119827 119827 179
Width: 512
GlyphClass: 2
Flags: MW
LayerCount: 2
Fore
SplineSet
0 512 m 1
 512 512 l 1
 512 -512 l 1
 0 -512 l 1
 0 512 l 1
EndSplineSet
Validated: 1
EndChar

StartChar: u1D414
Encoding: 119828 119828 180
Width: 512
GlyphClass: 2
Flags: MW
LayerCount: 2
Fore
SplineSet
0 512 m 1
 512 512 l 1
 512 -512 l 1
 0 -512 l 1
 0 512 l 1
EndSplineSet
Validated: 1
EndChar

StartChar: u1D415
Encoding: 119829 119829 181
Width: 512
GlyphClass: 2
Flags: MW
LayerCount: 2
Fore
SplineSet
0 512 m 1
 512 512 l 1
 512 -512 l 1
 0 -512 l 1
 0 512 l 1
EndSplineSet
Validated: 1
EndChar

StartChar: u1D416
Encoding: 119830 119830 182
Width: 512
GlyphClass: 2
Flags: MW
LayerCount: 2
Fore
SplineSet
0 512 m 1
 512 512 l 1
 512 -512 l 1
 0 -512 l 1
 0 512 l 1
EndSplineSet
Validated: 1
EndChar

StartChar: u1D417
Encoding: 119831 119831 183
Width: 512
GlyphClass: 2
Flags: MW
LayerCount: 2
Fore
SplineSet
0 512 m 1
 512 512 l 1
 512 -512 l 1
 0 -512 l 1
 0 512 l 1
EndSplineSet
Validated: 1
EndChar

StartChar: u1D418
Encoding: 119832 119832 184
Width: 512
GlyphClass: 2
Flags: MW
LayerCount: 2
Fore
SplineSet
0 512 m 1
 512 512 l 1
 512 -512 l 1
 0 -512 l 1
 0 512 l 1
EndSplineSet
Validated: 1
EndChar

StartChar: u1D419
Encoding: 119833 119833 185
Width: 512
GlyphClass: 2
Flags: MW
LayerCount: 2
Fore
SplineSet
0 512 m 1
 512 512 l 1
 512 -512 l 1
 0 -512 l 1
 0 512 l 1
EndSplineSet
Validated: 1
EndChar

StartChar: u1D41A
Encoding: 119834 119834 186
Width: 512
GlyphClass: 2
Flags: MW
LayerCount: 2
Fore
SplineSet
0 512 m 1
 512 512 l 1
 512 -512 l 1
 0 -512 l 1
 0 512 l 1
EndSplineSet
Validated: 1
EndChar

StartChar: u1D41B
Encoding: 119835 119835 187
Width: 512
GlyphClass: 2
Flags: MW
LayerCount: 2
Fore
SplineSet
0 512 m 1
 512 512 l 1
 512 -512 l 1
 0 -512 l 1
 0 512 l 1
EndSplineSet
Validated: 1
EndChar

StartChar: u1D41C
Encoding: 119836 119836 188
Width: 512
GlyphClass: 2
Flags: MW
LayerCount: 2
Fore
SplineSet
0 512 m 1
 512 512 l 1
 512 -512 l 1
 0 -512 l 1
 0 512 l 1
EndSplineSet
Validated: 1
EndChar

StartChar: u1D41D
Encoding: 119837 119837 189
Width: 512
GlyphClass: 2
Flags: MW
LayerCount: 2
Fore
SplineSet
0 512 m 1
 512 512 l 1
 512 -512 l 1
 0 -512 l 1
 0 512 l 1
EndSplineSet
Validated: 1
EndChar

StartChar: u1D41E
Encoding: 119838 119838 190
Width: 512
GlyphClass: 2
Flags: MW
LayerCount: 2
Fore
SplineSet
0 512 m 1
 512 512 l 1
 512 -512 l 1
 0 -512 l 1
 0 512 l 1
EndSplineSet
Validated: 1
EndChar

StartChar: u1D41F
Encoding: 119839 119839 191
Width: 512
GlyphClass: 2
Flags: MW
LayerCount: 2
Fore
SplineSet
0 512 m 1
 512 512 l 1
 512 -512 l 1
 0 -512 l 1
 0 512 l 1
EndSplineSet
Validated: 1
EndChar

StartChar: u1D420
Encoding: 119840 119840 192
Width: 512
GlyphClass: 2
Flags: MW
LayerCount: 2
Fore
SplineSet
0 512 m 1
 512 512 l 1
 512 -512 l 1
 0 -512 l 1
 0 512 l 1
EndSplineSet
Validated: 1
EndChar

StartChar: u1D421
Encoding: 119841 119841 193
Width: 512
GlyphClass: 2
Flags: MW
LayerCount: 2
Fore
SplineSet
0 512 m 1
 512 512 l 1
 512 -512 l 1
 0 -512 l 1
 0 512 l 1
EndSplineSet
Validated: 1
EndChar

StartChar: u1D422
Encoding: 119842 119842 194
Width: 512
GlyphClass: 2
Flags: MW
LayerCount: 2
Fore
SplineSet
0 512 m 1
 512 512 l 1
 512 -512 l 1
 0 -512 l 1
 0 512 l 1
EndSplineSet
Validated: 1
EndChar

StartChar: u1D423
Encoding: 119843 119843 195
Width: 512
GlyphClass: 2
Flags: MW
LayerCount: 2
Fore
SplineSet
0 512 m 1
 512 512 l 1
 512 -512 l 1
 0 -512 l 1
 0 512 l 1
EndSplineSet
Validated: 1
EndChar

StartChar: u1D424
Encoding: 119844 119844 196
Width: 512
GlyphClass: 2
Flags: MW
LayerCount: 2
Fore
SplineSet
0 512 m 1
 512 512 l 1
 512 -512 l 1
 0 -512 l 1
 0 512 l 1
EndSplineSet
Validated: 1
EndChar

StartChar: u1D425
Encoding: 119845 119845 197
Width: 512
GlyphClass: 2
Flags: MW
LayerCount: 2
Fore
SplineSet
0 512 m 1
 512 512 l 1
 512 -512 l 1
 0 -512 l 1
 0 512 l 1
EndSplineSet
Validated: 1
EndChar

StartChar: u1D426
Encoding: 119846 119846 198
Width: 512
GlyphClass: 2
Flags: MW
LayerCount: 2
Fore
SplineSet
0 512 m 1
 512 512 l 1
 512 -512 l 1
 0 -512 l 1
 0 512 l 1
EndSplineSet
Validated: 1
EndChar

StartChar: u1D427
Encoding: 119847 119847 199
Width: 512
GlyphClass: 2
Flags: MW
LayerCount: 2
Fore
SplineSet
0 512 m 1
 512 512 l 1
 512 -512 l 1
 0 -512 l 1
 0 512 l 1
EndSplineSet
Validated: 1
EndChar

StartChar: u1D428
Encoding: 119848 119848 200
Width: 512
GlyphClass: 2
Flags: MW
LayerCount: 2
Fore
SplineSet
0 512 m 1
 512 512 l 1
 512 -512 l 1
 0 -512 l 1
 0 512 l 1
EndSplineSet
Validated: 1
EndChar

StartChar: u1D429
Encoding: 119849 119849 201
Width: 512
GlyphClass: 2
Flags: MW
LayerCount: 2
Fore
SplineSet
0 512 m 1
 512 512 l 1
 512 -512 l 1
 0 -512 l 1
 0 512 l 1
EndSplineSet
Validated: 1
EndChar

StartChar: u1D42A
Encoding: 119850 119850 202
Width: 512
GlyphClass: 2
Flags: MW
LayerCount: 2
Fore
SplineSet
0 512 m 1
 512 512 l 1
 512 -512 l 1
 0 -512 l 1
 0 512 l 1
EndSplineSet
Validated: 1
EndChar

StartChar: u1D42B
Encoding: 119851 119851 203
Width: 512
GlyphClass: 2
Flags: MW
LayerCount: 2
Fore
SplineSet
0 512 m 1
 512 512 l 1
 512 -512 l 1
 0 -512 l 1
 0 512 l 1
EndSplineSet
Validated: 1
EndChar

StartChar: u1D42C
Encoding: 119852 119852 204
Width: 512
GlyphClass: 2
Flags: MW
LayerCount: 2
Fore
SplineSet
0 512 m 1
 512 512 l 1
 512 -512 l 1
 0 -512 l 1
 0 512 l 1
EndSplineSet
Validated: 1
EndChar

StartChar: u1D42D
Encoding: 119853 119853 205
Width: 512
GlyphClass: 2
Flags: MW
LayerCount: 2
Fore
SplineSet
0 512 m 1
 512 512 l 1
 512 -512 l 1
 0 -512 l 1
 0 512 l 1
EndSplineSet
Validated: 1
EndChar

StartChar: u1D42E
Encoding: 119854 119854 206
Width: 512
GlyphClass: 2
Flags: MW
LayerCount: 2
Fore
SplineSet
0 512 m 1
 512 512 l 1
 512 -512 l 1
 0 -512 l 1
 0 512 l 1
EndSplineSet
Validated: 1
EndChar

StartChar: u1D42F
Encoding: 119855 119855 207
Width: 512
GlyphClass: 2
Flags: MW
LayerCount: 2
Fore
SplineSet
0 512 m 1
 512 512 l 1
 512 -512 l 1
 0 -512 l 1
 0 512 l 1
EndSplineSet
Validated: 1
EndChar

StartChar: u1D430
Encoding: 119856 119856 208
Width: 512
GlyphClass: 2
Flags: MW
LayerCount: 2
Fore
SplineSet
0 512 m 1
 512 512 l 1
 512 -512 l 1
 0 -512 l 1
 0 512 l 1
EndSplineSet
Validated: 1
EndChar

StartChar: u1D431
Encoding: 119857 119857 209
Width: 512
GlyphClass: 2
Flags: MW
LayerCount: 2
Fore
SplineSet
0 512 m 1
 512 512 l 1
 512 -512 l 1
 0 -512 l 1
 0 512 l 1
EndSplineSet
Validated: 1
EndChar

StartChar: u1D432
Encoding: 119858 119858 210
Width: 512
GlyphClass: 2
Flags: MW
LayerCount: 2
Fore
SplineSet
0 512 m 1
 512 512 l 1
 512 -512 l 1
 0 -512 l 1
 0 512 l 1
EndSplineSet
Validated: 1
EndChar

StartChar: u1D433
Encoding: 119859 119859 211
Width: 512
GlyphClass: 2
Flags: MW
LayerCount: 2
Fore
SplineSet
0 512 m 1
 512 512 l 1
 512 -512 l 1
 0 -512 l 1
 0 512 l 1
EndSplineSet
Validated: 1
EndChar

StartChar: u1D434
Encoding: 119860 119860 212
Width: 768
GlyphClass: 2
Flags: MW
LayerCount: 2
Fore
SplineSet
0 -512 m 1
 256 512 l 1
 768 512 l 1
 512 -512 l 1
 0 -512 l 1
EndSplineSet
Validated: 1
EndChar

StartChar: u1D435
Encoding: 119861 119861 213
Width: 768
GlyphClass: 2
Flags: MW
LayerCount: 2
Fore
SplineSet
0 -512 m 1
 256 512 l 1
 768 512 l 1
 512 -512 l 1
 0 -512 l 1
EndSplineSet
Validated: 1
EndChar

StartChar: u1D436
Encoding: 119862 119862 214
Width: 768
GlyphClass: 2
Flags: MW
LayerCount: 2
Fore
SplineSet
0 -512 m 1
 256 512 l 1
 768 512 l 1
 512 -512 l 1
 0 -512 l 1
EndSplineSet
Validated: 1
EndChar

StartChar: u1D437
Encoding: 119863 119863 215
Width: 768
GlyphClass: 2
Flags: MW
LayerCount: 2
Fore
SplineSet
0 -512 m 1
 256 512 l 1
 768 512 l 1
 512 -512 l 1
 0 -512 l 1
EndSplineSet
Validated: 1
EndChar

StartChar: u1D438
Encoding: 119864 119864 216
Width: 768
GlyphClass: 2
Flags: MW
LayerCount: 2
Fore
SplineSet
0 -512 m 1
 256 512 l 1
 768 512 l 1
 512 -512 l 1
 0 -512 l 1
EndSplineSet
Validated: 1
EndChar

StartChar: u1D439
Encoding: 119865 119865 217
Width: 768
GlyphClass: 2
Flags: MW
LayerCount: 2
Fore
SplineSet
0 -512 m 1
 256 512 l 1
 768 512 l 1
 512 -512 l 1
 0 -512 l 1
EndSplineSet
Validated: 1
EndChar

StartChar: u1D43A
Encoding: 119866 119866 218
Width: 768
GlyphClass: 2
Flags: MW
LayerCount: 2
Fore
SplineSet
0 -512 m 1
 256 512 l 1
 768 512 l 1
 512 -512 l 1
 0 -512 l 1
EndSplineSet
Validated: 1
EndChar

StartChar: u1D43B
Encoding: 119867 119867 219
Width: 768
GlyphClass: 2
Flags: MW
LayerCount: 2
Fore
SplineSet
0 -512 m 1
 256 512 l 1
 768 512 l 1
 512 -512 l 1
 0 -512 l 1
EndSplineSet
Validated: 1
EndChar

StartChar: u1D43C
Encoding: 119868 119868 220
Width: 768
GlyphClass: 2
Flags: MW
LayerCount: 2
Fore
SplineSet
0 -512 m 1
 256 512 l 1
 768 512 l 1
 512 -512 l 1
 0 -512 l 1
EndSplineSet
Validated: 1
EndChar

StartChar: u1D43D
Encoding: 119869 119869 221
Width: 768
GlyphClass: 2
Flags: MW
LayerCount: 2
Fore
SplineSet
0 -512 m 1
 256 512 l 1
 768 512 l 1
 512 -512 l 1
 0 -512 l 1
EndSplineSet
Validated: 1
EndChar

StartChar: u1D43E
Encoding: 119870 119870 222
Width: 768
GlyphClass: 2
Flags: MW
LayerCount: 2
Fore
SplineSet
0 -512 m 1
 256 512 l 1
 768 512 l 1
 512 -512 l 1
 0 -512 l 1
EndSplineSet
Validated: 1
EndChar

StartChar: u1D43F
Encoding: 119871 119871 223
Width: 768
GlyphClass: 2
Flags: MW
LayerCount: 2
Fore
SplineSet
0 -512 m 1
 256 512 l 1
 768 512 l 1
 512 -512 l 1
 0 -512 l 1
EndSplineSet
Validated: 1
EndChar

StartChar: u1D440
Encoding: 119872 119872 224
Width: 768
GlyphClass: 2
Flags: MW
LayerCount: 2
Fore
SplineSet
0 -512 m 1
 256 512 l 1
 768 512 l 1
 512 -512 l 1
 0 -512 l 1
EndSplineSet
Validated: 1
EndChar

StartChar: u1D441
Encoding: 119873 119873 225
Width: 768
GlyphClass: 2
Flags: MW
LayerCount: 2
Fore
SplineSet
0 -512 m 1
 256 512 l 1
 768 512 l 1
 512 -512 l 1
 0 -512 l 1
EndSplineSet
Validated: 1
EndChar

StartChar: u1D442
Encoding: 119874 119874 226
Width: 768
GlyphClass: 2
Flags: MW
LayerCount: 2
Fore
SplineSet
0 -512 m 1
 256 512 l 1
 768 512 l 1
 512 -512 l 1
 0 -512 l 1
EndSplineSet
Validated: 1
EndChar

StartChar: u1D443
Encoding: 119875 119875 227
Width: 768
GlyphClass: 2
Flags: MW
LayerCount: 2
Fore
SplineSet
0 -512 m 1
 256 512 l 1
 768 512 l 1
 512 -512 l 1
 0 -512 l 1
EndSplineSet
Validated: 1
EndChar

StartChar: u1D444
Encoding: 119876 119876 228
Width: 768
GlyphClass: 2
Flags: MW
LayerCount: 2
Fore
SplineSet
0 -512 m 1
 256 512 l 1
 768 512 l 1
 512 -512 l 1
 0 -512 l 1
EndSplineSet
Validated: 1
EndChar

StartChar: u1D445
Encoding: 119877 119877 229
Width: 768
GlyphClass: 2
Flags: MW
LayerCount: 2
Fore
SplineSet
0 -512 m 1
 256 512 l 1
 768 512 l 1
 512 -512 l 1
 0 -512 l 1
EndSplineSet
Validated: 1
EndChar

StartChar: u1D446
Encoding: 119878 119878 230
Width: 768
GlyphClass: 2
Flags: MW
LayerCount: 2
Fore
SplineSet
0 -512 m 1
 256 512 l 1
 768 512 l 1
 512 -512 l 1
 0 -512 l 1
EndSplineSet
Validated: 1
EndChar

StartChar: u1D447
Encoding: 119879 119879 231
Width: 768
GlyphClass: 2
Flags: MW
LayerCount: 2
Fore
SplineSet
0 -512 m 1
 256 512 l 1
 768 512 l 1
 512 -512 l 1
 0 -512 l 1
EndSplineSet
Validated: 1
EndChar

StartChar: u1D448
Encoding: 119880 119880 232
Width: 768
GlyphClass: 2
Flags: MW
LayerCount: 2
Fore
SplineSet
0 -512 m 1
 256 512 l 1
 768 512 l 1
 512 -512 l 1
 0 -512 l 1
EndSplineSet
Validated: 1
EndChar

StartChar: u1D449
Encoding: 119881 119881 233
Width: 768
GlyphClass: 2
Flags: MW
LayerCount: 2
Fore
SplineSet
0 -512 m 1
 256 512 l 1
 768 512 l 1
 512 -512 l 1
 0 -512 l 1
EndSplineSet
Validated: 1
EndChar

StartChar: u1D44A
Encoding: 119882 119882 234
Width: 768
GlyphClass: 2
Flags: MW
LayerCount: 2
Fore
SplineSet
0 -512 m 1
 256 512 l 1
 768 512 l 1
 512 -512 l 1
 0 -512 l 1
EndSplineSet
Validated: 1
EndChar

StartChar: u1D44B
Encoding: 119883 119883 235
Width: 768
GlyphClass: 2
Flags: MW
LayerCount: 2
Fore
SplineSet
0 -512 m 1
 256 512 l 1
 768 512 l 1
 512 -512 l 1
 0 -512 l 1
EndSplineSet
Validated: 1
EndChar

StartChar: u1D44C
Encoding: 119884 119884 236
Width: 768
GlyphClass: 2
Flags: MW
LayerCount: 2
Fore
SplineSet
0 -512 m 1
 256 512 l 1
 768 512 l 1
 512 -512 l 1
 0 -512 l 1
EndSplineSet
Validated: 1
EndChar

StartChar: u1D44D
Encoding: 119885 119885 237
Width: 768
GlyphClass: 2
Flags: MW
LayerCount: 2
Fore
SplineSet
0 -512 m 1
 256 512 l 1
 768 512 l 1
 512 -512 l 1
 0 -512 l 1
EndSplineSet
Validated: 1
EndChar

StartChar: u1D44E
Encoding: 119886 119886 238
Width: 768
GlyphClass: 2
Flags: MW
LayerCount: 2
Fore
SplineSet
0 -512 m 1
 256 512 l 1
 768 512 l 1
 512 -512 l 1
 0 -512 l 1
EndSplineSet
Validated: 1
EndChar

StartChar: u1D44F
Encoding: 119887 119887 239
Width: 768
GlyphClass: 2
Flags: MW
LayerCount: 2
Fore
SplineSet
0 -512 m 1
 256 512 l 1
 768 512 l 1
 512 -512 l 1
 0 -512 l 1
EndSplineSet
Validated: 1
EndChar

StartChar: u1D450
Encoding: 119888 119888 240
Width: 768
GlyphClass: 2
Flags: MW
LayerCount: 2
Fore
SplineSet
0 -512 m 1
 256 512 l 1
 768 512 l 1
 512 -512 l 1
 0 -512 l 1
EndSplineSet
Validated: 1
EndChar

StartChar: u1D451
Encoding: 119889 119889 241
Width: 768
GlyphClass: 2
Flags: MW
LayerCount: 2
Fore
SplineSet
0 -512 m 1
 256 512 l 1
 768 512 l 1
 512 -512 l 1
 0 -512 l 1
EndSplineSet
Validated: 1
EndChar

StartChar: u1D452
Encoding: 119890 119890 242
Width: 768
GlyphClass: 2
Flags: MW
LayerCount: 2
Fore
SplineSet
0 -512 m 1
 256 512 l 1
 768 512 l 1
 512 -512 l 1
 0 -512 l 1
EndSplineSet
Validated: 1
EndChar

StartChar: u1D453
Encoding: 119891 119891 243
Width: 768
GlyphClass: 2
Flags: MW
LayerCount: 2
Fore
SplineSet
0 -512 m 1
 256 512 l 1
 768 512 l 1
 512 -512 l 1
 0 -512 l 1
EndSplineSet
Validated: 1
EndChar

StartChar: u1D454
Encoding: 119892 119892 244
Width: 768
GlyphClass: 2
Flags: MW
LayerCount: 2
Fore
SplineSet
0 -512 m 1
 256 512 l 1
 768 512 l 1
 512 -512 l 1
 0 -512 l 1
EndSplineSet
Validated: 1
EndChar

StartChar: u1D456
Encoding: 119894 119894 245
Width: 768
GlyphClass: 2
Flags: MW
LayerCount: 2
Fore
SplineSet
0 -512 m 1
 256 512 l 1
 768 512 l 1
 512 -512 l 1
 0 -512 l 1
EndSplineSet
Validated: 1
EndChar

StartChar: u1D457
Encoding: 119895 119895 246
Width: 768
GlyphClass: 2
Flags: MW
LayerCount: 2
Fore
SplineSet
0 -512 m 1
 256 512 l 1
 768 512 l 1
 512 -512 l 1
 0 -512 l 1
EndSplineSet
Validated: 1
EndChar

StartChar: u1D458
Encoding: 119896 119896 247
Width: 768
GlyphClass: 2
Flags: MW
LayerCount: 2
Fore
SplineSet
0 -512 m 1
 256 512 l 1
 768 512 l 1
 512 -512 l 1
 0 -512 l 1
EndSplineSet
Validated: 1
EndChar

StartChar: u1D459
Encoding: 119897 119897 248
Width: 768
GlyphClass: 2
Flags: MW
LayerCount: 2
Fore
SplineSet
0 -512 m 1
 256 512 l 1
 768 512 l 1
 512 -512 l 1
 0 -512 l 1
EndSplineSet
Validated: 1
EndChar

StartChar: u1D45A
Encoding: 119898 119898 249
Width: 768
GlyphClass: 2
Flags: MW
LayerCount: 2
Fore
SplineSet
0 -512 m 1
 256 512 l 1
 768 512 l 1
 512 -512 l 1
 0 -512 l 1
EndSplineSet
Validated: 1
EndChar

StartChar: u1D45B
Encoding: 119899 119899 250
Width: 768
GlyphClass: 2
Flags: MW
LayerCount: 2
Fore
SplineSet
0 -512 m 1
 256 512 l 1
 768 512 l 1
 512 -512 l 1
 0 -512 l 1
EndSplineSet
Validated: 1
EndChar

StartChar: u1D45C
Encoding: 119900 119900 251
Width: 768
GlyphClass: 2
Flags: MW
LayerCount: 2
Fore
SplineSet
0 -512 m 1
 256 512 l 1
 768 512 l 1
 512 -512 l 1
 0 -512 l 1
EndSplineSet
Validated: 1
EndChar

StartChar: u1D45D
Encoding: 119901 119901 252
Width: 768
GlyphClass: 2
Flags: MW
LayerCount: 2
Fore
SplineSet
0 -512 m 1
 256 512 l 1
 768 512 l 1
 512 -512 l 1
 0 -512 l 1
EndSplineSet
Validated: 1
EndChar

StartChar: u1D45E
Encoding: 119902 119902 253
Width: 768
GlyphClass: 2
Flags: MW
LayerCount: 2
Fore
SplineSet
0 -512 m 1
 256 512 l 1
 768 512 l 1
 512 -512 l 1
 0 -512 l 1
EndSplineSet
Validated: 1
EndChar

StartChar: u1D45F
Encoding: 119903 119903 254
Width: 768
GlyphClass: 2
Flags: MW
LayerCount: 2
Fore
SplineSet
0 -512 m 1
 256 512 l 1
 768 512 l 1
 512 -512 l 1
 0 -512 l 1
EndSplineSet
Validated: 1
EndChar

StartChar: u1D460
Encoding: 119904 119904 255
Width: 768
GlyphClass: 2
Flags: MW
LayerCount: 2
Fore
SplineSet
0 -512 m 1
 256 512 l 1
 768 512 l 1
 512 -512 l 1
 0 -512 l 1
EndSplineSet
Validated: 1
EndChar

StartChar: u1D461
Encoding: 119905 119905 256
Width: 768
GlyphClass: 2
Flags: MW
LayerCount: 2
Fore
SplineSet
0 -512 m 1
 256 512 l 1
 768 512 l 1
 512 -512 l 1
 0 -512 l 1
EndSplineSet
Validated: 1
EndChar

StartChar: u1D462
Encoding: 119906 119906 257
Width: 768
GlyphClass: 2
Flags: MW
LayerCount: 2
Fore
SplineSet
0 -512 m 1
 256 512 l 1
 768 512 l 1
 512 -512 l 1
 0 -512 l 1
EndSplineSet
Validated: 1
EndChar

StartChar: u1D463
Encoding: 119907 119907 258
Width: 768
GlyphClass: 2
Flags: MW
LayerCount: 2
Fore
SplineSet
0 -512 m 1
 256 512 l 1
 768 512 l 1
 512 -512 l 1
 0 -512 l 1
EndSplineSet
Validated: 1
EndChar

StartChar: u1D464
Encoding: 119908 119908 259
Width: 768
GlyphClass: 2
Flags: MW
LayerCount: 2
Fore
SplineSet
0 -512 m 1
 256 512 l 1
 768 512 l 1
 512 -512 l 1
 0 -512 l 1
EndSplineSet
Validated: 1
EndChar

StartChar: u1D465
Encoding: 119909 119909 260
Width: 768
GlyphClass: 2
Flags: MW
LayerCount: 2
Fore
SplineSet
0 -512 m 1
 256 512 l 1
 768 512 l 1
 512 -512 l 1
 0 -512 l 1
EndSplineSet
Validated: 1
EndChar

StartChar: u1D466
Encoding: 119910 119910 261
Width: 768
GlyphClass: 2
Flags: MW
LayerCount: 2
Fore
SplineSet
0 -512 m 1
 256 512 l 1
 768 512 l 1
 512 -512 l 1
 0 -512 l 1
EndSplineSet
Validated: 1
EndChar

StartChar: u1D467
Encoding: 119911 119911 262
Width: 768
GlyphClass: 2
Flags: MW
LayerCount: 2
Fore
SplineSet
0 -512 m 1
 256 512 l 1
 768 512 l 1
 512 -512 l 1
 0 -512 l 1
EndSplineSet
Validated: 1
EndChar

StartChar: u1D468
Encoding: 119912 119912 263
Width: 256
GlyphClass: 2
Flags: MW
LayerCount: 2
Fore
SplineSet
64 512 m 1
 256 512 l 1
 192 -512 l 1
 0 -512 l 1
 64 512 l 1
EndSplineSet
Validated: 1
EndChar

StartChar: u1D469
Encoding: 119913 119913 264
Width: 256
GlyphClass: 2
Flags: MW
LayerCount: 2
Fore
SplineSet
64 512 m 1
 256 512 l 1
 192 -512 l 1
 0 -512 l 1
 64 512 l 1
EndSplineSet
Validated: 1
EndChar

StartChar: u1D46A
Encoding: 119914 119914 265
Width: 256
GlyphClass: 2
Flags: MW
LayerCount: 2
Fore
SplineSet
64 512 m 1
 256 512 l 1
 192 -512 l 1
 0 -512 l 1
 64 512 l 1
EndSplineSet
Validated: 1
EndChar

StartChar: u1D46B
Encoding: 119915 119915 266
Width: 256
GlyphClass: 2
Flags: MW
LayerCount: 2
Fore
SplineSet
64 512 m 1
 256 512 l 1
 192 -512 l 1
 0 -512 l 1
 64 512 l 1
EndSplineSet
Validated: 1
EndChar

StartChar: u1D46C
Encoding: 119916 119916 267
Width: 256
GlyphClass: 2
Flags: MW
LayerCount: 2
Fore
SplineSet
64 512 m 1
 256 512 l 1
 192 -512 l 1
 0 -512 l 1
 64 512 l 1
EndSplineSet
Validated: 1
EndChar

StartChar: u1D46D
Encoding: 119917 119917 268
Width: 256
GlyphClass: 2
Flags: MW
LayerCount: 2
Fore
SplineSet
64 512 m 1
 256 512 l 1
 192 -512 l 1
 0 -512 l 1
 64 512 l 1
EndSplineSet
Validated: 1
EndChar

StartChar: u1D46E
Encoding: 119918 119918 269
Width: 256
GlyphClass: 2
Flags: MW
LayerCount: 2
Fore
SplineSet
64 512 m 1
 256 512 l 1
 192 -512 l 1
 0 -512 l 1
 64 512 l 1
EndSplineSet
Validated: 1
EndChar

StartChar: u1D46F
Encoding: 119919 119919 270
Width: 256
GlyphClass: 2
Flags: MW
LayerCount: 2
Fore
SplineSet
64 512 m 1
 256 512 l 1
 192 -512 l 1
 0 -512 l 1
 64 512 l 1
EndSplineSet
Validated: 1
EndChar

StartChar: u1D470
Encoding: 119920 119920 271
Width: 256
GlyphClass: 2
Flags: MW
LayerCount: 2
Fore
SplineSet
64 512 m 1
 256 512 l 1
 192 -512 l 1
 0 -512 l 1
 64 512 l 1
EndSplineSet
Validated: 1
EndChar

StartChar: u1D471
Encoding: 119921 119921 272
Width: 256
GlyphClass: 2
Flags: MW
LayerCount: 2
Fore
SplineSet
64 512 m 1
 256 512 l 1
 192 -512 l 1
 0 -512 l 1
 64 512 l 1
EndSplineSet
Validated: 1
EndChar

StartChar: u1D472
Encoding: 119922 119922 273
Width: 256
GlyphClass: 2
Flags: MW
LayerCount: 2
Fore
SplineSet
64 512 m 1
 256 512 l 1
 192 -512 l 1
 0 -512 l 1
 64 512 l 1
EndSplineSet
Validated: 1
EndChar

StartChar: u1D473
Encoding: 119923 119923 274
Width: 256
GlyphClass: 2
Flags: MW
LayerCount: 2
Fore
SplineSet
64 512 m 1
 256 512 l 1
 192 -512 l 1
 0 -512 l 1
 64 512 l 1
EndSplineSet
Validated: 1
EndChar

StartChar: u1D474
Encoding: 119924 119924 275
Width: 256
GlyphClass: 2
Flags: MW
LayerCount: 2
Fore
SplineSet
64 512 m 1
 256 512 l 1
 192 -512 l 1
 0 -512 l 1
 64 512 l 1
EndSplineSet
Validated: 1
EndChar

StartChar: u1D475
Encoding: 119925 119925 276
Width: 256
GlyphClass: 2
Flags: MW
LayerCount: 2
Fore
SplineSet
64 512 m 1
 256 512 l 1
 192 -512 l 1
 0 -512 l 1
 64 512 l 1
EndSplineSet
Validated: 1
EndChar

StartChar: u1D476
Encoding: 119926 119926 277
Width: 256
GlyphClass: 2
Flags: MW
LayerCount: 2
Fore
SplineSet
64 512 m 1
 256 512 l 1
 192 -512 l 1
 0 -512 l 1
 64 512 l 1
EndSplineSet
Validated: 1
EndChar

StartChar: u1D477
Encoding: 119927 119927 278
Width: 256
GlyphClass: 2
Flags: MW
LayerCount: 2
Fore
SplineSet
64 512 m 1
 256 512 l 1
 192 -512 l 1
 0 -512 l 1
 64 512 l 1
EndSplineSet
Validated: 1
EndChar

StartChar: u1D478
Encoding: 119928 119928 279
Width: 256
GlyphClass: 2
Flags: MW
LayerCount: 2
Fore
SplineSet
64 512 m 1
 256 512 l 1
 192 -512 l 1
 0 -512 l 1
 64 512 l 1
EndSplineSet
Validated: 1
EndChar

StartChar: u1D479
Encoding: 119929 119929 280
Width: 256
GlyphClass: 2
Flags: MW
LayerCount: 2
Fore
SplineSet
64 512 m 1
 256 512 l 1
 192 -512 l 1
 0 -512 l 1
 64 512 l 1
EndSplineSet
Validated: 1
EndChar

StartChar: u1D47A
Encoding: 119930 119930 281
Width: 256
GlyphClass: 2
Flags: MW
LayerCount: 2
Fore
SplineSet
64 512 m 1
 256 512 l 1
 192 -512 l 1
 0 -512 l 1
 64 512 l 1
EndSplineSet
Validated: 1
EndChar

StartChar: u1D47B
Encoding: 119931 119931 282
Width: 256
GlyphClass: 2
Flags: MW
LayerCount: 2
Fore
SplineSet
64 512 m 1
 256 512 l 1
 192 -512 l 1
 0 -512 l 1
 64 512 l 1
EndSplineSet
Validated: 1
EndChar

StartChar: u1D47C
Encoding: 119932 119932 283
Width: 256
GlyphClass: 2
Flags: MW
LayerCount: 2
Fore
SplineSet
64 512 m 1
 256 512 l 1
 192 -512 l 1
 0 -512 l 1
 64 512 l 1
EndSplineSet
Validated: 1
EndChar

StartChar: u1D47D
Encoding: 119933 119933 284
Width: 256
GlyphClass: 2
Flags: MW
LayerCount: 2
Fore
SplineSet
64 512 m 1
 256 512 l 1
 192 -512 l 1
 0 -512 l 1
 64 512 l 1
EndSplineSet
Validated: 1
EndChar

StartChar: u1D47E
Encoding: 119934 119934 285
Width: 256
GlyphClass: 2
Flags: MW
LayerCount: 2
Fore
SplineSet
64 512 m 1
 256 512 l 1
 192 -512 l 1
 0 -512 l 1
 64 512 l 1
EndSplineSet
Validated: 1
EndChar

StartChar: u1D47F
Encoding: 119935 119935 286
Width: 256
GlyphClass: 2
Flags: MW
LayerCount: 2
Fore
SplineSet
64 512 m 1
 256 512 l 1
 192 -512 l 1
 0 -512 l 1
 64 512 l 1
EndSplineSet
Validated: 1
EndChar

StartChar: u1D480
Encoding: 119936 119936 287
Width: 256
GlyphClass: 2
Flags: MW
LayerCount: 2
Fore
SplineSet
64 512 m 1
 256 512 l 1
 192 -512 l 1
 0 -512 l 1
 64 512 l 1
EndSplineSet
Validated: 1
EndChar

StartChar: u1D481
Encoding: 119937 119937 288
Width: 256
GlyphClass: 2
Flags: MW
LayerCount: 2
Fore
SplineSet
64 512 m 1
 256 512 l 1
 192 -512 l 1
 0 -512 l 1
 64 512 l 1
EndSplineSet
Validated: 1
EndChar

StartChar: u1D482
Encoding: 119938 119938 289
Width: 256
GlyphClass: 2
Flags: MW
LayerCount: 2
Fore
SplineSet
64 512 m 1
 256 512 l 1
 192 -512 l 1
 0 -512 l 1
 64 512 l 1
EndSplineSet
Validated: 1
EndChar

StartChar: u1D483
Encoding: 119939 119939 290
Width: 256
GlyphClass: 2
Flags: MW
LayerCount: 2
Fore
SplineSet
64 512 m 1
 256 512 l 1
 192 -512 l 1
 0 -512 l 1
 64 512 l 1
EndSplineSet
Validated: 1
EndChar

StartChar: u1D484
Encoding: 119940 119940 291
Width: 256
GlyphClass: 2
Flags: MW
LayerCount: 2
Fore
SplineSet
64 512 m 1
 256 512 l 1
 192 -512 l 1
 0 -512 l 1
 64 512 l 1
EndSplineSet
Validated: 1
EndChar

StartChar: u1D485
Encoding: 119941 119941 292
Width: 256
GlyphClass: 2
Flags: MW
LayerCount: 2
Fore
SplineSet
64 512 m 1
 256 512 l 1
 192 -512 l 1
 0 -512 l 1
 64 512 l 1
EndSplineSet
Validated: 1
EndChar

StartChar: u1D486
Encoding: 119942 119942 293
Width: 256
GlyphClass: 2
Flags: MW
LayerCount: 2
Fore
SplineSet
64 512 m 1
 256 512 l 1
 192 -512 l 1
 0 -512 l 1
 64 512 l 1
EndSplineSet
Validated: 1
EndChar

StartChar: u1D487
Encoding: 119943 119943 294
Width: 256
GlyphClass: 2
Flags: MW
LayerCount: 2
Fore
SplineSet
64 512 m 1
 256 512 l 1
 192 -512 l 1
 0 -512 l 1
 64 512 l 1
EndSplineSet
Validated: 1
EndChar

StartChar: u1D488
Encoding: 119944 119944 295
Width: 256
GlyphClass: 2
Flags: MW
LayerCount: 2
Fore
SplineSet
64 512 m 1
 256 512 l 1
 192 -512 l 1
 0 -512 l 1
 64 512 l 1
EndSplineSet
Validated: 1
EndChar

StartChar: u1D489
Encoding: 119945 119945 296
Width: 256
GlyphClass: 2
Flags: MW
LayerCount: 2
Fore
SplineSet
64 512 m 1
 256 512 l 1
 192 -512 l 1
 0 -512 l 1
 64 512 l 1
EndSplineSet
Validated: 1
EndChar

StartChar: u1D48A
Encoding: 119946 119946 297
Width: 256
GlyphClass: 2
Flags: MW
LayerCount: 2
Fore
SplineSet
64 512 m 1
 256 512 l 1
 192 -512 l 1
 0 -512 l 1
 64 512 l 1
EndSplineSet
Validated: 1
EndChar

StartChar: u1D48B
Encoding: 119947 119947 298
Width: 256
GlyphClass: 2
Flags: MW
LayerCount: 2
Fore
SplineSet
64 512 m 1
 256 512 l 1
 192 -512 l 1
 0 -512 l 1
 64 512 l 1
EndSplineSet
Validated: 1
EndChar

StartChar: u1D48C
Encoding: 119948 119948 299
Width: 256
GlyphClass: 2
Flags: MW
LayerCount: 2
Fore
SplineSet
64 512 m 1
 256 512 l 1
 192 -512 l 1
 0 -512 l 1
 64 512 l 1
EndSplineSet
Validated: 1
EndChar

StartChar: u1D48D
Encoding: 119949 119949 300
Width: 256
GlyphClass: 2
Flags: MW
LayerCount: 2
Fore
SplineSet
64 512 m 1
 256 512 l 1
 192 -512 l 1
 0 -512 l 1
 64 512 l 1
EndSplineSet
Validated: 1
EndChar

StartChar: u1D48E
Encoding: 119950 119950 301
Width: 256
GlyphClass: 2
Flags: MW
LayerCount: 2
Fore
SplineSet
64 512 m 1
 256 512 l 1
 192 -512 l 1
 0 -512 l 1
 64 512 l 1
EndSplineSet
Validated: 1
EndChar

StartChar: u1D48F
Encoding: 119951 119951 302
Width: 256
GlyphClass: 2
Flags: MW
LayerCount: 2
Fore
SplineSet
64 512 m 1
 256 512 l 1
 192 -512 l 1
 0 -512 l 1
 64 512 l 1
EndSplineSet
Validated: 1
EndChar

StartChar: u1D490
Encoding: 119952 119952 303
Width: 256
GlyphClass: 2
Flags: MW
LayerCount: 2
Fore
SplineSet
64 512 m 1
 256 512 l 1
 192 -512 l 1
 0 -512 l 1
 64 512 l 1
EndSplineSet
Validated: 1
EndChar

StartChar: u1D491
Encoding: 119953 119953 304
Width: 256
GlyphClass: 2
Flags: MW
LayerCount: 2
Fore
SplineSet
64 512 m 1
 256 512 l 1
 192 -512 l 1
 0 -512 l 1
 64 512 l 1
EndSplineSet
Validated: 1
EndChar

StartChar: u1D492
Encoding: 119954 119954 305
Width: 256
GlyphClass: 2
Flags: MW
LayerCount: 2
Fore
SplineSet
64 512 m 1
 256 512 l 1
 192 -512 l 1
 0 -512 l 1
 64 512 l 1
EndSplineSet
Validated: 1
EndChar

StartChar: u1D493
Encoding: 119955 119955 306
Width: 256
GlyphClass: 2
Flags: MW
LayerCount: 2
Fore
SplineSet
64 512 m 1
 256 512 l 1
 192 -512 l 1
 0 -512 l 1
 64 512 l 1
EndSplineSet
Validated: 1
EndChar

StartChar: u1D494
Encoding: 119956 119956 307
Width: 256
GlyphClass: 2
Flags: MW
LayerCount: 2
Fore
SplineSet
64 512 m 1
 256 512 l 1
 192 -512 l 1
 0 -512 l 1
 64 512 l 1
EndSplineSet
Validated: 1
EndChar

StartChar: u1D495
Encoding: 119957 119957 308
Width: 256
GlyphClass: 2
Flags: MW
LayerCount: 2
Fore
SplineSet
64 512 m 1
 256 512 l 1
 192 -512 l 1
 0 -512 l 1
 64 512 l 1
EndSplineSet
Validated: 1
EndChar

StartChar: u1D496
Encoding: 119958 119958 309
Width: 256
GlyphClass: 2
Flags: MW
LayerCount: 2
Fore
SplineSet
64 512 m 1
 256 512 l 1
 192 -512 l 1
 0 -512 l 1
 64 512 l 1
EndSplineSet
Validated: 1
EndChar

StartChar: u1D497
Encoding: 119959 119959 310
Width: 256
GlyphClass: 2
Flags: MW
LayerCount: 2
Fore
SplineSet
64 512 m 1
 256 512 l 1
 192 -512 l 1
 0 -512 l 1
 64 512 l 1
EndSplineSet
Validated: 1
EndChar

StartChar: u1D498
Encoding: 119960 119960 311
Width: 256
GlyphClass: 2
Flags: MW
LayerCount: 2
Fore
SplineSet
64 512 m 1
 256 512 l 1
 192 -512 l 1
 0 -512 l 1
 64 512 l 1
EndSplineSet
Validated: 1
EndChar

StartChar: u1D499
Encoding: 119961 119961 312
Width: 256
GlyphClass: 2
Flags: MW
LayerCount: 2
Fore
SplineSet
64 512 m 1
 256 512 l 1
 192 -512 l 1
 0 -512 l 1
 64 512 l 1
EndSplineSet
Validated: 1
EndChar

StartChar: u1D49A
Encoding: 119962 119962 313
Width: 256
GlyphClass: 2
Flags: MW
LayerCount: 2
Fore
SplineSet
64 512 m 1
 256 512 l 1
 192 -512 l 1
 0 -512 l 1
 64 512 l 1
EndSplineSet
Validated: 1
EndChar

StartChar: u1D49B
Encoding: 119963 119963 314
Width: 256
GlyphClass: 2
Flags: MW
LayerCount: 2
Fore
SplineSet
64 512 m 1
 256 512 l 1
 192 -512 l 1
 0 -512 l 1
 64 512 l 1
EndSplineSet
Validated: 1
EndChar

StartChar: u1D49C
Encoding: 119964 119964 315
Width: 1088
GlyphClass: 2
Flags: MW
LayerCount: 2
Fore
SplineSet
0 0 m 0
 0 64 384 128 512 128 c 0
 640 128 1024 64 1024 0 c 0
 1024 -64 640 -128 512 -128 c 0
 384 -128 0 -64 0 0 c 0
EndSplineSet
Validated: 1
EndChar

StartChar: u1D49E
Encoding: 119966 119966 316
Width: 1088
GlyphClass: 2
Flags: MW
LayerCount: 2
Fore
SplineSet
0 0 m 0
 0 64 384 128 512 128 c 0
 640 128 1024 64 1024 0 c 0
 1024 -64 640 -128 512 -128 c 0
 384 -128 0 -64 0 0 c 0
EndSplineSet
Validated: 1
EndChar

StartChar: u1D49F
Encoding: 119967 119967 317
Width: 1088
GlyphClass: 2
Flags: MW
LayerCount: 2
Fore
SplineSet
0 0 m 0
 0 64 384 128 512 128 c 0
 640 128 1024 64 1024 0 c 0
 1024 -64 640 -128 512 -128 c 0
 384 -128 0 -64 0 0 c 0
EndSplineSet
Validated: 1
EndChar

StartChar: u1D4A2
Encoding: 119970 119970 318
Width: 1088
GlyphClass: 2
Flags: MW
LayerCount: 2
Fore
SplineSet
0 0 m 0
 0 64 384 128 512 128 c 0
 640 128 1024 64 1024 0 c 0
 1024 -64 640 -128 512 -128 c 0
 384 -128 0 -64 0 0 c 0
EndSplineSet
Validated: 1
EndChar

StartChar: u1D4A5
Encoding: 119973 119973 319
Width: 1088
GlyphClass: 2
Flags: MW
LayerCount: 2
Fore
SplineSet
0 0 m 0
 0 64 384 128 512 128 c 0
 640 128 1024 64 1024 0 c 0
 1024 -64 640 -128 512 -128 c 0
 384 -128 0 -64 0 0 c 0
EndSplineSet
Validated: 1
EndChar

StartChar: u1D4A6
Encoding: 119974 119974 320
Width: 1088
GlyphClass: 2
Flags: MW
LayerCount: 2
Fore
SplineSet
0 0 m 0
 0 64 384 128 512 128 c 0
 640 128 1024 64 1024 0 c 0
 1024 -64 640 -128 512 -128 c 0
 384 -128 0 -64 0 0 c 0
EndSplineSet
Validated: 1
EndChar

StartChar: u1D4A9
Encoding: 119977 119977 321
Width: 1088
GlyphClass: 2
Flags: MW
LayerCount: 2
Fore
SplineSet
0 0 m 0
 0 64 384 128 512 128 c 0
 640 128 1024 64 1024 0 c 0
 1024 -64 640 -128 512 -128 c 0
 384 -128 0 -64 0 0 c 0
EndSplineSet
Validated: 1
EndChar

StartChar: u1D4AA
Encoding: 119978 119978 322
Width: 1088
GlyphClass: 2
Flags: MW
LayerCount: 2
Fore
SplineSet
0 0 m 0
 0 64 384 128 512 128 c 0
 640 128 1024 64 1024 0 c 0
 1024 -64 640 -128 512 -128 c 0
 384 -128 0 -64 0 0 c 0
EndSplineSet
Validated: 1
EndChar

StartChar: u1D4AB
Encoding: 119979 119979 323
Width: 1088
GlyphClass: 2
Flags: MW
LayerCount: 2
Fore
SplineSet
0 0 m 0
 0 64 384 128 512 128 c 0
 640 128 1024 64 1024 0 c 0
 1024 -64 640 -128 512 -128 c 0
 384 -128 0 -64 0 0 c 0
EndSplineSet
Validated: 1
EndChar

StartChar: u1D4AC
Encoding: 119980 119980 324
Width: 1088
GlyphClass: 2
Flags: MW
LayerCount: 2
Fore
SplineSet
0 0 m 0
 0 64 384 128 512 128 c 0
 640 128 1024 64 1024 0 c 0
 1024 -64 640 -128 512 -128 c 0
 384 -128 0 -64 0 0 c 0
EndSplineSet
Validated: 1
EndChar

StartChar: u1D4AE
Encoding: 119982 119982 325
Width: 1088
GlyphClass: 2
Flags: MW
LayerCount: 2
Fore
SplineSet
0 0 m 0
 0 64 384 128 512 128 c 0
 640 128 1024 64 1024 0 c 0
 1024 -64 640 -128 512 -128 c 0
 384 -128 0 -64 0 0 c 0
EndSplineSet
Validated: 1
EndChar

StartChar: u1D4AF
Encoding: 119983 119983 326
Width: 1088
GlyphClass: 2
Flags: MW
LayerCount: 2
Fore
SplineSet
0 0 m 0
 0 64 384 128 512 128 c 0
 640 128 1024 64 1024 0 c 0
 1024 -64 640 -128 512 -128 c 0
 384 -128 0 -64 0 0 c 0
EndSplineSet
Validated: 1
EndChar

StartChar: u1D4B0
Encoding: 119984 119984 327
Width: 1088
GlyphClass: 2
Flags: MW
LayerCount: 2
Fore
SplineSet
0 0 m 0
 0 64 384 128 512 128 c 0
 640 128 1024 64 1024 0 c 0
 1024 -64 640 -128 512 -128 c 0
 384 -128 0 -64 0 0 c 0
EndSplineSet
Validated: 1
EndChar

StartChar: u1D4B1
Encoding: 119985 119985 328
Width: 1088
GlyphClass: 2
Flags: MW
LayerCount: 2
Fore
SplineSet
0 0 m 0
 0 64 384 128 512 128 c 0
 640 128 1024 64 1024 0 c 0
 1024 -64 640 -128 512 -128 c 0
 384 -128 0 -64 0 0 c 0
EndSplineSet
Validated: 1
EndChar

StartChar: u1D4B2
Encoding: 119986 119986 329
Width: 1088
GlyphClass: 2
Flags: MW
LayerCount: 2
Fore
SplineSet
0 0 m 0
 0 64 384 128 512 128 c 0
 640 128 1024 64 1024 0 c 0
 1024 -64 640 -128 512 -128 c 0
 384 -128 0 -64 0 0 c 0
EndSplineSet
Validated: 1
EndChar

StartChar: u1D4B3
Encoding: 119987 119987 330
Width: 1088
GlyphClass: 2
Flags: MW
LayerCount: 2
Fore
SplineSet
0 0 m 0
 0 64 384 128 512 128 c 0
 640 128 1024 64 1024 0 c 0
 1024 -64 640 -128 512 -128 c 0
 384 -128 0 -64 0 0 c 0
EndSplineSet
Validated: 1
EndChar

StartChar: u1D4B4
Encoding: 119988 119988 331
Width: 1088
GlyphClass: 2
Flags: MW
LayerCount: 2
Fore
SplineSet
0 0 m 0
 0 64 384 128 512 128 c 0
 640 128 1024 64 1024 0 c 0
 1024 -64 640 -128 512 -128 c 0
 384 -128 0 -64 0 0 c 0
EndSplineSet
Validated: 1
EndChar

StartChar: u1D4B5
Encoding: 119989 119989 332
Width: 1088
GlyphClass: 2
Flags: MW
LayerCount: 2
Fore
SplineSet
0 0 m 0
 0 64 384 128 512 128 c 0
 640 128 1024 64 1024 0 c 0
 1024 -64 640 -128 512 -128 c 0
 384 -128 0 -64 0 0 c 0
EndSplineSet
Validated: 1
EndChar

StartChar: u1D4B6
Encoding: 119990 119990 333
Width: 1088
GlyphClass: 2
Flags: MW
LayerCount: 2
Fore
SplineSet
0 0 m 0
 0 64 384 128 512 128 c 0
 640 128 1024 64 1024 0 c 0
 1024 -64 640 -128 512 -128 c 0
 384 -128 0 -64 0 0 c 0
EndSplineSet
Validated: 1
EndChar

StartChar: u1D4B7
Encoding: 119991 119991 334
Width: 1088
GlyphClass: 2
Flags: MW
LayerCount: 2
Fore
SplineSet
0 0 m 0
 0 64 384 128 512 128 c 0
 640 128 1024 64 1024 0 c 0
 1024 -64 640 -128 512 -128 c 0
 384 -128 0 -64 0 0 c 0
EndSplineSet
Validated: 1
EndChar

StartChar: u1D4B8
Encoding: 119992 119992 335
Width: 1088
GlyphClass: 2
Flags: MW
LayerCount: 2
Fore
SplineSet
0 0 m 0
 0 64 384 128 512 128 c 0
 640 128 1024 64 1024 0 c 0
 1024 -64 640 -128 512 -128 c 0
 384 -128 0 -64 0 0 c 0
EndSplineSet
Validated: 1
EndChar

StartChar: u1D4B9
Encoding: 119993 119993 336
Width: 1088
GlyphClass: 2
Flags: MW
LayerCount: 2
Fore
SplineSet
0 0 m 0
 0 64 384 128 512 128 c 0
 640 128 1024 64 1024 0 c 0
 1024 -64 640 -128 512 -128 c 0
 384 -128 0 -64 0 0 c 0
EndSplineSet
Validated: 1
EndChar

StartChar: u1D4BB
Encoding: 119995 119995 337
Width: 1088
GlyphClass: 2
Flags: MW
LayerCount: 2
Fore
SplineSet
0 0 m 0
 0 64 384 128 512 128 c 0
 640 128 1024 64 1024 0 c 0
 1024 -64 640 -128 512 -128 c 0
 384 -128 0 -64 0 0 c 0
EndSplineSet
Validated: 1
EndChar

StartChar: u1D4BD
Encoding: 119997 119997 338
Width: 1088
GlyphClass: 2
Flags: MW
LayerCount: 2
Fore
SplineSet
0 0 m 0
 0 64 384 128 512 128 c 0
 640 128 1024 64 1024 0 c 0
 1024 -64 640 -128 512 -128 c 0
 384 -128 0 -64 0 0 c 0
EndSplineSet
Validated: 1
EndChar

StartChar: u1D4BE
Encoding: 119998 119998 339
Width: 1088
GlyphClass: 2
Flags: MW
LayerCount: 2
Fore
SplineSet
0 0 m 0
 0 64 384 128 512 128 c 0
 640 128 1024 64 1024 0 c 0
 1024 -64 640 -128 512 -128 c 0
 384 -128 0 -64 0 0 c 0
EndSplineSet
Validated: 1
EndChar

StartChar: u1D4BF
Encoding: 119999 119999 340
Width: 1088
GlyphClass: 2
Flags: MW
LayerCount: 2
Fore
SplineSet
0 0 m 0
 0 64 384 128 512 128 c 0
 640 128 1024 64 1024 0 c 0
 1024 -64 640 -128 512 -128 c 0
 384 -128 0 -64 0 0 c 0
EndSplineSet
Validated: 1
EndChar

StartChar: u1D4C0
Encoding: 120000 120000 341
Width: 1088
GlyphClass: 2
Flags: MW
LayerCount: 2
Fore
SplineSet
0 0 m 0
 0 64 384 128 512 128 c 0
 640 128 1024 64 1024 0 c 0
 1024 -64 640 -128 512 -128 c 0
 384 -128 0 -64 0 0 c 0
EndSplineSet
Validated: 1
EndChar

StartChar: u1D4C1
Encoding: 120001 120001 342
Width: 1088
GlyphClass: 2
Flags: MW
LayerCount: 2
Fore
SplineSet
0 0 m 0
 0 64 384 128 512 128 c 0
 640 128 1024 64 1024 0 c 0
 1024 -64 640 -128 512 -128 c 0
 384 -128 0 -64 0 0 c 0
EndSplineSet
Validated: 1
EndChar

StartChar: u1D4C2
Encoding: 120002 120002 343
Width: 1088
GlyphClass: 2
Flags: MW
LayerCount: 2
Fore
SplineSet
0 0 m 0
 0 64 384 128 512 128 c 0
 640 128 1024 64 1024 0 c 0
 1024 -64 640 -128 512 -128 c 0
 384 -128 0 -64 0 0 c 0
EndSplineSet
Validated: 1
EndChar

StartChar: u1D4C3
Encoding: 120003 120003 344
Width: 1088
GlyphClass: 2
Flags: MW
LayerCount: 2
Fore
SplineSet
0 0 m 0
 0 64 384 128 512 128 c 0
 640 128 1024 64 1024 0 c 0
 1024 -64 640 -128 512 -128 c 0
 384 -128 0 -64 0 0 c 0
EndSplineSet
Validated: 1
EndChar

StartChar: u1D4C5
Encoding: 120005 120005 345
Width: 1088
GlyphClass: 2
Flags: MW
LayerCount: 2
Fore
SplineSet
0 0 m 0
 0 64 384 128 512 128 c 0
 640 128 1024 64 1024 0 c 0
 1024 -64 640 -128 512 -128 c 0
 384 -128 0 -64 0 0 c 0
EndSplineSet
Validated: 1
EndChar

StartChar: u1D4C6
Encoding: 120006 120006 346
Width: 1088
GlyphClass: 2
Flags: MW
LayerCount: 2
Fore
SplineSet
0 0 m 0
 0 64 384 128 512 128 c 0
 640 128 1024 64 1024 0 c 0
 1024 -64 640 -128 512 -128 c 0
 384 -128 0 -64 0 0 c 0
EndSplineSet
Validated: 1
EndChar

StartChar: u1D4C7
Encoding: 120007 120007 347
Width: 1088
GlyphClass: 2
Flags: MW
LayerCount: 2
Fore
SplineSet
0 0 m 0
 0 64 384 128 512 128 c 0
 640 128 1024 64 1024 0 c 0
 1024 -64 640 -128 512 -128 c 0
 384 -128 0 -64 0 0 c 0
EndSplineSet
Validated: 1
EndChar

StartChar: u1D4C8
Encoding: 120008 120008 348
Width: 1088
GlyphClass: 2
Flags: MW
LayerCount: 2
Fore
SplineSet
0 0 m 0
 0 64 384 128 512 128 c 0
 640 128 1024 64 1024 0 c 0
 1024 -64 640 -128 512 -128 c 0
 384 -128 0 -64 0 0 c 0
EndSplineSet
Validated: 1
EndChar

StartChar: u1D4C9
Encoding: 120009 120009 349
Width: 1088
GlyphClass: 2
Flags: MW
LayerCount: 2
Fore
SplineSet
0 0 m 0
 0 64 384 128 512 128 c 0
 640 128 1024 64 1024 0 c 0
 1024 -64 640 -128 512 -128 c 0
 384 -128 0 -64 0 0 c 0
EndSplineSet
Validated: 1
EndChar

StartChar: u1D4CA
Encoding: 120010 120010 350
Width: 1088
GlyphClass: 2
Flags: MW
LayerCount: 2
Fore
SplineSet
0 0 m 0
 0 64 384 128 512 128 c 0
 640 128 1024 64 1024 0 c 0
 1024 -64 640 -128 512 -128 c 0
 384 -128 0 -64 0 0 c 0
EndSplineSet
Validated: 1
EndChar

StartChar: u1D4CB
Encoding: 120011 120011 351
Width: 1088
GlyphClass: 2
Flags: MW
LayerCount: 2
Fore
SplineSet
0 0 m 0
 0 64 384 128 512 128 c 0
 640 128 1024 64 1024 0 c 0
 1024 -64 640 -128 512 -128 c 0
 384 -128 0 -64 0 0 c 0
EndSplineSet
Validated: 1
EndChar

StartChar: u1D4CC
Encoding: 120012 120012 352
Width: 1088
GlyphClass: 2
Flags: MW
LayerCount: 2
Fore
SplineSet
0 0 m 0
 0 64 384 128 512 128 c 0
 640 128 1024 64 1024 0 c 0
 1024 -64 640 -128 512 -128 c 0
 384 -128 0 -64 0 0 c 0
EndSplineSet
Validated: 1
EndChar

StartChar: u1D4CD
Encoding: 120013 120013 353
Width: 1088
GlyphClass: 2
Flags: MW
LayerCount: 2
Fore
SplineSet
0 0 m 0
 0 64 384 128 512 128 c 0
 640 128 1024 64 1024 0 c 0
 1024 -64 640 -128 512 -128 c 0
 384 -128 0 -64 0 0 c 0
EndSplineSet
Validated: 1
EndChar

StartChar: u1D4CE
Encoding: 120014 120014 354
Width: 1088
GlyphClass: 2
Flags: MW
LayerCount: 2
Fore
SplineSet
0 0 m 0
 0 64 384 128 512 128 c 0
 640 128 1024 64 1024 0 c 0
 1024 -64 640 -128 512 -128 c 0
 384 -128 0 -64 0 0 c 0
EndSplineSet
Validated: 1
EndChar

StartChar: u1D4CF
Encoding: 120015 120015 355
Width: 1088
GlyphClass: 2
Flags: MW
LayerCount: 2
Fore
SplineSet
0 0 m 0
 0 64 384 128 512 128 c 0
 640 128 1024 64 1024 0 c 0
 1024 -64 640 -128 512 -128 c 0
 384 -128 0 -64 0 0 c 0
EndSplineSet
Validated: 1
EndChar

StartChar: u1D4D0
Encoding: 120016 120016 356
Width: 576
GlyphClass: 2
Flags: MW
LayerCount: 2
Fore
SplineSet
0 0 m 0
 0 64 128 128 256 128 c 0
 384 128 512 64 512 0 c 0
 512 -64 384 -128 256 -128 c 0
 128 -128 0 -64 0 0 c 0
EndSplineSet
Validated: 1
EndChar

StartChar: u1D4D1
Encoding: 120017 120017 357
Width: 576
GlyphClass: 2
Flags: MW
LayerCount: 2
Fore
SplineSet
0 0 m 0
 0 64 128 128 256 128 c 0
 384 128 512 64 512 0 c 0
 512 -64 384 -128 256 -128 c 0
 128 -128 0 -64 0 0 c 0
EndSplineSet
Validated: 1
EndChar

StartChar: u1D4D2
Encoding: 120018 120018 358
Width: 576
GlyphClass: 2
Flags: MW
LayerCount: 2
Fore
SplineSet
0 0 m 0
 0 64 128 128 256 128 c 0
 384 128 512 64 512 0 c 0
 512 -64 384 -128 256 -128 c 0
 128 -128 0 -64 0 0 c 0
EndSplineSet
Validated: 1
EndChar

StartChar: u1D4D3
Encoding: 120019 120019 359
Width: 576
GlyphClass: 2
Flags: MW
LayerCount: 2
Fore
SplineSet
0 0 m 0
 0 64 128 128 256 128 c 0
 384 128 512 64 512 0 c 0
 512 -64 384 -128 256 -128 c 0
 128 -128 0 -64 0 0 c 0
EndSplineSet
Validated: 1
EndChar

StartChar: u1D4D4
Encoding: 120020 120020 360
Width: 576
GlyphClass: 2
Flags: MW
LayerCount: 2
Fore
SplineSet
0 0 m 0
 0 64 128 128 256 128 c 0
 384 128 512 64 512 0 c 0
 512 -64 384 -128 256 -128 c 0
 128 -128 0 -64 0 0 c 0
EndSplineSet
Validated: 1
EndChar

StartChar: u1D4D5
Encoding: 120021 120021 361
Width: 576
GlyphClass: 2
Flags: MW
LayerCount: 2
Fore
SplineSet
0 0 m 0
 0 64 128 128 256 128 c 0
 384 128 512 64 512 0 c 0
 512 -64 384 -128 256 -128 c 0
 128 -128 0 -64 0 0 c 0
EndSplineSet
Validated: 1
EndChar

StartChar: u1D4D6
Encoding: 120022 120022 362
Width: 576
GlyphClass: 2
Flags: MW
LayerCount: 2
Fore
SplineSet
0 0 m 0
 0 64 128 128 256 128 c 0
 384 128 512 64 512 0 c 0
 512 -64 384 -128 256 -128 c 0
 128 -128 0 -64 0 0 c 0
EndSplineSet
Validated: 1
EndChar

StartChar: u1D4D7
Encoding: 120023 120023 363
Width: 576
GlyphClass: 2
Flags: MW
LayerCount: 2
Fore
SplineSet
0 0 m 0
 0 64 128 128 256 128 c 0
 384 128 512 64 512 0 c 0
 512 -64 384 -128 256 -128 c 0
 128 -128 0 -64 0 0 c 0
EndSplineSet
Validated: 1
EndChar

StartChar: u1D4D8
Encoding: 120024 120024 364
Width: 576
GlyphClass: 2
Flags: MW
LayerCount: 2
Fore
SplineSet
0 0 m 0
 0 64 128 128 256 128 c 0
 384 128 512 64 512 0 c 0
 512 -64 384 -128 256 -128 c 0
 128 -128 0 -64 0 0 c 0
EndSplineSet
Validated: 1
EndChar

StartChar: u1D4D9
Encoding: 120025 120025 365
Width: 576
GlyphClass: 2
Flags: MW
LayerCount: 2
Fore
SplineSet
0 0 m 0
 0 64 128 128 256 128 c 0
 384 128 512 64 512 0 c 0
 512 -64 384 -128 256 -128 c 0
 128 -128 0 -64 0 0 c 0
EndSplineSet
Validated: 1
EndChar

StartChar: u1D4DA
Encoding: 120026 120026 366
Width: 576
GlyphClass: 2
Flags: MW
LayerCount: 2
Fore
SplineSet
0 0 m 0
 0 64 128 128 256 128 c 0
 384 128 512 64 512 0 c 0
 512 -64 384 -128 256 -128 c 0
 128 -128 0 -64 0 0 c 0
EndSplineSet
Validated: 1
EndChar

StartChar: u1D4DB
Encoding: 120027 120027 367
Width: 576
GlyphClass: 2
Flags: MW
LayerCount: 2
Fore
SplineSet
0 0 m 0
 0 64 128 128 256 128 c 0
 384 128 512 64 512 0 c 0
 512 -64 384 -128 256 -128 c 0
 128 -128 0 -64 0 0 c 0
EndSplineSet
Validated: 1
EndChar

StartChar: u1D4DC
Encoding: 120028 120028 368
Width: 576
GlyphClass: 2
Flags: MW
LayerCount: 2
Fore
SplineSet
0 0 m 0
 0 64 128 128 256 128 c 0
 384 128 512 64 512 0 c 0
 512 -64 384 -128 256 -128 c 0
 128 -128 0 -64 0 0 c 0
EndSplineSet
Validated: 1
EndChar

StartChar: u1D4DD
Encoding: 120029 120029 369
Width: 576
GlyphClass: 2
Flags: MW
LayerCount: 2
Fore
SplineSet
0 0 m 0
 0 64 128 128 256 128 c 0
 384 128 512 64 512 0 c 0
 512 -64 384 -128 256 -128 c 0
 128 -128 0 -64 0 0 c 0
EndSplineSet
Validated: 1
EndChar

StartChar: u1D4DE
Encoding: 120030 120030 370
Width: 576
GlyphClass: 2
Flags: MW
LayerCount: 2
Fore
SplineSet
0 0 m 0
 0 64 128 128 256 128 c 0
 384 128 512 64 512 0 c 0
 512 -64 384 -128 256 -128 c 0
 128 -128 0 -64 0 0 c 0
EndSplineSet
Validated: 1
EndChar

StartChar: u1D4DF
Encoding: 120031 120031 371
Width: 576
GlyphClass: 2
Flags: MW
LayerCount: 2
Fore
SplineSet
0 0 m 0
 0 64 128 128 256 128 c 0
 384 128 512 64 512 0 c 0
 512 -64 384 -128 256 -128 c 0
 128 -128 0 -64 0 0 c 0
EndSplineSet
Validated: 1
EndChar

StartChar: u1D4E0
Encoding: 120032 120032 372
Width: 576
GlyphClass: 2
Flags: MW
LayerCount: 2
Fore
SplineSet
0 0 m 0
 0 64 128 128 256 128 c 0
 384 128 512 64 512 0 c 0
 512 -64 384 -128 256 -128 c 0
 128 -128 0 -64 0 0 c 0
EndSplineSet
Validated: 1
EndChar

StartChar: u1D4E1
Encoding: 120033 120033 373
Width: 576
GlyphClass: 2
Flags: MW
LayerCount: 2
Fore
SplineSet
0 0 m 0
 0 64 128 128 256 128 c 0
 384 128 512 64 512 0 c 0
 512 -64 384 -128 256 -128 c 0
 128 -128 0 -64 0 0 c 0
EndSplineSet
Validated: 1
EndChar

StartChar: u1D4E2
Encoding: 120034 120034 374
Width: 576
GlyphClass: 2
Flags: MW
LayerCount: 2
Fore
SplineSet
0 0 m 0
 0 64 128 128 256 128 c 0
 384 128 512 64 512 0 c 0
 512 -64 384 -128 256 -128 c 0
 128 -128 0 -64 0 0 c 0
EndSplineSet
Validated: 1
EndChar

StartChar: u1D4E3
Encoding: 120035 120035 375
Width: 576
GlyphClass: 2
Flags: MW
LayerCount: 2
Fore
SplineSet
0 0 m 0
 0 64 128 128 256 128 c 0
 384 128 512 64 512 0 c 0
 512 -64 384 -128 256 -128 c 0
 128 -128 0 -64 0 0 c 0
EndSplineSet
Validated: 1
EndChar

StartChar: u1D4E4
Encoding: 120036 120036 376
Width: 576
GlyphClass: 2
Flags: MW
LayerCount: 2
Fore
SplineSet
0 0 m 0
 0 64 128 128 256 128 c 0
 384 128 512 64 512 0 c 0
 512 -64 384 -128 256 -128 c 0
 128 -128 0 -64 0 0 c 0
EndSplineSet
Validated: 1
EndChar

StartChar: u1D4E5
Encoding: 120037 120037 377
Width: 576
GlyphClass: 2
Flags: MW
LayerCount: 2
Fore
SplineSet
0 0 m 0
 0 64 128 128 256 128 c 0
 384 128 512 64 512 0 c 0
 512 -64 384 -128 256 -128 c 0
 128 -128 0 -64 0 0 c 0
EndSplineSet
Validated: 1
EndChar

StartChar: u1D4E6
Encoding: 120038 120038 378
Width: 576
GlyphClass: 2
Flags: MW
LayerCount: 2
Fore
SplineSet
0 0 m 0
 0 64 128 128 256 128 c 0
 384 128 512 64 512 0 c 0
 512 -64 384 -128 256 -128 c 0
 128 -128 0 -64 0 0 c 0
EndSplineSet
Validated: 1
EndChar

StartChar: u1D4E7
Encoding: 120039 120039 379
Width: 576
GlyphClass: 2
Flags: MW
LayerCount: 2
Fore
SplineSet
0 0 m 0
 0 64 128 128 256 128 c 0
 384 128 512 64 512 0 c 0
 512 -64 384 -128 256 -128 c 0
 128 -128 0 -64 0 0 c 0
EndSplineSet
Validated: 1
EndChar

StartChar: u1D4E8
Encoding: 120040 120040 380
Width: 576
GlyphClass: 2
Flags: MW
LayerCount: 2
Fore
SplineSet
0 0 m 0
 0 64 128 128 256 128 c 0
 384 128 512 64 512 0 c 0
 512 -64 384 -128 256 -128 c 0
 128 -128 0 -64 0 0 c 0
EndSplineSet
Validated: 1
EndChar

StartChar: u1D4E9
Encoding: 120041 120041 381
Width: 576
GlyphClass: 2
Flags: MW
LayerCount: 2
Fore
SplineSet
0 0 m 0
 0 64 128 128 256 128 c 0
 384 128 512 64 512 0 c 0
 512 -64 384 -128 256 -128 c 0
 128 -128 0 -64 0 0 c 0
EndSplineSet
Validated: 1
EndChar

StartChar: u1D4EA
Encoding: 120042 120042 382
Width: 576
GlyphClass: 2
Flags: MW
LayerCount: 2
Fore
SplineSet
0 0 m 0
 0 64 128 128 256 128 c 0
 384 128 512 64 512 0 c 0
 512 -64 384 -128 256 -128 c 0
 128 -128 0 -64 0 0 c 0
EndSplineSet
Validated: 1
EndChar

StartChar: u1D4EB
Encoding: 120043 120043 383
Width: 576
GlyphClass: 2
Flags: MW
LayerCount: 2
Fore
SplineSet
0 0 m 0
 0 64 128 128 256 128 c 0
 384 128 512 64 512 0 c 0
 512 -64 384 -128 256 -128 c 0
 128 -128 0 -64 0 0 c 0
EndSplineSet
Validated: 1
EndChar

StartChar: u1D4EC
Encoding: 120044 120044 384
Width: 576
GlyphClass: 2
Flags: MW
LayerCount: 2
Fore
SplineSet
0 0 m 0
 0 64 128 128 256 128 c 0
 384 128 512 64 512 0 c 0
 512 -64 384 -128 256 -128 c 0
 128 -128 0 -64 0 0 c 0
EndSplineSet
Validated: 1
EndChar

StartChar: u1D4ED
Encoding: 120045 120045 385
Width: 576
GlyphClass: 2
Flags: MW
LayerCount: 2
Fore
SplineSet
0 0 m 0
 0 64 128 128 256 128 c 0
 384 128 512 64 512 0 c 0
 512 -64 384 -128 256 -128 c 0
 128 -128 0 -64 0 0 c 0
EndSplineSet
Validated: 1
EndChar

StartChar: u1D4EE
Encoding: 120046 120046 386
Width: 576
GlyphClass: 2
Flags: MW
LayerCount: 2
Fore
SplineSet
0 0 m 0
 0 64 128 128 256 128 c 0
 384 128 512 64 512 0 c 0
 512 -64 384 -128 256 -128 c 0
 128 -128 0 -64 0 0 c 0
EndSplineSet
Validated: 1
EndChar

StartChar: u1D4EF
Encoding: 120047 120047 387
Width: 576
GlyphClass: 2
Flags: MW
LayerCount: 2
Fore
SplineSet
0 0 m 0
 0 64 128 128 256 128 c 0
 384 128 512 64 512 0 c 0
 512 -64 384 -128 256 -128 c 0
 128 -128 0 -64 0 0 c 0
EndSplineSet
Validated: 1
EndChar

StartChar: u1D4F0
Encoding: 120048 120048 388
Width: 576
GlyphClass: 2
Flags: MW
LayerCount: 2
Fore
SplineSet
0 0 m 0
 0 64 128 128 256 128 c 0
 384 128 512 64 512 0 c 0
 512 -64 384 -128 256 -128 c 0
 128 -128 0 -64 0 0 c 0
EndSplineSet
Validated: 1
EndChar

StartChar: u1D4F1
Encoding: 120049 120049 389
Width: 576
GlyphClass: 2
Flags: MW
LayerCount: 2
Fore
SplineSet
0 0 m 0
 0 64 128 128 256 128 c 0
 384 128 512 64 512 0 c 0
 512 -64 384 -128 256 -128 c 0
 128 -128 0 -64 0 0 c 0
EndSplineSet
Validated: 1
EndChar

StartChar: u1D4F2
Encoding: 120050 120050 390
Width: 576
GlyphClass: 2
Flags: MW
LayerCount: 2
Fore
SplineSet
0 0 m 0
 0 64 128 128 256 128 c 0
 384 128 512 64 512 0 c 0
 512 -64 384 -128 256 -128 c 0
 128 -128 0 -64 0 0 c 0
EndSplineSet
Validated: 1
EndChar

StartChar: u1D4F3
Encoding: 120051 120051 391
Width: 576
GlyphClass: 2
Flags: MW
LayerCount: 2
Fore
SplineSet
0 0 m 0
 0 64 128 128 256 128 c 0
 384 128 512 64 512 0 c 0
 512 -64 384 -128 256 -128 c 0
 128 -128 0 -64 0 0 c 0
EndSplineSet
Validated: 1
EndChar

StartChar: u1D4F4
Encoding: 120052 120052 392
Width: 576
GlyphClass: 2
Flags: MW
LayerCount: 2
Fore
SplineSet
0 0 m 0
 0 64 128 128 256 128 c 0
 384 128 512 64 512 0 c 0
 512 -64 384 -128 256 -128 c 0
 128 -128 0 -64 0 0 c 0
EndSplineSet
Validated: 1
EndChar

StartChar: u1D4F5
Encoding: 120053 120053 393
Width: 576
GlyphClass: 2
Flags: MW
LayerCount: 2
Fore
SplineSet
0 0 m 0
 0 64 128 128 256 128 c 0
 384 128 512 64 512 0 c 0
 512 -64 384 -128 256 -128 c 0
 128 -128 0 -64 0 0 c 0
EndSplineSet
Validated: 1
EndChar

StartChar: u1D4F6
Encoding: 120054 120054 394
Width: 576
GlyphClass: 2
Flags: MW
LayerCount: 2
Fore
SplineSet
0 0 m 0
 0 64 128 128 256 128 c 0
 384 128 512 64 512 0 c 0
 512 -64 384 -128 256 -128 c 0
 128 -128 0 -64 0 0 c 0
EndSplineSet
Validated: 1
EndChar

StartChar: u1D4F7
Encoding: 120055 120055 395
Width: 576
GlyphClass: 2
Flags: MW
LayerCount: 2
Fore
SplineSet
0 0 m 0
 0 64 128 128 256 128 c 0
 384 128 512 64 512 0 c 0
 512 -64 384 -128 256 -128 c 0
 128 -128 0 -64 0 0 c 0
EndSplineSet
Validated: 1
EndChar

StartChar: u1D4F8
Encoding: 120056 120056 396
Width: 576
GlyphClass: 2
Flags: MW
LayerCount: 2
Fore
SplineSet
0 0 m 0
 0 64 128 128 256 128 c 0
 384 128 512 64 512 0 c 0
 512 -64 384 -128 256 -128 c 0
 128 -128 0 -64 0 0 c 0
EndSplineSet
Validated: 1
EndChar

StartChar: u1D4F9
Encoding: 120057 120057 397
Width: 576
GlyphClass: 2
Flags: MW
LayerCount: 2
Fore
SplineSet
0 0 m 0
 0 64 128 128 256 128 c 0
 384 128 512 64 512 0 c 0
 512 -64 384 -128 256 -128 c 0
 128 -128 0 -64 0 0 c 0
EndSplineSet
Validated: 1
EndChar

StartChar: u1D4FA
Encoding: 120058 120058 398
Width: 576
GlyphClass: 2
Flags: MW
LayerCount: 2
Fore
SplineSet
0 0 m 0
 0 64 128 128 256 128 c 0
 384 128 512 64 512 0 c 0
 512 -64 384 -128 256 -128 c 0
 128 -128 0 -64 0 0 c 0
EndSplineSet
Validated: 1
EndChar

StartChar: u1D4FB
Encoding: 120059 120059 399
Width: 576
GlyphClass: 2
Flags: MW
LayerCount: 2
Fore
SplineSet
0 0 m 0
 0 64 128 128 256 128 c 0
 384 128 512 64 512 0 c 0
 512 -64 384 -128 256 -128 c 0
 128 -128 0 -64 0 0 c 0
EndSplineSet
Validated: 1
EndChar

StartChar: u1D4FC
Encoding: 120060 120060 400
Width: 576
GlyphClass: 2
Flags: MW
LayerCount: 2
Fore
SplineSet
0 0 m 0
 0 64 128 128 256 128 c 0
 384 128 512 64 512 0 c 0
 512 -64 384 -128 256 -128 c 0
 128 -128 0 -64 0 0 c 0
EndSplineSet
Validated: 1
EndChar

StartChar: u1D4FD
Encoding: 120061 120061 401
Width: 576
GlyphClass: 2
Flags: MW
LayerCount: 2
Fore
SplineSet
0 0 m 0
 0 64 128 128 256 128 c 0
 384 128 512 64 512 0 c 0
 512 -64 384 -128 256 -128 c 0
 128 -128 0 -64 0 0 c 0
EndSplineSet
Validated: 1
EndChar

StartChar: u1D4FE
Encoding: 120062 120062 402
Width: 576
GlyphClass: 2
Flags: MW
LayerCount: 2
Fore
SplineSet
0 0 m 0
 0 64 128 128 256 128 c 0
 384 128 512 64 512 0 c 0
 512 -64 384 -128 256 -128 c 0
 128 -128 0 -64 0 0 c 0
EndSplineSet
Validated: 1
EndChar

StartChar: u1D4FF
Encoding: 120063 120063 403
Width: 576
GlyphClass: 2
Flags: MW
LayerCount: 2
Fore
SplineSet
0 0 m 0
 0 64 128 128 256 128 c 0
 384 128 512 64 512 0 c 0
 512 -64 384 -128 256 -128 c 0
 128 -128 0 -64 0 0 c 0
EndSplineSet
Validated: 1
EndChar

StartChar: u1D500
Encoding: 120064 120064 404
Width: 576
GlyphClass: 2
Flags: MW
LayerCount: 2
Fore
SplineSet
0 0 m 0
 0 64 128 128 256 128 c 0
 384 128 512 64 512 0 c 0
 512 -64 384 -128 256 -128 c 0
 128 -128 0 -64 0 0 c 0
EndSplineSet
Validated: 1
EndChar

StartChar: u1D501
Encoding: 120065 120065 405
Width: 576
GlyphClass: 2
Flags: MW
LayerCount: 2
Fore
SplineSet
0 0 m 0
 0 64 128 128 256 128 c 0
 384 128 512 64 512 0 c 0
 512 -64 384 -128 256 -128 c 0
 128 -128 0 -64 0 0 c 0
EndSplineSet
Validated: 1
EndChar

StartChar: u1D502
Encoding: 120066 120066 406
Width: 576
GlyphClass: 2
Flags: MW
LayerCount: 2
Fore
SplineSet
0 0 m 0
 0 64 128 128 256 128 c 0
 384 128 512 64 512 0 c 0
 512 -64 384 -128 256 -128 c 0
 128 -128 0 -64 0 0 c 0
EndSplineSet
Validated: 1
EndChar

StartChar: u1D503
Encoding: 120067 120067 407
Width: 576
GlyphClass: 2
Flags: MW
LayerCount: 2
Fore
SplineSet
0 0 m 0
 0 64 128 128 256 128 c 0
 384 128 512 64 512 0 c 0
 512 -64 384 -128 256 -128 c 0
 128 -128 0 -64 0 0 c 0
EndSplineSet
Validated: 1
EndChar

StartChar: u1D504
Encoding: 120068 120068 408
Width: 1152
GlyphClass: 2
Flags: MW
LayerCount: 2
Fore
SplineSet
0 -256 m 1
 512 256 l 1
 1024 -256 l 1
 0 -256 l 1
EndSplineSet
Validated: 1
EndChar

StartChar: u1D505
Encoding: 120069 120069 409
Width: 1152
GlyphClass: 2
Flags: MW
LayerCount: 2
Fore
SplineSet
0 -256 m 1
 512 256 l 1
 1024 -256 l 1
 0 -256 l 1
EndSplineSet
Validated: 1
EndChar

StartChar: u1D507
Encoding: 120071 120071 410
Width: 1152
GlyphClass: 2
Flags: MW
LayerCount: 2
Fore
SplineSet
0 -256 m 1
 512 256 l 1
 1024 -256 l 1
 0 -256 l 1
EndSplineSet
Validated: 1
EndChar

StartChar: u1D508
Encoding: 120072 120072 411
Width: 1152
GlyphClass: 2
Flags: MW
LayerCount: 2
Fore
SplineSet
0 -256 m 1
 512 256 l 1
 1024 -256 l 1
 0 -256 l 1
EndSplineSet
Validated: 1
EndChar

StartChar: u1D509
Encoding: 120073 120073 412
Width: 1152
GlyphClass: 2
Flags: MW
LayerCount: 2
Fore
SplineSet
0 -256 m 1
 512 256 l 1
 1024 -256 l 1
 0 -256 l 1
EndSplineSet
Validated: 1
EndChar

StartChar: u1D50A
Encoding: 120074 120074 413
Width: 1152
GlyphClass: 2
Flags: MW
LayerCount: 2
Fore
SplineSet
0 -256 m 1
 512 256 l 1
 1024 -256 l 1
 0 -256 l 1
EndSplineSet
Validated: 1
EndChar

StartChar: u1D50D
Encoding: 120077 120077 414
Width: 1152
GlyphClass: 2
Flags: MW
LayerCount: 2
Fore
SplineSet
0 -256 m 1
 512 256 l 1
 1024 -256 l 1
 0 -256 l 1
EndSplineSet
Validated: 1
EndChar

StartChar: u1D50E
Encoding: 120078 120078 415
Width: 1152
GlyphClass: 2
Flags: MW
LayerCount: 2
Fore
SplineSet
0 -256 m 1
 512 256 l 1
 1024 -256 l 1
 0 -256 l 1
EndSplineSet
Validated: 1
EndChar

StartChar: u1D50F
Encoding: 120079 120079 416
Width: 1152
GlyphClass: 2
Flags: MW
LayerCount: 2
Fore
SplineSet
0 -256 m 1
 512 256 l 1
 1024 -256 l 1
 0 -256 l 1
EndSplineSet
Validated: 1
EndChar

StartChar: u1D510
Encoding: 120080 120080 417
Width: 1152
GlyphClass: 2
Flags: MW
LayerCount: 2
Fore
SplineSet
0 -256 m 1
 512 256 l 1
 1024 -256 l 1
 0 -256 l 1
EndSplineSet
Validated: 1
EndChar

StartChar: u1D511
Encoding: 120081 120081 418
Width: 1152
GlyphClass: 2
Flags: MW
LayerCount: 2
Fore
SplineSet
0 -256 m 1
 512 256 l 1
 1024 -256 l 1
 0 -256 l 1
EndSplineSet
Validated: 1
EndChar

StartChar: u1D512
Encoding: 120082 120082 419
Width: 1152
GlyphClass: 2
Flags: MW
LayerCount: 2
Fore
SplineSet
0 -256 m 1
 512 256 l 1
 1024 -256 l 1
 0 -256 l 1
EndSplineSet
Validated: 1
EndChar

StartChar: u1D513
Encoding: 120083 120083 420
Width: 1152
GlyphClass: 2
Flags: MW
LayerCount: 2
Fore
SplineSet
0 -256 m 1
 512 256 l 1
 1024 -256 l 1
 0 -256 l 1
EndSplineSet
Validated: 1
EndChar

StartChar: u1D514
Encoding: 120084 120084 421
Width: 1152
GlyphClass: 2
Flags: MW
LayerCount: 2
Fore
SplineSet
0 -256 m 1
 512 256 l 1
 1024 -256 l 1
 0 -256 l 1
EndSplineSet
Validated: 1
EndChar

StartChar: u1D516
Encoding: 120086 120086 422
Width: 1152
GlyphClass: 2
Flags: MW
LayerCount: 2
Fore
SplineSet
0 -256 m 1
 512 256 l 1
 1024 -256 l 1
 0 -256 l 1
EndSplineSet
Validated: 1
EndChar

StartChar: u1D517
Encoding: 120087 120087 423
Width: 1152
GlyphClass: 2
Flags: MW
LayerCount: 2
Fore
SplineSet
0 -256 m 1
 512 256 l 1
 1024 -256 l 1
 0 -256 l 1
EndSplineSet
Validated: 1
EndChar

StartChar: u1D518
Encoding: 120088 120088 424
Width: 1152
GlyphClass: 2
Flags: MW
LayerCount: 2
Fore
SplineSet
0 -256 m 1
 512 256 l 1
 1024 -256 l 1
 0 -256 l 1
EndSplineSet
Validated: 1
EndChar

StartChar: u1D519
Encoding: 120089 120089 425
Width: 1152
GlyphClass: 2
Flags: MW
LayerCount: 2
Fore
SplineSet
0 -256 m 1
 512 256 l 1
 1024 -256 l 1
 0 -256 l 1
EndSplineSet
Validated: 1
EndChar

StartChar: u1D51A
Encoding: 120090 120090 426
Width: 1152
GlyphClass: 2
Flags: MW
LayerCount: 2
Fore
SplineSet
0 -256 m 1
 512 256 l 1
 1024 -256 l 1
 0 -256 l 1
EndSplineSet
Validated: 1
EndChar

StartChar: u1D51B
Encoding: 120091 120091 427
Width: 1152
GlyphClass: 2
Flags: MW
LayerCount: 2
Fore
SplineSet
0 -256 m 1
 512 256 l 1
 1024 -256 l 1
 0 -256 l 1
EndSplineSet
Validated: 1
EndChar

StartChar: u1D51C
Encoding: 120092 120092 428
Width: 1152
GlyphClass: 2
Flags: MW
LayerCount: 2
Fore
SplineSet
0 -256 m 1
 512 256 l 1
 1024 -256 l 1
 0 -256 l 1
EndSplineSet
Validated: 1
EndChar

StartChar: u1D51E
Encoding: 120094 120094 429
Width: 1152
GlyphClass: 2
Flags: MW
LayerCount: 2
Fore
SplineSet
0 -256 m 1
 512 256 l 1
 1024 -256 l 1
 0 -256 l 1
EndSplineSet
Validated: 1
EndChar

StartChar: u1D51F
Encoding: 120095 120095 430
Width: 1152
GlyphClass: 2
Flags: MW
LayerCount: 2
Fore
SplineSet
0 -256 m 1
 512 256 l 1
 1024 -256 l 1
 0 -256 l 1
EndSplineSet
Validated: 1
EndChar

StartChar: u1D520
Encoding: 120096 120096 431
Width: 1152
GlyphClass: 2
Flags: MW
LayerCount: 2
Fore
SplineSet
0 -256 m 1
 512 256 l 1
 1024 -256 l 1
 0 -256 l 1
EndSplineSet
Validated: 1
EndChar

StartChar: u1D521
Encoding: 120097 120097 432
Width: 1152
GlyphClass: 2
Flags: MW
LayerCount: 2
Fore
SplineSet
0 -256 m 1
 512 256 l 1
 1024 -256 l 1
 0 -256 l 1
EndSplineSet
Validated: 1
EndChar

StartChar: u1D522
Encoding: 120098 120098 433
Width: 1152
GlyphClass: 2
Flags: MW
LayerCount: 2
Fore
SplineSet
0 -256 m 1
 512 256 l 1
 1024 -256 l 1
 0 -256 l 1
EndSplineSet
Validated: 1
EndChar

StartChar: u1D523
Encoding: 120099 120099 434
Width: 1152
GlyphClass: 2
Flags: MW
LayerCount: 2
Fore
SplineSet
0 -256 m 1
 512 256 l 1
 1024 -256 l 1
 0 -256 l 1
EndSplineSet
Validated: 1
EndChar

StartChar: u1D524
Encoding: 120100 120100 435
Width: 1152
GlyphClass: 2
Flags: MW
LayerCount: 2
Fore
SplineSet
0 -256 m 1
 512 256 l 1
 1024 -256 l 1
 0 -256 l 1
EndSplineSet
Validated: 1
EndChar

StartChar: u1D525
Encoding: 120101 120101 436
Width: 1152
GlyphClass: 2
Flags: MW
LayerCount: 2
Fore
SplineSet
0 -256 m 1
 512 256 l 1
 1024 -256 l 1
 0 -256 l 1
EndSplineSet
Validated: 1
EndChar

StartChar: u1D526
Encoding: 120102 120102 437
Width: 1152
GlyphClass: 2
Flags: MW
LayerCount: 2
Fore
SplineSet
0 -256 m 1
 512 256 l 1
 1024 -256 l 1
 0 -256 l 1
EndSplineSet
Validated: 1
EndChar

StartChar: u1D527
Encoding: 120103 120103 438
Width: 1152
GlyphClass: 2
Flags: MW
LayerCount: 2
Fore
SplineSet
0 -256 m 1
 512 256 l 1
 1024 -256 l 1
 0 -256 l 1
EndSplineSet
Validated: 1
EndChar

StartChar: u1D528
Encoding: 120104 120104 439
Width: 1152
GlyphClass: 2
Flags: MW
LayerCount: 2
Fore
SplineSet
0 -256 m 1
 512 256 l 1
 1024 -256 l 1
 0 -256 l 1
EndSplineSet
Validated: 1
EndChar

StartChar: u1D529
Encoding: 120105 120105 440
Width: 1152
GlyphClass: 2
Flags: MW
LayerCount: 2
Fore
SplineSet
0 -256 m 1
 512 256 l 1
 1024 -256 l 1
 0 -256 l 1
EndSplineSet
Validated: 1
EndChar

StartChar: u1D52A
Encoding: 120106 120106 441
Width: 1152
GlyphClass: 2
Flags: MW
LayerCount: 2
Fore
SplineSet
0 -256 m 1
 512 256 l 1
 1024 -256 l 1
 0 -256 l 1
EndSplineSet
Validated: 1
EndChar

StartChar: u1D52B
Encoding: 120107 120107 442
Width: 1152
GlyphClass: 2
Flags: MW
LayerCount: 2
Fore
SplineSet
0 -256 m 1
 512 256 l 1
 1024 -256 l 1
 0 -256 l 1
EndSplineSet
Validated: 1
EndChar

StartChar: u1D52C
Encoding: 120108 120108 443
Width: 1152
GlyphClass: 2
Flags: MW
LayerCount: 2
Fore
SplineSet
0 -256 m 1
 512 256 l 1
 1024 -256 l 1
 0 -256 l 1
EndSplineSet
Validated: 1
EndChar

StartChar: u1D52D
Encoding: 120109 120109 444
Width: 1152
GlyphClass: 2
Flags: MW
LayerCount: 2
Fore
SplineSet
0 -256 m 1
 512 256 l 1
 1024 -256 l 1
 0 -256 l 1
EndSplineSet
Validated: 1
EndChar

StartChar: u1D52E
Encoding: 120110 120110 445
Width: 1152
GlyphClass: 2
Flags: MW
LayerCount: 2
Fore
SplineSet
0 -256 m 1
 512 256 l 1
 1024 -256 l 1
 0 -256 l 1
EndSplineSet
Validated: 1
EndChar

StartChar: u1D52F
Encoding: 120111 120111 446
Width: 1152
GlyphClass: 2
Flags: MW
LayerCount: 2
Fore
SplineSet
0 -256 m 1
 512 256 l 1
 1024 -256 l 1
 0 -256 l 1
EndSplineSet
Validated: 1
EndChar

StartChar: u1D530
Encoding: 120112 120112 447
Width: 1152
GlyphClass: 2
Flags: MW
LayerCount: 2
Fore
SplineSet
0 -256 m 1
 512 256 l 1
 1024 -256 l 1
 0 -256 l 1
EndSplineSet
Validated: 1
EndChar

StartChar: u1D531
Encoding: 120113 120113 448
Width: 1152
GlyphClass: 2
Flags: MW
LayerCount: 2
Fore
SplineSet
0 -256 m 1
 512 256 l 1
 1024 -256 l 1
 0 -256 l 1
EndSplineSet
Validated: 1
EndChar

StartChar: u1D532
Encoding: 120114 120114 449
Width: 1152
GlyphClass: 2
Flags: MW
LayerCount: 2
Fore
SplineSet
0 -256 m 1
 512 256 l 1
 1024 -256 l 1
 0 -256 l 1
EndSplineSet
Validated: 1
EndChar

StartChar: u1D533
Encoding: 120115 120115 450
Width: 1152
GlyphClass: 2
Flags: MW
LayerCount: 2
Fore
SplineSet
0 -256 m 1
 512 256 l 1
 1024 -256 l 1
 0 -256 l 1
EndSplineSet
Validated: 1
EndChar

StartChar: u1D534
Encoding: 120116 120116 451
Width: 1152
GlyphClass: 2
Flags: MW
LayerCount: 2
Fore
SplineSet
0 -256 m 1
 512 256 l 1
 1024 -256 l 1
 0 -256 l 1
EndSplineSet
Validated: 1
EndChar

StartChar: u1D535
Encoding: 120117 120117 452
Width: 1152
GlyphClass: 2
Flags: MW
LayerCount: 2
Fore
SplineSet
0 -256 m 1
 512 256 l 1
 1024 -256 l 1
 0 -256 l 1
EndSplineSet
Validated: 1
EndChar

StartChar: u1D536
Encoding: 120118 120118 453
Width: 1152
GlyphClass: 2
Flags: MW
LayerCount: 2
Fore
SplineSet
0 -256 m 1
 512 256 l 1
 1024 -256 l 1
 0 -256 l 1
EndSplineSet
Validated: 1
EndChar

StartChar: u1D537
Encoding: 120119 120119 454
Width: 1152
GlyphClass: 2
Flags: MW
LayerCount: 2
Fore
SplineSet
0 -256 m 1
 512 256 l 1
 1024 -256 l 1
 0 -256 l 1
EndSplineSet
Validated: 1
EndChar

StartChar: u1D538
Encoding: 120120 120120 455
Width: 1280
GlyphClass: 2
Flags: MW
LayerCount: 2
Fore
SplineSet
576 384 m 1
 1024 384 l 1
 1024 -384 l 1
 576 -387 l 1
 576 384 l 1
0 384 m 1
 448 384 l 1
 448 -384 l 1
 0 -384 l 1
 0 384 l 1
EndSplineSet
Validated: 1
EndChar

StartChar: u1D539
Encoding: 120121 120121 456
Width: 1280
GlyphClass: 2
Flags: MW
LayerCount: 2
Fore
SplineSet
576 384 m 1
 1024 384 l 1
 1024 -384 l 1
 576 -387 l 1
 576 384 l 1
0 384 m 1
 448 384 l 1
 448 -384 l 1
 0 -384 l 1
 0 384 l 1
EndSplineSet
Validated: 1
EndChar

StartChar: u1D53B
Encoding: 120123 120123 457
Width: 1280
GlyphClass: 2
Flags: MW
LayerCount: 2
Fore
SplineSet
576 384 m 1
 1024 384 l 1
 1024 -384 l 1
 576 -387 l 1
 576 384 l 1
0 384 m 1
 448 384 l 1
 448 -384 l 1
 0 -384 l 1
 0 384 l 1
EndSplineSet
Validated: 1
EndChar

StartChar: u1D53C
Encoding: 120124 120124 458
Width: 1280
GlyphClass: 2
Flags: MW
LayerCount: 2
Fore
SplineSet
576 384 m 1
 1024 384 l 1
 1024 -384 l 1
 576 -387 l 1
 576 384 l 1
0 384 m 1
 448 384 l 1
 448 -384 l 1
 0 -384 l 1
 0 384 l 1
EndSplineSet
Validated: 1
EndChar

StartChar: u1D53D
Encoding: 120125 120125 459
Width: 1280
GlyphClass: 2
Flags: MW
LayerCount: 2
Fore
SplineSet
576 384 m 1
 1024 384 l 1
 1024 -384 l 1
 576 -387 l 1
 576 384 l 1
0 384 m 1
 448 384 l 1
 448 -384 l 1
 0 -384 l 1
 0 384 l 1
EndSplineSet
Validated: 1
EndChar

StartChar: u1D53E
Encoding: 120126 120126 460
Width: 1280
GlyphClass: 2
Flags: MW
LayerCount: 2
Fore
SplineSet
576 384 m 1
 1024 384 l 1
 1024 -384 l 1
 576 -387 l 1
 576 384 l 1
0 384 m 1
 448 384 l 1
 448 -384 l 1
 0 -384 l 1
 0 384 l 1
EndSplineSet
Validated: 1
EndChar

StartChar: u1D540
Encoding: 120128 120128 461
Width: 1280
GlyphClass: 2
Flags: MW
LayerCount: 2
Fore
SplineSet
576 384 m 1
 1024 384 l 1
 1024 -384 l 1
 576 -387 l 1
 576 384 l 1
0 384 m 1
 448 384 l 1
 448 -384 l 1
 0 -384 l 1
 0 384 l 1
EndSplineSet
Validated: 1
EndChar

StartChar: u1D541
Encoding: 120129 120129 462
Width: 1280
GlyphClass: 2
Flags: MW
LayerCount: 2
Fore
SplineSet
576 384 m 1
 1024 384 l 1
 1024 -384 l 1
 576 -387 l 1
 576 384 l 1
0 384 m 1
 448 384 l 1
 448 -384 l 1
 0 -384 l 1
 0 384 l 1
EndSplineSet
Validated: 1
EndChar

StartChar: u1D542
Encoding: 120130 120130 463
Width: 1280
GlyphClass: 2
Flags: MW
LayerCount: 2
Fore
SplineSet
576 384 m 1
 1024 384 l 1
 1024 -384 l 1
 576 -387 l 1
 576 384 l 1
0 384 m 1
 448 384 l 1
 448 -384 l 1
 0 -384 l 1
 0 384 l 1
EndSplineSet
Validated: 1
EndChar

StartChar: u1D543
Encoding: 120131 120131 464
Width: 1280
GlyphClass: 2
Flags: MW
LayerCount: 2
Fore
SplineSet
576 384 m 1
 1024 384 l 1
 1024 -384 l 1
 576 -387 l 1
 576 384 l 1
0 384 m 1
 448 384 l 1
 448 -384 l 1
 0 -384 l 1
 0 384 l 1
EndSplineSet
Validated: 1
EndChar

StartChar: u1D544
Encoding: 120132 120132 465
Width: 1280
GlyphClass: 2
Flags: MW
LayerCount: 2
Fore
SplineSet
576 384 m 1
 1024 384 l 1
 1024 -384 l 1
 576 -387 l 1
 576 384 l 1
0 384 m 1
 448 384 l 1
 448 -384 l 1
 0 -384 l 1
 0 384 l 1
EndSplineSet
Validated: 1
EndChar

StartChar: u1D546
Encoding: 120134 120134 466
Width: 1280
GlyphClass: 2
Flags: MW
LayerCount: 2
Fore
SplineSet
576 384 m 1
 1024 384 l 1
 1024 -384 l 1
 576 -387 l 1
 576 384 l 1
0 384 m 1
 448 384 l 1
 448 -384 l 1
 0 -384 l 1
 0 384 l 1
EndSplineSet
Validated: 1
EndChar

StartChar: u1D54A
Encoding: 120138 120138 467
Width: 1280
GlyphClass: 2
Flags: MW
LayerCount: 2
Fore
SplineSet
576 384 m 1
 1024 384 l 1
 1024 -384 l 1
 576 -387 l 1
 576 384 l 1
0 384 m 1
 448 384 l 1
 448 -384 l 1
 0 -384 l 1
 0 384 l 1
EndSplineSet
Validated: 1
EndChar

StartChar: u1D54B
Encoding: 120139 120139 468
Width: 1280
GlyphClass: 2
Flags: MW
LayerCount: 2
Fore
SplineSet
576 384 m 1
 1024 384 l 1
 1024 -384 l 1
 576 -387 l 1
 576 384 l 1
0 384 m 1
 448 384 l 1
 448 -384 l 1
 0 -384 l 1
 0 384 l 1
EndSplineSet
Validated: 1
EndChar

StartChar: u1D54C
Encoding: 120140 120140 469
Width: 1280
GlyphClass: 2
Flags: MW
LayerCount: 2
Fore
SplineSet
576 384 m 1
 1024 384 l 1
 1024 -384 l 1
 576 -387 l 1
 576 384 l 1
0 384 m 1
 448 384 l 1
 448 -384 l 1
 0 -384 l 1
 0 384 l 1
EndSplineSet
Validated: 1
EndChar

StartChar: u1D54D
Encoding: 120141 120141 470
Width: 1280
GlyphClass: 2
Flags: MW
LayerCount: 2
Fore
SplineSet
576 384 m 1
 1024 384 l 1
 1024 -384 l 1
 576 -387 l 1
 576 384 l 1
0 384 m 1
 448 384 l 1
 448 -384 l 1
 0 -384 l 1
 0 384 l 1
EndSplineSet
Validated: 1
EndChar

StartChar: u1D54E
Encoding: 120142 120142 471
Width: 1280
GlyphClass: 2
Flags: MW
LayerCount: 2
Fore
SplineSet
576 384 m 1
 1024 384 l 1
 1024 -384 l 1
 576 -387 l 1
 576 384 l 1
0 384 m 1
 448 384 l 1
 448 -384 l 1
 0 -384 l 1
 0 384 l 1
EndSplineSet
Validated: 1
EndChar

StartChar: u1D54F
Encoding: 120143 120143 472
Width: 1280
GlyphClass: 2
Flags: MW
LayerCount: 2
Fore
SplineSet
576 384 m 1
 1024 384 l 1
 1024 -384 l 1
 576 -387 l 1
 576 384 l 1
0 384 m 1
 448 384 l 1
 448 -384 l 1
 0 -384 l 1
 0 384 l 1
EndSplineSet
Validated: 1
EndChar

StartChar: u1D550
Encoding: 120144 120144 473
Width: 1280
GlyphClass: 2
Flags: MW
LayerCount: 2
Fore
SplineSet
576 384 m 1
 1024 384 l 1
 1024 -384 l 1
 576 -387 l 1
 576 384 l 1
0 384 m 1
 448 384 l 1
 448 -384 l 1
 0 -384 l 1
 0 384 l 1
EndSplineSet
Validated: 1
EndChar

StartChar: u1D552
Encoding: 120146 120146 474
Width: 1280
GlyphClass: 2
Flags: MW
LayerCount: 2
Fore
SplineSet
576 384 m 1
 1024 384 l 1
 1024 -384 l 1
 576 -387 l 1
 576 384 l 1
0 384 m 1
 448 384 l 1
 448 -384 l 1
 0 -384 l 1
 0 384 l 1
EndSplineSet
Validated: 1
EndChar

StartChar: u1D553
Encoding: 120147 120147 475
Width: 1280
GlyphClass: 2
Flags: MW
LayerCount: 2
Fore
SplineSet
576 384 m 1
 1024 384 l 1
 1024 -384 l 1
 576 -387 l 1
 576 384 l 1
0 384 m 1
 448 384 l 1
 448 -384 l 1
 0 -384 l 1
 0 384 l 1
EndSplineSet
Validated: 1
EndChar

StartChar: u1D554
Encoding: 120148 120148 476
Width: 1280
GlyphClass: 2
Flags: MW
LayerCount: 2
Fore
SplineSet
576 384 m 1
 1024 384 l 1
 1024 -384 l 1
 576 -387 l 1
 576 384 l 1
0 384 m 1
 448 384 l 1
 448 -384 l 1
 0 -384 l 1
 0 384 l 1
EndSplineSet
Validated: 1
EndChar

StartChar: u1D555
Encoding: 120149 120149 477
Width: 1280
GlyphClass: 2
Flags: MW
LayerCount: 2
Fore
SplineSet
576 384 m 1
 1024 384 l 1
 1024 -384 l 1
 576 -387 l 1
 576 384 l 1
0 384 m 1
 448 384 l 1
 448 -384 l 1
 0 -384 l 1
 0 384 l 1
EndSplineSet
Validated: 1
EndChar

StartChar: u1D556
Encoding: 120150 120150 478
Width: 1280
GlyphClass: 2
Flags: MW
LayerCount: 2
Fore
SplineSet
576 384 m 1
 1024 384 l 1
 1024 -384 l 1
 576 -387 l 1
 576 384 l 1
0 384 m 1
 448 384 l 1
 448 -384 l 1
 0 -384 l 1
 0 384 l 1
EndSplineSet
Validated: 1
EndChar

StartChar: u1D557
Encoding: 120151 120151 479
Width: 1280
GlyphClass: 2
Flags: MW
LayerCount: 2
Fore
SplineSet
576 384 m 1
 1024 384 l 1
 1024 -384 l 1
 576 -387 l 1
 576 384 l 1
0 384 m 1
 448 384 l 1
 448 -384 l 1
 0 -384 l 1
 0 384 l 1
EndSplineSet
Validated: 1
EndChar

StartChar: u1D558
Encoding: 120152 120152 480
Width: 1280
GlyphClass: 2
Flags: MW
LayerCount: 2
Fore
SplineSet
576 384 m 1
 1024 384 l 1
 1024 -384 l 1
 576 -387 l 1
 576 384 l 1
0 384 m 1
 448 384 l 1
 448 -384 l 1
 0 -384 l 1
 0 384 l 1
EndSplineSet
Validated: 1
EndChar

StartChar: u1D559
Encoding: 120153 120153 481
Width: 1280
GlyphClass: 2
Flags: MW
LayerCount: 2
Fore
SplineSet
576 384 m 1
 1024 384 l 1
 1024 -384 l 1
 576 -387 l 1
 576 384 l 1
0 384 m 1
 448 384 l 1
 448 -384 l 1
 0 -384 l 1
 0 384 l 1
EndSplineSet
Validated: 1
EndChar

StartChar: u1D55A
Encoding: 120154 120154 482
Width: 1280
GlyphClass: 2
Flags: MW
LayerCount: 2
Fore
SplineSet
576 384 m 1
 1024 384 l 1
 1024 -384 l 1
 576 -387 l 1
 576 384 l 1
0 384 m 1
 448 384 l 1
 448 -384 l 1
 0 -384 l 1
 0 384 l 1
EndSplineSet
Validated: 1
EndChar

StartChar: u1D55B
Encoding: 120155 120155 483
Width: 1280
GlyphClass: 2
Flags: MW
LayerCount: 2
Fore
SplineSet
576 384 m 1
 1024 384 l 1
 1024 -384 l 1
 576 -387 l 1
 576 384 l 1
0 384 m 1
 448 384 l 1
 448 -384 l 1
 0 -384 l 1
 0 384 l 1
EndSplineSet
Validated: 1
EndChar

StartChar: u1D55C
Encoding: 120156 120156 484
Width: 1280
GlyphClass: 2
Flags: MW
LayerCount: 2
Fore
SplineSet
576 384 m 1
 1024 384 l 1
 1024 -384 l 1
 576 -387 l 1
 576 384 l 1
0 384 m 1
 448 384 l 1
 448 -384 l 1
 0 -384 l 1
 0 384 l 1
EndSplineSet
Validated: 1
EndChar

StartChar: u1D55D
Encoding: 120157 120157 485
Width: 1280
GlyphClass: 2
Flags: MW
LayerCount: 2
Fore
SplineSet
576 384 m 1
 1024 384 l 1
 1024 -384 l 1
 576 -387 l 1
 576 384 l 1
0 384 m 1
 448 384 l 1
 448 -384 l 1
 0 -384 l 1
 0 384 l 1
EndSplineSet
Validated: 1
EndChar

StartChar: u1D55E
Encoding: 120158 120158 486
Width: 1280
GlyphClass: 2
Flags: MW
LayerCount: 2
Fore
SplineSet
576 384 m 1
 1024 384 l 1
 1024 -384 l 1
 576 -387 l 1
 576 384 l 1
0 384 m 1
 448 384 l 1
 448 -384 l 1
 0 -384 l 1
 0 384 l 1
EndSplineSet
Validated: 1
EndChar

StartChar: u1D55F
Encoding: 120159 120159 487
Width: 1280
GlyphClass: 2
Flags: MW
LayerCount: 2
Fore
SplineSet
576 384 m 1
 1024 384 l 1
 1024 -384 l 1
 576 -387 l 1
 576 384 l 1
0 384 m 1
 448 384 l 1
 448 -384 l 1
 0 -384 l 1
 0 384 l 1
EndSplineSet
Validated: 1
EndChar

StartChar: u1D560
Encoding: 120160 120160 488
Width: 1280
GlyphClass: 2
Flags: MW
LayerCount: 2
Fore
SplineSet
576 384 m 1
 1024 384 l 1
 1024 -384 l 1
 576 -387 l 1
 576 384 l 1
0 384 m 1
 448 384 l 1
 448 -384 l 1
 0 -384 l 1
 0 384 l 1
EndSplineSet
Validated: 1
EndChar

StartChar: u1D561
Encoding: 120161 120161 489
Width: 1280
GlyphClass: 2
Flags: MW
LayerCount: 2
Fore
SplineSet
576 384 m 1
 1024 384 l 1
 1024 -384 l 1
 576 -387 l 1
 576 384 l 1
0 384 m 1
 448 384 l 1
 448 -384 l 1
 0 -384 l 1
 0 384 l 1
EndSplineSet
Validated: 1
EndChar

StartChar: u1D562
Encoding: 120162 120162 490
Width: 1280
GlyphClass: 2
Flags: MW
LayerCount: 2
Fore
SplineSet
576 384 m 1
 1024 384 l 1
 1024 -384 l 1
 576 -387 l 1
 576 384 l 1
0 384 m 1
 448 384 l 1
 448 -384 l 1
 0 -384 l 1
 0 384 l 1
EndSplineSet
Validated: 1
EndChar

StartChar: u1D563
Encoding: 120163 120163 491
Width: 1280
GlyphClass: 2
Flags: MW
LayerCount: 2
Fore
SplineSet
576 384 m 1
 1024 384 l 1
 1024 -384 l 1
 576 -387 l 1
 576 384 l 1
0 384 m 1
 448 384 l 1
 448 -384 l 1
 0 -384 l 1
 0 384 l 1
EndSplineSet
Validated: 1
EndChar

StartChar: u1D564
Encoding: 120164 120164 492
Width: 1280
GlyphClass: 2
Flags: MW
LayerCount: 2
Fore
SplineSet
576 384 m 1
 1024 384 l 1
 1024 -384 l 1
 576 -387 l 1
 576 384 l 1
0 384 m 1
 448 384 l 1
 448 -384 l 1
 0 -384 l 1
 0 384 l 1
EndSplineSet
Validated: 1
EndChar

StartChar: u1D565
Encoding: 120165 120165 493
Width: 1280
GlyphClass: 2
Flags: MW
LayerCount: 2
Fore
SplineSet
576 384 m 1
 1024 384 l 1
 1024 -384 l 1
 576 -387 l 1
 576 384 l 1
0 384 m 1
 448 384 l 1
 448 -384 l 1
 0 -384 l 1
 0 384 l 1
EndSplineSet
Validated: 1
EndChar

StartChar: u1D566
Encoding: 120166 120166 494
Width: 1280
GlyphClass: 2
Flags: MW
LayerCount: 2
Fore
SplineSet
576 384 m 1
 1024 384 l 1
 1024 -384 l 1
 576 -387 l 1
 576 384 l 1
0 384 m 1
 448 384 l 1
 448 -384 l 1
 0 -384 l 1
 0 384 l 1
EndSplineSet
Validated: 1
EndChar

StartChar: u1D567
Encoding: 120167 120167 495
Width: 1280
GlyphClass: 2
Flags: MW
LayerCount: 2
Fore
SplineSet
576 384 m 1
 1024 384 l 1
 1024 -384 l 1
 576 -387 l 1
 576 384 l 1
0 384 m 1
 448 384 l 1
 448 -384 l 1
 0 -384 l 1
 0 384 l 1
EndSplineSet
Validated: 1
EndChar

StartChar: u1D568
Encoding: 120168 120168 496
Width: 1280
GlyphClass: 2
Flags: MW
LayerCount: 2
Fore
SplineSet
576 384 m 1
 1024 384 l 1
 1024 -384 l 1
 576 -387 l 1
 576 384 l 1
0 384 m 1
 448 384 l 1
 448 -384 l 1
 0 -384 l 1
 0 384 l 1
EndSplineSet
Validated: 1
EndChar

StartChar: u1D569
Encoding: 120169 120169 497
Width: 1280
GlyphClass: 2
Flags: MW
LayerCount: 2
Fore
SplineSet
576 384 m 1
 1024 384 l 1
 1024 -384 l 1
 576 -387 l 1
 576 384 l 1
0 384 m 1
 448 384 l 1
 448 -384 l 1
 0 -384 l 1
 0 384 l 1
EndSplineSet
Validated: 1
EndChar

StartChar: u1D56A
Encoding: 120170 120170 498
Width: 1280
GlyphClass: 2
Flags: MW
LayerCount: 2
Fore
SplineSet
576 384 m 1
 1024 384 l 1
 1024 -384 l 1
 576 -387 l 1
 576 384 l 1
0 384 m 1
 448 384 l 1
 448 -384 l 1
 0 -384 l 1
 0 384 l 1
EndSplineSet
Validated: 1
EndChar

StartChar: u1D56B
Encoding: 120171 120171 499
Width: 1280
GlyphClass: 2
Flags: MW
LayerCount: 2
Fore
SplineSet
576 384 m 1
 1024 384 l 1
 1024 -384 l 1
 576 -387 l 1
 576 384 l 1
0 384 m 1
 448 384 l 1
 448 -384 l 1
 0 -384 l 1
 0 384 l 1
EndSplineSet
Validated: 1
EndChar

StartChar: u1D56C
Encoding: 120172 120172 500
Width: 640
GlyphClass: 2
Flags: MW
LayerCount: 2
Fore
SplineSet
0 -256 m 1
 256 256 l 1
 512 -256 l 1
 0 -256 l 1
EndSplineSet
Validated: 1
EndChar

StartChar: u1D56D
Encoding: 120173 120173 501
Width: 640
GlyphClass: 2
Flags: MW
LayerCount: 2
Fore
SplineSet
0 -256 m 1
 256 256 l 1
 512 -256 l 1
 0 -256 l 1
EndSplineSet
Validated: 1
EndChar

StartChar: u1D56E
Encoding: 120174 120174 502
Width: 640
GlyphClass: 2
Flags: MW
LayerCount: 2
Fore
SplineSet
0 -256 m 1
 256 256 l 1
 512 -256 l 1
 0 -256 l 1
EndSplineSet
Validated: 1
EndChar

StartChar: u1D56F
Encoding: 120175 120175 503
Width: 640
GlyphClass: 2
Flags: MW
LayerCount: 2
Fore
SplineSet
0 -256 m 1
 256 256 l 1
 512 -256 l 1
 0 -256 l 1
EndSplineSet
Validated: 1
EndChar

StartChar: u1D570
Encoding: 120176 120176 504
Width: 640
GlyphClass: 2
Flags: MW
LayerCount: 2
Fore
SplineSet
0 -256 m 1
 256 256 l 1
 512 -256 l 1
 0 -256 l 1
EndSplineSet
Validated: 1
EndChar

StartChar: u1D571
Encoding: 120177 120177 505
Width: 640
GlyphClass: 2
Flags: MW
LayerCount: 2
Fore
SplineSet
0 -256 m 1
 256 256 l 1
 512 -256 l 1
 0 -256 l 1
EndSplineSet
Validated: 1
EndChar

StartChar: u1D572
Encoding: 120178 120178 506
Width: 640
GlyphClass: 2
Flags: MW
LayerCount: 2
Fore
SplineSet
0 -256 m 1
 256 256 l 1
 512 -256 l 1
 0 -256 l 1
EndSplineSet
Validated: 1
EndChar

StartChar: u1D573
Encoding: 120179 120179 507
Width: 640
GlyphClass: 2
Flags: MW
LayerCount: 2
Fore
SplineSet
0 -256 m 1
 256 256 l 1
 512 -256 l 1
 0 -256 l 1
EndSplineSet
Validated: 1
EndChar

StartChar: u1D574
Encoding: 120180 120180 508
Width: 640
GlyphClass: 2
Flags: MW
LayerCount: 2
Fore
SplineSet
0 -256 m 1
 256 256 l 1
 512 -256 l 1
 0 -256 l 1
EndSplineSet
Validated: 1
EndChar

StartChar: u1D575
Encoding: 120181 120181 509
Width: 640
GlyphClass: 2
Flags: MW
LayerCount: 2
Fore
SplineSet
0 -256 m 1
 256 256 l 1
 512 -256 l 1
 0 -256 l 1
EndSplineSet
Validated: 1
EndChar

StartChar: u1D576
Encoding: 120182 120182 510
Width: 640
GlyphClass: 2
Flags: MW
LayerCount: 2
Fore
SplineSet
0 -256 m 1
 256 256 l 1
 512 -256 l 1
 0 -256 l 1
EndSplineSet
Validated: 1
EndChar

StartChar: u1D577
Encoding: 120183 120183 511
Width: 640
GlyphClass: 2
Flags: MW
LayerCount: 2
Fore
SplineSet
0 -256 m 1
 256 256 l 1
 512 -256 l 1
 0 -256 l 1
EndSplineSet
Validated: 1
EndChar

StartChar: u1D578
Encoding: 120184 120184 512
Width: 640
GlyphClass: 2
Flags: MW
LayerCount: 2
Fore
SplineSet
0 -256 m 1
 256 256 l 1
 512 -256 l 1
 0 -256 l 1
EndSplineSet
Validated: 1
EndChar

StartChar: u1D579
Encoding: 120185 120185 513
Width: 640
GlyphClass: 2
Flags: MW
LayerCount: 2
Fore
SplineSet
0 -256 m 1
 256 256 l 1
 512 -256 l 1
 0 -256 l 1
EndSplineSet
Validated: 1
EndChar

StartChar: u1D57A
Encoding: 120186 120186 514
Width: 640
GlyphClass: 2
Flags: MW
LayerCount: 2
Fore
SplineSet
0 -256 m 1
 256 256 l 1
 512 -256 l 1
 0 -256 l 1
EndSplineSet
Validated: 1
EndChar

StartChar: u1D57B
Encoding: 120187 120187 515
Width: 640
GlyphClass: 2
Flags: MW
LayerCount: 2
Fore
SplineSet
0 -256 m 1
 256 256 l 1
 512 -256 l 1
 0 -256 l 1
EndSplineSet
Validated: 1
EndChar

StartChar: u1D57C
Encoding: 120188 120188 516
Width: 640
GlyphClass: 2
Flags: MW
LayerCount: 2
Fore
SplineSet
0 -256 m 1
 256 256 l 1
 512 -256 l 1
 0 -256 l 1
EndSplineSet
Validated: 1
EndChar

StartChar: u1D57D
Encoding: 120189 120189 517
Width: 640
GlyphClass: 2
Flags: MW
LayerCount: 2
Fore
SplineSet
0 -256 m 1
 256 256 l 1
 512 -256 l 1
 0 -256 l 1
EndSplineSet
Validated: 1
EndChar

StartChar: u1D57E
Encoding: 120190 120190 518
Width: 640
GlyphClass: 2
Flags: MW
LayerCount: 2
Fore
SplineSet
0 -256 m 1
 256 256 l 1
 512 -256 l 1
 0 -256 l 1
EndSplineSet
Validated: 1
EndChar

StartChar: u1D57F
Encoding: 120191 120191 519
Width: 640
GlyphClass: 2
Flags: MW
LayerCount: 2
Fore
SplineSet
0 -256 m 1
 256 256 l 1
 512 -256 l 1
 0 -256 l 1
EndSplineSet
Validated: 1
EndChar

StartChar: u1D580
Encoding: 120192 120192 520
Width: 640
GlyphClass: 2
Flags: MW
LayerCount: 2
Fore
SplineSet
0 -256 m 1
 256 256 l 1
 512 -256 l 1
 0 -256 l 1
EndSplineSet
Validated: 1
EndChar

StartChar: u1D581
Encoding: 120193 120193 521
Width: 640
GlyphClass: 2
Flags: MW
LayerCount: 2
Fore
SplineSet
0 -256 m 1
 256 256 l 1
 512 -256 l 1
 0 -256 l 1
EndSplineSet
Validated: 1
EndChar

StartChar: u1D582
Encoding: 120194 120194 522
Width: 640
GlyphClass: 2
Flags: MW
LayerCount: 2
Fore
SplineSet
0 -256 m 1
 256 256 l 1
 512 -256 l 1
 0 -256 l 1
EndSplineSet
Validated: 1
EndChar

StartChar: u1D583
Encoding: 120195 120195 523
Width: 640
GlyphClass: 2
Flags: MW
LayerCount: 2
Fore
SplineSet
0 -256 m 1
 256 256 l 1
 512 -256 l 1
 0 -256 l 1
EndSplineSet
Validated: 1
EndChar

StartChar: u1D584
Encoding: 120196 120196 524
Width: 640
GlyphClass: 2
Flags: MW
LayerCount: 2
Fore
SplineSet
0 -256 m 1
 256 256 l 1
 512 -256 l 1
 0 -256 l 1
EndSplineSet
Validated: 1
EndChar

StartChar: u1D585
Encoding: 120197 120197 525
Width: 640
GlyphClass: 2
Flags: MW
LayerCount: 2
Fore
SplineSet
0 -256 m 1
 256 256 l 1
 512 -256 l 1
 0 -256 l 1
EndSplineSet
Validated: 1
EndChar

StartChar: u1D586
Encoding: 120198 120198 526
Width: 640
GlyphClass: 2
Flags: MW
LayerCount: 2
Fore
SplineSet
0 -256 m 1
 256 256 l 1
 512 -256 l 1
 0 -256 l 1
EndSplineSet
Validated: 1
EndChar

StartChar: u1D587
Encoding: 120199 120199 527
Width: 640
GlyphClass: 2
Flags: MW
LayerCount: 2
Fore
SplineSet
0 -256 m 1
 256 256 l 1
 512 -256 l 1
 0 -256 l 1
EndSplineSet
Validated: 1
EndChar

StartChar: u1D588
Encoding: 120200 120200 528
Width: 640
GlyphClass: 2
Flags: MW
LayerCount: 2
Fore
SplineSet
0 -256 m 1
 256 256 l 1
 512 -256 l 1
 0 -256 l 1
EndSplineSet
Validated: 1
EndChar

StartChar: u1D589
Encoding: 120201 120201 529
Width: 640
GlyphClass: 2
Flags: MW
LayerCount: 2
Fore
SplineSet
0 -256 m 1
 256 256 l 1
 512 -256 l 1
 0 -256 l 1
EndSplineSet
Validated: 1
EndChar

StartChar: u1D58A
Encoding: 120202 120202 530
Width: 640
GlyphClass: 2
Flags: MW
LayerCount: 2
Fore
SplineSet
0 -256 m 1
 256 256 l 1
 512 -256 l 1
 0 -256 l 1
EndSplineSet
Validated: 1
EndChar

StartChar: u1D58B
Encoding: 120203 120203 531
Width: 640
GlyphClass: 2
Flags: MW
LayerCount: 2
Fore
SplineSet
0 -256 m 1
 256 256 l 1
 512 -256 l 1
 0 -256 l 1
EndSplineSet
Validated: 1
EndChar

StartChar: u1D58C
Encoding: 120204 120204 532
Width: 640
GlyphClass: 2
Flags: MW
LayerCount: 2
Fore
SplineSet
0 -256 m 1
 256 256 l 1
 512 -256 l 1
 0 -256 l 1
EndSplineSet
Validated: 1
EndChar

StartChar: u1D58D
Encoding: 120205 120205 533
Width: 640
GlyphClass: 2
Flags: MW
LayerCount: 2
Fore
SplineSet
0 -256 m 1
 256 256 l 1
 512 -256 l 1
 0 -256 l 1
EndSplineSet
Validated: 1
EndChar

StartChar: u1D58E
Encoding: 120206 120206 534
Width: 640
GlyphClass: 2
Flags: MW
LayerCount: 2
Fore
SplineSet
0 -256 m 1
 256 256 l 1
 512 -256 l 1
 0 -256 l 1
EndSplineSet
Validated: 1
EndChar

StartChar: u1D58F
Encoding: 120207 120207 535
Width: 640
GlyphClass: 2
Flags: MW
LayerCount: 2
Fore
SplineSet
0 -256 m 1
 256 256 l 1
 512 -256 l 1
 0 -256 l 1
EndSplineSet
Validated: 1
EndChar

StartChar: u1D590
Encoding: 120208 120208 536
Width: 640
GlyphClass: 2
Flags: MW
LayerCount: 2
Fore
SplineSet
0 -256 m 1
 256 256 l 1
 512 -256 l 1
 0 -256 l 1
EndSplineSet
Validated: 1
EndChar

StartChar: u1D591
Encoding: 120209 120209 537
Width: 640
GlyphClass: 2
Flags: MW
LayerCount: 2
Fore
SplineSet
0 -256 m 1
 256 256 l 1
 512 -256 l 1
 0 -256 l 1
EndSplineSet
Validated: 1
EndChar

StartChar: u1D592
Encoding: 120210 120210 538
Width: 640
GlyphClass: 2
Flags: MW
LayerCount: 2
Fore
SplineSet
0 -256 m 1
 256 256 l 1
 512 -256 l 1
 0 -256 l 1
EndSplineSet
Validated: 1
EndChar

StartChar: u1D593
Encoding: 120211 120211 539
Width: 640
GlyphClass: 2
Flags: MW
LayerCount: 2
Fore
SplineSet
0 -256 m 1
 256 256 l 1
 512 -256 l 1
 0 -256 l 1
EndSplineSet
Validated: 1
EndChar

StartChar: u1D594
Encoding: 120212 120212 540
Width: 640
GlyphClass: 2
Flags: MW
LayerCount: 2
Fore
SplineSet
0 -256 m 1
 256 256 l 1
 512 -256 l 1
 0 -256 l 1
EndSplineSet
Validated: 1
EndChar

StartChar: u1D595
Encoding: 120213 120213 541
Width: 640
GlyphClass: 2
Flags: MW
LayerCount: 2
Fore
SplineSet
0 -256 m 1
 256 256 l 1
 512 -256 l 1
 0 -256 l 1
EndSplineSet
Validated: 1
EndChar

StartChar: u1D596
Encoding: 120214 120214 542
Width: 640
GlyphClass: 2
Flags: MW
LayerCount: 2
Fore
SplineSet
0 -256 m 1
 256 256 l 1
 512 -256 l 1
 0 -256 l 1
EndSplineSet
Validated: 1
EndChar

StartChar: u1D597
Encoding: 120215 120215 543
Width: 640
GlyphClass: 2
Flags: MW
LayerCount: 2
Fore
SplineSet
0 -256 m 1
 256 256 l 1
 512 -256 l 1
 0 -256 l 1
EndSplineSet
Validated: 1
EndChar

StartChar: u1D598
Encoding: 120216 120216 544
Width: 640
GlyphClass: 2
Flags: MW
LayerCount: 2
Fore
SplineSet
0 -256 m 1
 256 256 l 1
 512 -256 l 1
 0 -256 l 1
EndSplineSet
Validated: 1
EndChar

StartChar: u1D599
Encoding: 120217 120217 545
Width: 640
GlyphClass: 2
Flags: MW
LayerCount: 2
Fore
SplineSet
0 -256 m 1
 256 256 l 1
 512 -256 l 1
 0 -256 l 1
EndSplineSet
Validated: 1
EndChar

StartChar: u1D59A
Encoding: 120218 120218 546
Width: 640
GlyphClass: 2
Flags: MW
LayerCount: 2
Fore
SplineSet
0 -256 m 1
 256 256 l 1
 512 -256 l 1
 0 -256 l 1
EndSplineSet
Validated: 1
EndChar

StartChar: u1D59B
Encoding: 120219 120219 547
Width: 640
GlyphClass: 2
Flags: MW
LayerCount: 2
Fore
SplineSet
0 -256 m 1
 256 256 l 1
 512 -256 l 1
 0 -256 l 1
EndSplineSet
Validated: 1
EndChar

StartChar: u1D59C
Encoding: 120220 120220 548
Width: 640
GlyphClass: 2
Flags: MW
LayerCount: 2
Fore
SplineSet
0 -256 m 1
 256 256 l 1
 512 -256 l 1
 0 -256 l 1
EndSplineSet
Validated: 1
EndChar

StartChar: u1D59D
Encoding: 120221 120221 549
Width: 640
GlyphClass: 2
Flags: MW
LayerCount: 2
Fore
SplineSet
0 -256 m 1
 256 256 l 1
 512 -256 l 1
 0 -256 l 1
EndSplineSet
Validated: 1
EndChar

StartChar: u1D59E
Encoding: 120222 120222 550
Width: 640
GlyphClass: 2
Flags: MW
LayerCount: 2
Fore
SplineSet
0 -256 m 1
 256 256 l 1
 512 -256 l 1
 0 -256 l 1
EndSplineSet
Validated: 1
EndChar

StartChar: u1D59F
Encoding: 120223 120223 551
Width: 640
GlyphClass: 2
Flags: MW
LayerCount: 2
Fore
SplineSet
0 -256 m 1
 256 256 l 1
 512 -256 l 1
 0 -256 l 1
EndSplineSet
Validated: 1
EndChar

StartChar: u1D5A0
Encoding: 120224 120224 552
Width: 1216
GlyphClass: 2
Flags: MW
LayerCount: 2
Fore
SplineSet
0 0 m 1
 0 312 200 448 512 448 c 1
 824 448 1024 312 1024 0 c 4
 1024 -312 824 -448 512 -448 c 0
 200 -448 0 -312 0 0 c 1
EndSplineSet
Validated: 1
EndChar

StartChar: u1D5A1
Encoding: 120225 120225 553
Width: 1216
GlyphClass: 2
Flags: MW
LayerCount: 2
Fore
SplineSet
0 0 m 1
 0 312 200 448 512 448 c 1
 824 448 1024 312 1024 0 c 4
 1024 -312 824 -448 512 -448 c 0
 200 -448 0 -312 0 0 c 1
EndSplineSet
Validated: 1
EndChar

StartChar: u1D5A2
Encoding: 120226 120226 554
Width: 1216
GlyphClass: 2
Flags: MW
LayerCount: 2
Fore
SplineSet
0 0 m 1
 0 312 200 448 512 448 c 1
 824 448 1024 312 1024 0 c 4
 1024 -312 824 -448 512 -448 c 0
 200 -448 0 -312 0 0 c 1
EndSplineSet
Validated: 1
EndChar

StartChar: u1D5A3
Encoding: 120227 120227 555
Width: 1216
GlyphClass: 2
Flags: MW
LayerCount: 2
Fore
SplineSet
0 0 m 1
 0 312 200 448 512 448 c 1
 824 448 1024 312 1024 0 c 4
 1024 -312 824 -448 512 -448 c 0
 200 -448 0 -312 0 0 c 1
EndSplineSet
Validated: 1
EndChar

StartChar: u1D5A4
Encoding: 120228 120228 556
Width: 1216
GlyphClass: 2
Flags: MW
LayerCount: 2
Fore
SplineSet
0 0 m 1
 0 312 200 448 512 448 c 1
 824 448 1024 312 1024 0 c 4
 1024 -312 824 -448 512 -448 c 0
 200 -448 0 -312 0 0 c 1
EndSplineSet
Validated: 1
EndChar

StartChar: u1D5A5
Encoding: 120229 120229 557
Width: 1216
GlyphClass: 2
Flags: MW
LayerCount: 2
Fore
SplineSet
0 0 m 1
 0 312 200 448 512 448 c 1
 824 448 1024 312 1024 0 c 4
 1024 -312 824 -448 512 -448 c 0
 200 -448 0 -312 0 0 c 1
EndSplineSet
Validated: 1
EndChar

StartChar: u1D5A6
Encoding: 120230 120230 558
Width: 1216
GlyphClass: 2
Flags: MW
LayerCount: 2
Fore
SplineSet
0 0 m 1
 0 312 200 448 512 448 c 1
 824 448 1024 312 1024 0 c 4
 1024 -312 824 -448 512 -448 c 0
 200 -448 0 -312 0 0 c 1
EndSplineSet
Validated: 1
EndChar

StartChar: u1D5A7
Encoding: 120231 120231 559
Width: 1216
GlyphClass: 2
Flags: MW
LayerCount: 2
Fore
SplineSet
0 0 m 1
 0 312 200 448 512 448 c 1
 824 448 1024 312 1024 0 c 4
 1024 -312 824 -448 512 -448 c 0
 200 -448 0 -312 0 0 c 1
EndSplineSet
Validated: 1
EndChar

StartChar: u1D5A8
Encoding: 120232 120232 560
Width: 1216
GlyphClass: 2
Flags: MW
LayerCount: 2
Fore
SplineSet
0 0 m 1
 0 312 200 448 512 448 c 1
 824 448 1024 312 1024 0 c 4
 1024 -312 824 -448 512 -448 c 0
 200 -448 0 -312 0 0 c 1
EndSplineSet
Validated: 1
EndChar

StartChar: u1D5A9
Encoding: 120233 120233 561
Width: 1216
GlyphClass: 2
Flags: MW
LayerCount: 2
Fore
SplineSet
0 0 m 1
 0 312 200 448 512 448 c 1
 824 448 1024 312 1024 0 c 4
 1024 -312 824 -448 512 -448 c 0
 200 -448 0 -312 0 0 c 1
EndSplineSet
Validated: 1
EndChar

StartChar: u1D5AA
Encoding: 120234 120234 562
Width: 1216
GlyphClass: 2
Flags: MW
LayerCount: 2
Fore
SplineSet
0 0 m 1
 0 312 200 448 512 448 c 1
 824 448 1024 312 1024 0 c 4
 1024 -312 824 -448 512 -448 c 0
 200 -448 0 -312 0 0 c 1
EndSplineSet
Validated: 1
EndChar

StartChar: u1D5AB
Encoding: 120235 120235 563
Width: 1216
GlyphClass: 2
Flags: MW
LayerCount: 2
Fore
SplineSet
0 0 m 1
 0 312 200 448 512 448 c 1
 824 448 1024 312 1024 0 c 4
 1024 -312 824 -448 512 -448 c 0
 200 -448 0 -312 0 0 c 1
EndSplineSet
Validated: 1
EndChar

StartChar: u1D5AC
Encoding: 120236 120236 564
Width: 1216
GlyphClass: 2
Flags: MW
LayerCount: 2
Fore
SplineSet
0 0 m 1
 0 312 200 448 512 448 c 1
 824 448 1024 312 1024 0 c 4
 1024 -312 824 -448 512 -448 c 0
 200 -448 0 -312 0 0 c 1
EndSplineSet
Validated: 1
EndChar

StartChar: u1D5AD
Encoding: 120237 120237 565
Width: 1216
GlyphClass: 2
Flags: MW
LayerCount: 2
Fore
SplineSet
0 0 m 1
 0 312 200 448 512 448 c 1
 824 448 1024 312 1024 0 c 4
 1024 -312 824 -448 512 -448 c 0
 200 -448 0 -312 0 0 c 1
EndSplineSet
Validated: 1
EndChar

StartChar: u1D5AE
Encoding: 120238 120238 566
Width: 1216
GlyphClass: 2
Flags: MW
LayerCount: 2
Fore
SplineSet
0 0 m 1
 0 312 200 448 512 448 c 1
 824 448 1024 312 1024 0 c 4
 1024 -312 824 -448 512 -448 c 0
 200 -448 0 -312 0 0 c 1
EndSplineSet
Validated: 1
EndChar

StartChar: u1D5AF
Encoding: 120239 120239 567
Width: 1216
GlyphClass: 2
Flags: MW
LayerCount: 2
Fore
SplineSet
0 0 m 1
 0 312 200 448 512 448 c 1
 824 448 1024 312 1024 0 c 4
 1024 -312 824 -448 512 -448 c 0
 200 -448 0 -312 0 0 c 1
EndSplineSet
Validated: 1
EndChar

StartChar: u1D5B0
Encoding: 120240 120240 568
Width: 1216
GlyphClass: 2
Flags: MW
LayerCount: 2
Fore
SplineSet
0 0 m 1
 0 312 200 448 512 448 c 1
 824 448 1024 312 1024 0 c 4
 1024 -312 824 -448 512 -448 c 0
 200 -448 0 -312 0 0 c 1
EndSplineSet
Validated: 1
EndChar

StartChar: u1D5B1
Encoding: 120241 120241 569
Width: 1216
GlyphClass: 2
Flags: MW
LayerCount: 2
Fore
SplineSet
0 0 m 1
 0 312 200 448 512 448 c 1
 824 448 1024 312 1024 0 c 4
 1024 -312 824 -448 512 -448 c 0
 200 -448 0 -312 0 0 c 1
EndSplineSet
Validated: 1
EndChar

StartChar: u1D5B2
Encoding: 120242 120242 570
Width: 1216
GlyphClass: 2
Flags: MW
LayerCount: 2
Fore
SplineSet
0 0 m 1
 0 312 200 448 512 448 c 1
 824 448 1024 312 1024 0 c 4
 1024 -312 824 -448 512 -448 c 0
 200 -448 0 -312 0 0 c 1
EndSplineSet
Validated: 1
EndChar

StartChar: u1D5B3
Encoding: 120243 120243 571
Width: 1216
GlyphClass: 2
Flags: MW
LayerCount: 2
Fore
SplineSet
0 0 m 1
 0 312 200 448 512 448 c 1
 824 448 1024 312 1024 0 c 4
 1024 -312 824 -448 512 -448 c 0
 200 -448 0 -312 0 0 c 1
EndSplineSet
Validated: 1
EndChar

StartChar: u1D5B4
Encoding: 120244 120244 572
Width: 1216
GlyphClass: 2
Flags: MW
LayerCount: 2
Fore
SplineSet
0 0 m 1
 0 312 200 448 512 448 c 1
 824 448 1024 312 1024 0 c 4
 1024 -312 824 -448 512 -448 c 0
 200 -448 0 -312 0 0 c 1
EndSplineSet
Validated: 1
EndChar

StartChar: u1D5B5
Encoding: 120245 120245 573
Width: 1216
GlyphClass: 2
Flags: MW
LayerCount: 2
Fore
SplineSet
0 0 m 1
 0 312 200 448 512 448 c 1
 824 448 1024 312 1024 0 c 4
 1024 -312 824 -448 512 -448 c 0
 200 -448 0 -312 0 0 c 1
EndSplineSet
Validated: 1
EndChar

StartChar: u1D5B6
Encoding: 120246 120246 574
Width: 1216
GlyphClass: 2
Flags: MW
LayerCount: 2
Fore
SplineSet
0 0 m 1
 0 312 200 448 512 448 c 1
 824 448 1024 312 1024 0 c 4
 1024 -312 824 -448 512 -448 c 0
 200 -448 0 -312 0 0 c 1
EndSplineSet
Validated: 1
EndChar

StartChar: u1D5B7
Encoding: 120247 120247 575
Width: 1216
GlyphClass: 2
Flags: MW
LayerCount: 2
Fore
SplineSet
0 0 m 1
 0 312 200 448 512 448 c 1
 824 448 1024 312 1024 0 c 4
 1024 -312 824 -448 512 -448 c 0
 200 -448 0 -312 0 0 c 1
EndSplineSet
Validated: 1
EndChar

StartChar: u1D5B8
Encoding: 120248 120248 576
Width: 1216
GlyphClass: 2
Flags: MW
LayerCount: 2
Fore
SplineSet
0 0 m 1
 0 312 200 448 512 448 c 1
 824 448 1024 312 1024 0 c 4
 1024 -312 824 -448 512 -448 c 0
 200 -448 0 -312 0 0 c 1
EndSplineSet
Validated: 1
EndChar

StartChar: u1D5B9
Encoding: 120249 120249 577
Width: 1216
GlyphClass: 2
Flags: MW
LayerCount: 2
Fore
SplineSet
0 0 m 1
 0 312 200 448 512 448 c 1
 824 448 1024 312 1024 0 c 4
 1024 -312 824 -448 512 -448 c 0
 200 -448 0 -312 0 0 c 1
EndSplineSet
Validated: 1
EndChar

StartChar: u1D5BA
Encoding: 120250 120250 578
Width: 1216
GlyphClass: 2
Flags: MW
LayerCount: 2
Fore
SplineSet
0 0 m 1
 0 312 200 448 512 448 c 1
 824 448 1024 312 1024 0 c 4
 1024 -312 824 -448 512 -448 c 0
 200 -448 0 -312 0 0 c 1
EndSplineSet
Validated: 1
EndChar

StartChar: u1D5BB
Encoding: 120251 120251 579
Width: 1216
GlyphClass: 2
Flags: MW
LayerCount: 2
Fore
SplineSet
0 0 m 1
 0 312 200 448 512 448 c 1
 824 448 1024 312 1024 0 c 4
 1024 -312 824 -448 512 -448 c 0
 200 -448 0 -312 0 0 c 1
EndSplineSet
Validated: 1
EndChar

StartChar: u1D5BC
Encoding: 120252 120252 580
Width: 1216
GlyphClass: 2
Flags: MW
LayerCount: 2
Fore
SplineSet
0 0 m 1
 0 312 200 448 512 448 c 1
 824 448 1024 312 1024 0 c 4
 1024 -312 824 -448 512 -448 c 0
 200 -448 0 -312 0 0 c 1
EndSplineSet
Validated: 1
EndChar

StartChar: u1D5BD
Encoding: 120253 120253 581
Width: 1216
GlyphClass: 2
Flags: MW
LayerCount: 2
Fore
SplineSet
0 0 m 1
 0 312 200 448 512 448 c 1
 824 448 1024 312 1024 0 c 4
 1024 -312 824 -448 512 -448 c 0
 200 -448 0 -312 0 0 c 1
EndSplineSet
Validated: 1
EndChar

StartChar: u1D5BE
Encoding: 120254 120254 582
Width: 1216
GlyphClass: 2
Flags: MW
LayerCount: 2
Fore
SplineSet
0 0 m 1
 0 312 200 448 512 448 c 1
 824 448 1024 312 1024 0 c 4
 1024 -312 824 -448 512 -448 c 0
 200 -448 0 -312 0 0 c 1
EndSplineSet
Validated: 1
EndChar

StartChar: u1D5BF
Encoding: 120255 120255 583
Width: 1216
GlyphClass: 2
Flags: MW
LayerCount: 2
Fore
SplineSet
0 0 m 1
 0 312 200 448 512 448 c 1
 824 448 1024 312 1024 0 c 4
 1024 -312 824 -448 512 -448 c 0
 200 -448 0 -312 0 0 c 1
EndSplineSet
Validated: 1
EndChar

StartChar: u1D5C0
Encoding: 120256 120256 584
Width: 1216
GlyphClass: 2
Flags: MW
LayerCount: 2
Fore
SplineSet
0 0 m 1
 0 312 200 448 512 448 c 1
 824 448 1024 312 1024 0 c 4
 1024 -312 824 -448 512 -448 c 0
 200 -448 0 -312 0 0 c 1
EndSplineSet
Validated: 1
EndChar

StartChar: u1D5C1
Encoding: 120257 120257 585
Width: 1216
GlyphClass: 2
Flags: MW
LayerCount: 2
Fore
SplineSet
0 0 m 1
 0 312 200 448 512 448 c 1
 824 448 1024 312 1024 0 c 4
 1024 -312 824 -448 512 -448 c 0
 200 -448 0 -312 0 0 c 1
EndSplineSet
Validated: 1
EndChar

StartChar: u1D5C2
Encoding: 120258 120258 586
Width: 1216
GlyphClass: 2
Flags: MW
LayerCount: 2
Fore
SplineSet
0 0 m 1
 0 312 200 448 512 448 c 1
 824 448 1024 312 1024 0 c 4
 1024 -312 824 -448 512 -448 c 0
 200 -448 0 -312 0 0 c 1
EndSplineSet
Validated: 1
EndChar

StartChar: u1D5C3
Encoding: 120259 120259 587
Width: 1216
GlyphClass: 2
Flags: MW
LayerCount: 2
Fore
SplineSet
0 0 m 1
 0 312 200 448 512 448 c 1
 824 448 1024 312 1024 0 c 4
 1024 -312 824 -448 512 -448 c 0
 200 -448 0 -312 0 0 c 1
EndSplineSet
Validated: 1
EndChar

StartChar: u1D5C4
Encoding: 120260 120260 588
Width: 1216
GlyphClass: 2
Flags: MW
LayerCount: 2
Fore
SplineSet
0 0 m 1
 0 312 200 448 512 448 c 1
 824 448 1024 312 1024 0 c 4
 1024 -312 824 -448 512 -448 c 0
 200 -448 0 -312 0 0 c 1
EndSplineSet
Validated: 1
EndChar

StartChar: u1D5C5
Encoding: 120261 120261 589
Width: 1216
GlyphClass: 2
Flags: MW
LayerCount: 2
Fore
SplineSet
0 0 m 1
 0 312 200 448 512 448 c 1
 824 448 1024 312 1024 0 c 4
 1024 -312 824 -448 512 -448 c 0
 200 -448 0 -312 0 0 c 1
EndSplineSet
Validated: 1
EndChar

StartChar: u1D5C6
Encoding: 120262 120262 590
Width: 1216
GlyphClass: 2
Flags: MW
LayerCount: 2
Fore
SplineSet
0 0 m 1
 0 312 200 448 512 448 c 1
 824 448 1024 312 1024 0 c 4
 1024 -312 824 -448 512 -448 c 0
 200 -448 0 -312 0 0 c 1
EndSplineSet
Validated: 1
EndChar

StartChar: u1D5C7
Encoding: 120263 120263 591
Width: 1216
GlyphClass: 2
Flags: MW
LayerCount: 2
Fore
SplineSet
0 0 m 1
 0 312 200 448 512 448 c 1
 824 448 1024 312 1024 0 c 4
 1024 -312 824 -448 512 -448 c 0
 200 -448 0 -312 0 0 c 1
EndSplineSet
Validated: 1
EndChar

StartChar: u1D5C8
Encoding: 120264 120264 592
Width: 1216
GlyphClass: 2
Flags: MW
LayerCount: 2
Fore
SplineSet
0 0 m 1
 0 312 200 448 512 448 c 1
 824 448 1024 312 1024 0 c 4
 1024 -312 824 -448 512 -448 c 0
 200 -448 0 -312 0 0 c 1
EndSplineSet
Validated: 1
EndChar

StartChar: u1D5C9
Encoding: 120265 120265 593
Width: 1216
GlyphClass: 2
Flags: MW
LayerCount: 2
Fore
SplineSet
0 0 m 1
 0 312 200 448 512 448 c 1
 824 448 1024 312 1024 0 c 4
 1024 -312 824 -448 512 -448 c 0
 200 -448 0 -312 0 0 c 1
EndSplineSet
Validated: 1
EndChar

StartChar: u1D5CA
Encoding: 120266 120266 594
Width: 1216
GlyphClass: 2
Flags: MW
LayerCount: 2
Fore
SplineSet
0 0 m 1
 0 312 200 448 512 448 c 1
 824 448 1024 312 1024 0 c 4
 1024 -312 824 -448 512 -448 c 0
 200 -448 0 -312 0 0 c 1
EndSplineSet
Validated: 1
EndChar

StartChar: u1D5CB
Encoding: 120267 120267 595
Width: 1216
GlyphClass: 2
Flags: MW
LayerCount: 2
Fore
SplineSet
0 0 m 1
 0 312 200 448 512 448 c 1
 824 448 1024 312 1024 0 c 4
 1024 -312 824 -448 512 -448 c 0
 200 -448 0 -312 0 0 c 1
EndSplineSet
Validated: 1
EndChar

StartChar: u1D5CC
Encoding: 120268 120268 596
Width: 1216
GlyphClass: 2
Flags: MW
LayerCount: 2
Fore
SplineSet
0 0 m 1
 0 312 200 448 512 448 c 1
 824 448 1024 312 1024 0 c 4
 1024 -312 824 -448 512 -448 c 0
 200 -448 0 -312 0 0 c 1
EndSplineSet
Validated: 1
EndChar

StartChar: u1D5CD
Encoding: 120269 120269 597
Width: 1216
GlyphClass: 2
Flags: MW
LayerCount: 2
Fore
SplineSet
0 0 m 1
 0 312 200 448 512 448 c 1
 824 448 1024 312 1024 0 c 4
 1024 -312 824 -448 512 -448 c 0
 200 -448 0 -312 0 0 c 1
EndSplineSet
Validated: 1
EndChar

StartChar: u1D5CE
Encoding: 120270 120270 598
Width: 1216
GlyphClass: 2
Flags: MW
LayerCount: 2
Fore
SplineSet
0 0 m 1
 0 312 200 448 512 448 c 1
 824 448 1024 312 1024 0 c 4
 1024 -312 824 -448 512 -448 c 0
 200 -448 0 -312 0 0 c 1
EndSplineSet
Validated: 1
EndChar

StartChar: u1D5CF
Encoding: 120271 120271 599
Width: 1216
GlyphClass: 2
Flags: MW
LayerCount: 2
Fore
SplineSet
0 0 m 1
 0 312 200 448 512 448 c 1
 824 448 1024 312 1024 0 c 4
 1024 -312 824 -448 512 -448 c 0
 200 -448 0 -312 0 0 c 1
EndSplineSet
Validated: 1
EndChar

StartChar: u1D5D0
Encoding: 120272 120272 600
Width: 1216
GlyphClass: 2
Flags: MW
LayerCount: 2
Fore
SplineSet
0 0 m 1
 0 312 200 448 512 448 c 1
 824 448 1024 312 1024 0 c 4
 1024 -312 824 -448 512 -448 c 0
 200 -448 0 -312 0 0 c 1
EndSplineSet
Validated: 1
EndChar

StartChar: u1D5D1
Encoding: 120273 120273 601
Width: 1216
GlyphClass: 2
Flags: MW
LayerCount: 2
Fore
SplineSet
0 0 m 1
 0 312 200 448 512 448 c 1
 824 448 1024 312 1024 0 c 4
 1024 -312 824 -448 512 -448 c 0
 200 -448 0 -312 0 0 c 1
EndSplineSet
Validated: 1
EndChar

StartChar: u1D5D2
Encoding: 120274 120274 602
Width: 1216
GlyphClass: 2
Flags: MW
LayerCount: 2
Fore
SplineSet
0 0 m 1
 0 312 200 448 512 448 c 1
 824 448 1024 312 1024 0 c 4
 1024 -312 824 -448 512 -448 c 0
 200 -448 0 -312 0 0 c 1
EndSplineSet
Validated: 1
EndChar

StartChar: u1D5D3
Encoding: 120275 120275 603
Width: 1216
GlyphClass: 2
Flags: MW
LayerCount: 2
Fore
SplineSet
0 0 m 1
 0 312 200 448 512 448 c 1
 824 448 1024 312 1024 0 c 4
 1024 -312 824 -448 512 -448 c 0
 200 -448 0 -312 0 0 c 1
EndSplineSet
Validated: 1
EndChar

StartChar: u1D5D4
Encoding: 120276 120276 604
Width: 704
GlyphClass: 2
Flags: MW
LayerCount: 2
Fore
SplineSet
0 0 m 0
 0 256 0 448 256 448 c 0
 512 448 512 256 512 0 c 0
 512 -256 512 -448 256 -448 c 0
 0 -448 0 -256 0 0 c 0
EndSplineSet
Validated: 1
EndChar

StartChar: u1D5D5
Encoding: 120277 120277 605
Width: 704
GlyphClass: 2
Flags: MW
LayerCount: 2
Fore
SplineSet
0 0 m 0
 0 256 0 448 256 448 c 0
 512 448 512 256 512 0 c 0
 512 -256 512 -448 256 -448 c 0
 0 -448 0 -256 0 0 c 0
EndSplineSet
Validated: 1
EndChar

StartChar: u1D5D6
Encoding: 120278 120278 606
Width: 704
GlyphClass: 2
Flags: MW
LayerCount: 2
Fore
SplineSet
0 0 m 0
 0 256 0 448 256 448 c 0
 512 448 512 256 512 0 c 0
 512 -256 512 -448 256 -448 c 0
 0 -448 0 -256 0 0 c 0
EndSplineSet
Validated: 1
EndChar

StartChar: u1D5D7
Encoding: 120279 120279 607
Width: 704
GlyphClass: 2
Flags: MW
LayerCount: 2
Fore
SplineSet
0 0 m 0
 0 256 0 448 256 448 c 0
 512 448 512 256 512 0 c 0
 512 -256 512 -448 256 -448 c 0
 0 -448 0 -256 0 0 c 0
EndSplineSet
Validated: 1
EndChar

StartChar: u1D5D8
Encoding: 120280 120280 608
Width: 704
GlyphClass: 2
Flags: MW
LayerCount: 2
Fore
SplineSet
0 0 m 0
 0 256 0 448 256 448 c 0
 512 448 512 256 512 0 c 0
 512 -256 512 -448 256 -448 c 0
 0 -448 0 -256 0 0 c 0
EndSplineSet
Validated: 1
EndChar

StartChar: u1D5D9
Encoding: 120281 120281 609
Width: 704
GlyphClass: 2
Flags: MW
LayerCount: 2
Fore
SplineSet
0 0 m 0
 0 256 0 448 256 448 c 0
 512 448 512 256 512 0 c 0
 512 -256 512 -448 256 -448 c 0
 0 -448 0 -256 0 0 c 0
EndSplineSet
Validated: 1
EndChar

StartChar: u1D5DA
Encoding: 120282 120282 610
Width: 704
GlyphClass: 2
Flags: MW
LayerCount: 2
Fore
SplineSet
0 0 m 0
 0 256 0 448 256 448 c 0
 512 448 512 256 512 0 c 0
 512 -256 512 -448 256 -448 c 0
 0 -448 0 -256 0 0 c 0
EndSplineSet
Validated: 1
EndChar

StartChar: u1D5DB
Encoding: 120283 120283 611
Width: 704
GlyphClass: 2
Flags: MW
LayerCount: 2
Fore
SplineSet
0 0 m 0
 0 256 0 448 256 448 c 0
 512 448 512 256 512 0 c 0
 512 -256 512 -448 256 -448 c 0
 0 -448 0 -256 0 0 c 0
EndSplineSet
Validated: 1
EndChar

StartChar: u1D5DC
Encoding: 120284 120284 612
Width: 704
GlyphClass: 2
Flags: MW
LayerCount: 2
Fore
SplineSet
0 0 m 0
 0 256 0 448 256 448 c 0
 512 448 512 256 512 0 c 0
 512 -256 512 -448 256 -448 c 0
 0 -448 0 -256 0 0 c 0
EndSplineSet
Validated: 1
EndChar

StartChar: u1D5DD
Encoding: 120285 120285 613
Width: 704
GlyphClass: 2
Flags: MW
LayerCount: 2
Fore
SplineSet
0 0 m 0
 0 256 0 448 256 448 c 0
 512 448 512 256 512 0 c 0
 512 -256 512 -448 256 -448 c 0
 0 -448 0 -256 0 0 c 0
EndSplineSet
Validated: 1
EndChar

StartChar: u1D5DE
Encoding: 120286 120286 614
Width: 704
GlyphClass: 2
Flags: MW
LayerCount: 2
Fore
SplineSet
0 0 m 0
 0 256 0 448 256 448 c 0
 512 448 512 256 512 0 c 0
 512 -256 512 -448 256 -448 c 0
 0 -448 0 -256 0 0 c 0
EndSplineSet
Validated: 1
EndChar

StartChar: u1D5DF
Encoding: 120287 120287 615
Width: 704
GlyphClass: 2
Flags: MW
LayerCount: 2
Fore
SplineSet
0 0 m 0
 0 256 0 448 256 448 c 0
 512 448 512 256 512 0 c 0
 512 -256 512 -448 256 -448 c 0
 0 -448 0 -256 0 0 c 0
EndSplineSet
Validated: 1
EndChar

StartChar: u1D5E0
Encoding: 120288 120288 616
Width: 704
GlyphClass: 2
Flags: MW
LayerCount: 2
Fore
SplineSet
0 0 m 0
 0 256 0 448 256 448 c 0
 512 448 512 256 512 0 c 0
 512 -256 512 -448 256 -448 c 0
 0 -448 0 -256 0 0 c 0
EndSplineSet
Validated: 1
EndChar

StartChar: u1D5E1
Encoding: 120289 120289 617
Width: 704
GlyphClass: 2
Flags: MW
LayerCount: 2
Fore
SplineSet
0 0 m 0
 0 256 0 448 256 448 c 0
 512 448 512 256 512 0 c 0
 512 -256 512 -448 256 -448 c 0
 0 -448 0 -256 0 0 c 0
EndSplineSet
Validated: 1
EndChar

StartChar: u1D5E2
Encoding: 120290 120290 618
Width: 704
GlyphClass: 2
Flags: MW
LayerCount: 2
Fore
SplineSet
0 0 m 0
 0 256 0 448 256 448 c 0
 512 448 512 256 512 0 c 0
 512 -256 512 -448 256 -448 c 0
 0 -448 0 -256 0 0 c 0
EndSplineSet
Validated: 1
EndChar

StartChar: u1D5E3
Encoding: 120291 120291 619
Width: 704
GlyphClass: 2
Flags: MW
LayerCount: 2
Fore
SplineSet
0 0 m 0
 0 256 0 448 256 448 c 0
 512 448 512 256 512 0 c 0
 512 -256 512 -448 256 -448 c 0
 0 -448 0 -256 0 0 c 0
EndSplineSet
Validated: 1
EndChar

StartChar: u1D5E4
Encoding: 120292 120292 620
Width: 704
GlyphClass: 2
Flags: MW
LayerCount: 2
Fore
SplineSet
0 0 m 0
 0 256 0 448 256 448 c 0
 512 448 512 256 512 0 c 0
 512 -256 512 -448 256 -448 c 0
 0 -448 0 -256 0 0 c 0
EndSplineSet
Validated: 1
EndChar

StartChar: u1D5E5
Encoding: 120293 120293 621
Width: 704
GlyphClass: 2
Flags: MW
LayerCount: 2
Fore
SplineSet
0 0 m 0
 0 256 0 448 256 448 c 0
 512 448 512 256 512 0 c 0
 512 -256 512 -448 256 -448 c 0
 0 -448 0 -256 0 0 c 0
EndSplineSet
Validated: 1
EndChar

StartChar: u1D5E6
Encoding: 120294 120294 622
Width: 704
GlyphClass: 2
Flags: MW
LayerCount: 2
Fore
SplineSet
0 0 m 0
 0 256 0 448 256 448 c 0
 512 448 512 256 512 0 c 0
 512 -256 512 -448 256 -448 c 0
 0 -448 0 -256 0 0 c 0
EndSplineSet
Validated: 1
EndChar

StartChar: u1D5E7
Encoding: 120295 120295 623
Width: 704
GlyphClass: 2
Flags: MW
LayerCount: 2
Fore
SplineSet
0 0 m 0
 0 256 0 448 256 448 c 0
 512 448 512 256 512 0 c 0
 512 -256 512 -448 256 -448 c 0
 0 -448 0 -256 0 0 c 0
EndSplineSet
Validated: 1
EndChar

StartChar: u1D5E8
Encoding: 120296 120296 624
Width: 704
GlyphClass: 2
Flags: MW
LayerCount: 2
Fore
SplineSet
0 0 m 0
 0 256 0 448 256 448 c 0
 512 448 512 256 512 0 c 0
 512 -256 512 -448 256 -448 c 0
 0 -448 0 -256 0 0 c 0
EndSplineSet
Validated: 1
EndChar

StartChar: u1D5E9
Encoding: 120297 120297 625
Width: 704
GlyphClass: 2
Flags: MW
LayerCount: 2
Fore
SplineSet
0 0 m 0
 0 256 0 448 256 448 c 0
 512 448 512 256 512 0 c 0
 512 -256 512 -448 256 -448 c 0
 0 -448 0 -256 0 0 c 0
EndSplineSet
Validated: 1
EndChar

StartChar: u1D5EA
Encoding: 120298 120298 626
Width: 704
GlyphClass: 2
Flags: MW
LayerCount: 2
Fore
SplineSet
0 0 m 0
 0 256 0 448 256 448 c 0
 512 448 512 256 512 0 c 0
 512 -256 512 -448 256 -448 c 0
 0 -448 0 -256 0 0 c 0
EndSplineSet
Validated: 1
EndChar

StartChar: u1D5EB
Encoding: 120299 120299 627
Width: 704
GlyphClass: 2
Flags: MW
LayerCount: 2
Fore
SplineSet
0 0 m 0
 0 256 0 448 256 448 c 0
 512 448 512 256 512 0 c 0
 512 -256 512 -448 256 -448 c 0
 0 -448 0 -256 0 0 c 0
EndSplineSet
Validated: 1
EndChar

StartChar: u1D5EC
Encoding: 120300 120300 628
Width: 704
GlyphClass: 2
Flags: MW
LayerCount: 2
Fore
SplineSet
0 0 m 0
 0 256 0 448 256 448 c 0
 512 448 512 256 512 0 c 0
 512 -256 512 -448 256 -448 c 0
 0 -448 0 -256 0 0 c 0
EndSplineSet
Validated: 1
EndChar

StartChar: u1D5ED
Encoding: 120301 120301 629
Width: 704
GlyphClass: 2
Flags: MW
LayerCount: 2
Fore
SplineSet
0 0 m 0
 0 256 0 448 256 448 c 0
 512 448 512 256 512 0 c 0
 512 -256 512 -448 256 -448 c 0
 0 -448 0 -256 0 0 c 0
EndSplineSet
Validated: 1
EndChar

StartChar: u1D5EE
Encoding: 120302 120302 630
Width: 704
GlyphClass: 2
Flags: MW
LayerCount: 2
Fore
SplineSet
0 0 m 0
 0 256 0 448 256 448 c 0
 512 448 512 256 512 0 c 0
 512 -256 512 -448 256 -448 c 0
 0 -448 0 -256 0 0 c 0
EndSplineSet
Validated: 1
EndChar

StartChar: u1D5EF
Encoding: 120303 120303 631
Width: 704
GlyphClass: 2
Flags: MW
LayerCount: 2
Fore
SplineSet
0 0 m 0
 0 256 0 448 256 448 c 0
 512 448 512 256 512 0 c 0
 512 -256 512 -448 256 -448 c 0
 0 -448 0 -256 0 0 c 0
EndSplineSet
Validated: 1
EndChar

StartChar: u1D5F0
Encoding: 120304 120304 632
Width: 704
GlyphClass: 2
Flags: MW
LayerCount: 2
Fore
SplineSet
0 0 m 0
 0 256 0 448 256 448 c 0
 512 448 512 256 512 0 c 0
 512 -256 512 -448 256 -448 c 0
 0 -448 0 -256 0 0 c 0
EndSplineSet
Validated: 1
EndChar

StartChar: u1D5F1
Encoding: 120305 120305 633
Width: 704
GlyphClass: 2
Flags: MW
LayerCount: 2
Fore
SplineSet
0 0 m 0
 0 256 0 448 256 448 c 0
 512 448 512 256 512 0 c 0
 512 -256 512 -448 256 -448 c 0
 0 -448 0 -256 0 0 c 0
EndSplineSet
Validated: 1
EndChar

StartChar: u1D5F2
Encoding: 120306 120306 634
Width: 704
GlyphClass: 2
Flags: MW
LayerCount: 2
Fore
SplineSet
0 0 m 0
 0 256 0 448 256 448 c 0
 512 448 512 256 512 0 c 0
 512 -256 512 -448 256 -448 c 0
 0 -448 0 -256 0 0 c 0
EndSplineSet
Validated: 1
EndChar

StartChar: u1D5F3
Encoding: 120307 120307 635
Width: 704
GlyphClass: 2
Flags: MW
LayerCount: 2
Fore
SplineSet
0 0 m 0
 0 256 0 448 256 448 c 0
 512 448 512 256 512 0 c 0
 512 -256 512 -448 256 -448 c 0
 0 -448 0 -256 0 0 c 0
EndSplineSet
Validated: 1
EndChar

StartChar: u1D5F4
Encoding: 120308 120308 636
Width: 704
GlyphClass: 2
Flags: MW
LayerCount: 2
Fore
SplineSet
0 0 m 0
 0 256 0 448 256 448 c 0
 512 448 512 256 512 0 c 0
 512 -256 512 -448 256 -448 c 0
 0 -448 0 -256 0 0 c 0
EndSplineSet
Validated: 1
EndChar

StartChar: u1D5F5
Encoding: 120309 120309 637
Width: 704
GlyphClass: 2
Flags: MW
LayerCount: 2
Fore
SplineSet
0 0 m 0
 0 256 0 448 256 448 c 0
 512 448 512 256 512 0 c 0
 512 -256 512 -448 256 -448 c 0
 0 -448 0 -256 0 0 c 0
EndSplineSet
Validated: 1
EndChar

StartChar: u1D5F6
Encoding: 120310 120310 638
Width: 704
GlyphClass: 2
Flags: MW
LayerCount: 2
Fore
SplineSet
0 0 m 0
 0 256 0 448 256 448 c 0
 512 448 512 256 512 0 c 0
 512 -256 512 -448 256 -448 c 0
 0 -448 0 -256 0 0 c 0
EndSplineSet
Validated: 1
EndChar

StartChar: u1D5F7
Encoding: 120311 120311 639
Width: 704
GlyphClass: 2
Flags: MW
LayerCount: 2
Fore
SplineSet
0 0 m 0
 0 256 0 448 256 448 c 0
 512 448 512 256 512 0 c 0
 512 -256 512 -448 256 -448 c 0
 0 -448 0 -256 0 0 c 0
EndSplineSet
Validated: 1
EndChar

StartChar: u1D5F8
Encoding: 120312 120312 640
Width: 704
GlyphClass: 2
Flags: MW
LayerCount: 2
Fore
SplineSet
0 0 m 0
 0 256 0 448 256 448 c 0
 512 448 512 256 512 0 c 0
 512 -256 512 -448 256 -448 c 0
 0 -448 0 -256 0 0 c 0
EndSplineSet
Validated: 1
EndChar

StartChar: u1D5F9
Encoding: 120313 120313 641
Width: 704
GlyphClass: 2
Flags: MW
LayerCount: 2
Fore
SplineSet
0 0 m 0
 0 256 0 448 256 448 c 0
 512 448 512 256 512 0 c 0
 512 -256 512 -448 256 -448 c 0
 0 -448 0 -256 0 0 c 0
EndSplineSet
Validated: 1
EndChar

StartChar: u1D5FA
Encoding: 120314 120314 642
Width: 704
GlyphClass: 2
Flags: MW
LayerCount: 2
Fore
SplineSet
0 0 m 0
 0 256 0 448 256 448 c 0
 512 448 512 256 512 0 c 0
 512 -256 512 -448 256 -448 c 0
 0 -448 0 -256 0 0 c 0
EndSplineSet
Validated: 1
EndChar

StartChar: u1D5FB
Encoding: 120315 120315 643
Width: 704
GlyphClass: 2
Flags: MW
LayerCount: 2
Fore
SplineSet
0 0 m 0
 0 256 0 448 256 448 c 0
 512 448 512 256 512 0 c 0
 512 -256 512 -448 256 -448 c 0
 0 -448 0 -256 0 0 c 0
EndSplineSet
Validated: 1
EndChar

StartChar: u1D5FC
Encoding: 120316 120316 644
Width: 704
GlyphClass: 2
Flags: MW
LayerCount: 2
Fore
SplineSet
0 0 m 0
 0 256 0 448 256 448 c 0
 512 448 512 256 512 0 c 0
 512 -256 512 -448 256 -448 c 0
 0 -448 0 -256 0 0 c 0
EndSplineSet
Validated: 1
EndChar

StartChar: u1D5FD
Encoding: 120317 120317 645
Width: 704
GlyphClass: 2
Flags: MW
LayerCount: 2
Fore
SplineSet
0 0 m 0
 0 256 0 448 256 448 c 0
 512 448 512 256 512 0 c 0
 512 -256 512 -448 256 -448 c 0
 0 -448 0 -256 0 0 c 0
EndSplineSet
Validated: 1
EndChar

StartChar: u1D5FE
Encoding: 120318 120318 646
Width: 704
GlyphClass: 2
Flags: MW
LayerCount: 2
Fore
SplineSet
0 0 m 0
 0 256 0 448 256 448 c 0
 512 448 512 256 512 0 c 0
 512 -256 512 -448 256 -448 c 0
 0 -448 0 -256 0 0 c 0
EndSplineSet
Validated: 1
EndChar

StartChar: u1D5FF
Encoding: 120319 120319 647
Width: 704
GlyphClass: 2
Flags: MW
LayerCount: 2
Fore
SplineSet
0 0 m 0
 0 256 0 448 256 448 c 0
 512 448 512 256 512 0 c 0
 512 -256 512 -448 256 -448 c 0
 0 -448 0 -256 0 0 c 0
EndSplineSet
Validated: 1
EndChar

StartChar: u1D600
Encoding: 120320 120320 648
Width: 704
GlyphClass: 2
Flags: MW
LayerCount: 2
Fore
SplineSet
0 0 m 0
 0 256 0 448 256 448 c 0
 512 448 512 256 512 0 c 0
 512 -256 512 -448 256 -448 c 0
 0 -448 0 -256 0 0 c 0
EndSplineSet
Validated: 1
EndChar

StartChar: u1D601
Encoding: 120321 120321 649
Width: 704
GlyphClass: 2
Flags: MW
LayerCount: 2
Fore
SplineSet
0 0 m 0
 0 256 0 448 256 448 c 0
 512 448 512 256 512 0 c 0
 512 -256 512 -448 256 -448 c 0
 0 -448 0 -256 0 0 c 0
EndSplineSet
Validated: 1
EndChar

StartChar: u1D602
Encoding: 120322 120322 650
Width: 704
GlyphClass: 2
Flags: MW
LayerCount: 2
Fore
SplineSet
0 0 m 0
 0 256 0 448 256 448 c 0
 512 448 512 256 512 0 c 0
 512 -256 512 -448 256 -448 c 0
 0 -448 0 -256 0 0 c 0
EndSplineSet
Validated: 1
EndChar

StartChar: u1D603
Encoding: 120323 120323 651
Width: 704
GlyphClass: 2
Flags: MW
LayerCount: 2
Fore
SplineSet
0 0 m 0
 0 256 0 448 256 448 c 0
 512 448 512 256 512 0 c 0
 512 -256 512 -448 256 -448 c 0
 0 -448 0 -256 0 0 c 0
EndSplineSet
Validated: 1
EndChar

StartChar: u1D604
Encoding: 120324 120324 652
Width: 704
GlyphClass: 2
Flags: MW
LayerCount: 2
Fore
SplineSet
0 0 m 0
 0 256 0 448 256 448 c 0
 512 448 512 256 512 0 c 0
 512 -256 512 -448 256 -448 c 0
 0 -448 0 -256 0 0 c 0
EndSplineSet
Validated: 1
EndChar

StartChar: u1D605
Encoding: 120325 120325 653
Width: 704
GlyphClass: 2
Flags: MW
LayerCount: 2
Fore
SplineSet
0 0 m 0
 0 256 0 448 256 448 c 0
 512 448 512 256 512 0 c 0
 512 -256 512 -448 256 -448 c 0
 0 -448 0 -256 0 0 c 0
EndSplineSet
Validated: 1
EndChar

StartChar: u1D606
Encoding: 120326 120326 654
Width: 704
GlyphClass: 2
Flags: MW
LayerCount: 2
Fore
SplineSet
0 0 m 0
 0 256 0 448 256 448 c 0
 512 448 512 256 512 0 c 0
 512 -256 512 -448 256 -448 c 0
 0 -448 0 -256 0 0 c 0
EndSplineSet
Validated: 1
EndChar

StartChar: u1D607
Encoding: 120327 120327 655
Width: 704
GlyphClass: 2
Flags: MW
LayerCount: 2
Fore
SplineSet
0 0 m 0
 0 256 0 448 256 448 c 0
 512 448 512 256 512 0 c 0
 512 -256 512 -448 256 -448 c 0
 0 -448 0 -256 0 0 c 0
EndSplineSet
Validated: 1
EndChar

StartChar: u1D608
Encoding: 120328 120328 656
Width: 832
GlyphClass: 2
Flags: MW
LayerCount: 2
Fore
SplineSet
0 0 m 0
 0 300 84 448 384 448 c 0
 684 448 768 300 768 0 c 0
 768 -300 684 -448 384 -448 c 0
 84 -448 0 -300 0 0 c 0
EndSplineSet
Validated: 1
EndChar

StartChar: u1D609
Encoding: 120329 120329 657
Width: 832
GlyphClass: 2
Flags: MW
LayerCount: 2
Fore
SplineSet
0 0 m 0
 0 300 84 448 384 448 c 0
 684 448 768 300 768 0 c 0
 768 -300 684 -448 384 -448 c 0
 84 -448 0 -300 0 0 c 0
EndSplineSet
Validated: 1
EndChar

StartChar: u1D60A
Encoding: 120330 120330 658
Width: 832
GlyphClass: 2
Flags: MW
LayerCount: 2
Fore
SplineSet
0 0 m 0
 0 300 84 448 384 448 c 0
 684 448 768 300 768 0 c 0
 768 -300 684 -448 384 -448 c 0
 84 -448 0 -300 0 0 c 0
EndSplineSet
Validated: 1
EndChar

StartChar: u1D60B
Encoding: 120331 120331 659
Width: 832
GlyphClass: 2
Flags: MW
LayerCount: 2
Fore
SplineSet
0 0 m 0
 0 300 84 448 384 448 c 0
 684 448 768 300 768 0 c 0
 768 -300 684 -448 384 -448 c 0
 84 -448 0 -300 0 0 c 0
EndSplineSet
Validated: 1
EndChar

StartChar: u1D60C
Encoding: 120332 120332 660
Width: 832
GlyphClass: 2
Flags: MW
LayerCount: 2
Fore
SplineSet
0 0 m 0
 0 300 84 448 384 448 c 0
 684 448 768 300 768 0 c 0
 768 -300 684 -448 384 -448 c 0
 84 -448 0 -300 0 0 c 0
EndSplineSet
Validated: 1
EndChar

StartChar: u1D60D
Encoding: 120333 120333 661
Width: 832
GlyphClass: 2
Flags: MW
LayerCount: 2
Fore
SplineSet
0 0 m 0
 0 300 84 448 384 448 c 0
 684 448 768 300 768 0 c 0
 768 -300 684 -448 384 -448 c 0
 84 -448 0 -300 0 0 c 0
EndSplineSet
Validated: 1
EndChar

StartChar: u1D60E
Encoding: 120334 120334 662
Width: 832
GlyphClass: 2
Flags: MW
LayerCount: 2
Fore
SplineSet
0 0 m 0
 0 300 84 448 384 448 c 0
 684 448 768 300 768 0 c 0
 768 -300 684 -448 384 -448 c 0
 84 -448 0 -300 0 0 c 0
EndSplineSet
Validated: 1
EndChar

StartChar: u1D60F
Encoding: 120335 120335 663
Width: 832
GlyphClass: 2
Flags: MW
LayerCount: 2
Fore
SplineSet
0 0 m 0
 0 300 84 448 384 448 c 0
 684 448 768 300 768 0 c 0
 768 -300 684 -448 384 -448 c 0
 84 -448 0 -300 0 0 c 0
EndSplineSet
Validated: 1
EndChar

StartChar: u1D610
Encoding: 120336 120336 664
Width: 832
GlyphClass: 2
Flags: MW
LayerCount: 2
Fore
SplineSet
0 0 m 0
 0 300 84 448 384 448 c 0
 684 448 768 300 768 0 c 0
 768 -300 684 -448 384 -448 c 0
 84 -448 0 -300 0 0 c 0
EndSplineSet
Validated: 1
EndChar

StartChar: u1D611
Encoding: 120337 120337 665
Width: 832
GlyphClass: 2
Flags: MW
LayerCount: 2
Fore
SplineSet
0 0 m 0
 0 300 84 448 384 448 c 0
 684 448 768 300 768 0 c 0
 768 -300 684 -448 384 -448 c 0
 84 -448 0 -300 0 0 c 0
EndSplineSet
Validated: 1
EndChar

StartChar: u1D612
Encoding: 120338 120338 666
Width: 832
GlyphClass: 2
Flags: MW
LayerCount: 2
Fore
SplineSet
0 0 m 0
 0 300 84 448 384 448 c 0
 684 448 768 300 768 0 c 0
 768 -300 684 -448 384 -448 c 0
 84 -448 0 -300 0 0 c 0
EndSplineSet
Validated: 1
EndChar

StartChar: u1D613
Encoding: 120339 120339 667
Width: 832
GlyphClass: 2
Flags: MW
LayerCount: 2
Fore
SplineSet
0 0 m 0
 0 300 84 448 384 448 c 0
 684 448 768 300 768 0 c 0
 768 -300 684 -448 384 -448 c 0
 84 -448 0 -300 0 0 c 0
EndSplineSet
Validated: 1
EndChar

StartChar: u1D614
Encoding: 120340 120340 668
Width: 832
GlyphClass: 2
Flags: MW
LayerCount: 2
Fore
SplineSet
0 0 m 0
 0 300 84 448 384 448 c 0
 684 448 768 300 768 0 c 0
 768 -300 684 -448 384 -448 c 0
 84 -448 0 -300 0 0 c 0
EndSplineSet
Validated: 1
EndChar

StartChar: u1D615
Encoding: 120341 120341 669
Width: 832
GlyphClass: 2
Flags: MW
LayerCount: 2
Fore
SplineSet
0 0 m 0
 0 300 84 448 384 448 c 0
 684 448 768 300 768 0 c 0
 768 -300 684 -448 384 -448 c 0
 84 -448 0 -300 0 0 c 0
EndSplineSet
Validated: 1
EndChar

StartChar: u1D616
Encoding: 120342 120342 670
Width: 832
GlyphClass: 2
Flags: MW
LayerCount: 2
Fore
SplineSet
0 0 m 0
 0 300 84 448 384 448 c 0
 684 448 768 300 768 0 c 0
 768 -300 684 -448 384 -448 c 0
 84 -448 0 -300 0 0 c 0
EndSplineSet
Validated: 1
EndChar

StartChar: u1D617
Encoding: 120343 120343 671
Width: 832
GlyphClass: 2
Flags: MW
LayerCount: 2
Fore
SplineSet
0 0 m 0
 0 300 84 448 384 448 c 0
 684 448 768 300 768 0 c 0
 768 -300 684 -448 384 -448 c 0
 84 -448 0 -300 0 0 c 0
EndSplineSet
Validated: 1
EndChar

StartChar: u1D618
Encoding: 120344 120344 672
Width: 832
GlyphClass: 2
Flags: MW
LayerCount: 2
Fore
SplineSet
0 0 m 0
 0 300 84 448 384 448 c 0
 684 448 768 300 768 0 c 0
 768 -300 684 -448 384 -448 c 0
 84 -448 0 -300 0 0 c 0
EndSplineSet
Validated: 1
EndChar

StartChar: u1D619
Encoding: 120345 120345 673
Width: 832
GlyphClass: 2
Flags: MW
LayerCount: 2
Fore
SplineSet
0 0 m 0
 0 300 84 448 384 448 c 0
 684 448 768 300 768 0 c 0
 768 -300 684 -448 384 -448 c 0
 84 -448 0 -300 0 0 c 0
EndSplineSet
Validated: 1
EndChar

StartChar: u1D61A
Encoding: 120346 120346 674
Width: 832
GlyphClass: 2
Flags: MW
LayerCount: 2
Fore
SplineSet
0 0 m 0
 0 300 84 448 384 448 c 0
 684 448 768 300 768 0 c 0
 768 -300 684 -448 384 -448 c 0
 84 -448 0 -300 0 0 c 0
EndSplineSet
Validated: 1
EndChar

StartChar: u1D61B
Encoding: 120347 120347 675
Width: 832
GlyphClass: 2
Flags: MW
LayerCount: 2
Fore
SplineSet
0 0 m 0
 0 300 84 448 384 448 c 0
 684 448 768 300 768 0 c 0
 768 -300 684 -448 384 -448 c 0
 84 -448 0 -300 0 0 c 0
EndSplineSet
Validated: 1
EndChar

StartChar: u1D61C
Encoding: 120348 120348 676
Width: 832
GlyphClass: 2
Flags: MW
LayerCount: 2
Fore
SplineSet
0 0 m 0
 0 300 84 448 384 448 c 0
 684 448 768 300 768 0 c 0
 768 -300 684 -448 384 -448 c 0
 84 -448 0 -300 0 0 c 0
EndSplineSet
Validated: 1
EndChar

StartChar: u1D61D
Encoding: 120349 120349 677
Width: 832
GlyphClass: 2
Flags: MW
LayerCount: 2
Fore
SplineSet
0 0 m 0
 0 300 84 448 384 448 c 0
 684 448 768 300 768 0 c 0
 768 -300 684 -448 384 -448 c 0
 84 -448 0 -300 0 0 c 0
EndSplineSet
Validated: 1
EndChar

StartChar: u1D61E
Encoding: 120350 120350 678
Width: 832
GlyphClass: 2
Flags: MW
LayerCount: 2
Fore
SplineSet
0 0 m 0
 0 300 84 448 384 448 c 0
 684 448 768 300 768 0 c 0
 768 -300 684 -448 384 -448 c 0
 84 -448 0 -300 0 0 c 0
EndSplineSet
Validated: 1
EndChar

StartChar: u1D61F
Encoding: 120351 120351 679
Width: 832
GlyphClass: 2
Flags: MW
LayerCount: 2
Fore
SplineSet
0 0 m 0
 0 300 84 448 384 448 c 0
 684 448 768 300 768 0 c 0
 768 -300 684 -448 384 -448 c 0
 84 -448 0 -300 0 0 c 0
EndSplineSet
Validated: 1
EndChar

StartChar: u1D620
Encoding: 120352 120352 680
Width: 832
GlyphClass: 2
Flags: MW
LayerCount: 2
Fore
SplineSet
0 0 m 0
 0 300 84 448 384 448 c 0
 684 448 768 300 768 0 c 0
 768 -300 684 -448 384 -448 c 0
 84 -448 0 -300 0 0 c 0
EndSplineSet
Validated: 1
EndChar

StartChar: u1D621
Encoding: 120353 120353 681
Width: 832
GlyphClass: 2
Flags: MW
LayerCount: 2
Fore
SplineSet
0 0 m 0
 0 300 84 448 384 448 c 0
 684 448 768 300 768 0 c 0
 768 -300 684 -448 384 -448 c 0
 84 -448 0 -300 0 0 c 0
EndSplineSet
Validated: 1
EndChar

StartChar: u1D622
Encoding: 120354 120354 682
Width: 832
GlyphClass: 2
Flags: MW
LayerCount: 2
Fore
SplineSet
0 0 m 0
 0 300 84 448 384 448 c 0
 684 448 768 300 768 0 c 0
 768 -300 684 -448 384 -448 c 0
 84 -448 0 -300 0 0 c 0
EndSplineSet
Validated: 1
EndChar

StartChar: u1D623
Encoding: 120355 120355 683
Width: 832
GlyphClass: 2
Flags: MW
LayerCount: 2
Fore
SplineSet
0 0 m 0
 0 300 84 448 384 448 c 0
 684 448 768 300 768 0 c 0
 768 -300 684 -448 384 -448 c 0
 84 -448 0 -300 0 0 c 0
EndSplineSet
Validated: 1
EndChar

StartChar: u1D624
Encoding: 120356 120356 684
Width: 832
GlyphClass: 2
Flags: MW
LayerCount: 2
Fore
SplineSet
0 0 m 0
 0 300 84 448 384 448 c 0
 684 448 768 300 768 0 c 0
 768 -300 684 -448 384 -448 c 0
 84 -448 0 -300 0 0 c 0
EndSplineSet
Validated: 1
EndChar

StartChar: u1D625
Encoding: 120357 120357 685
Width: 832
GlyphClass: 2
Flags: MW
LayerCount: 2
Fore
SplineSet
0 0 m 0
 0 300 84 448 384 448 c 0
 684 448 768 300 768 0 c 0
 768 -300 684 -448 384 -448 c 0
 84 -448 0 -300 0 0 c 0
EndSplineSet
Validated: 1
EndChar

StartChar: u1D626
Encoding: 120358 120358 686
Width: 832
GlyphClass: 2
Flags: MW
LayerCount: 2
Fore
SplineSet
0 0 m 0
 0 300 84 448 384 448 c 0
 684 448 768 300 768 0 c 0
 768 -300 684 -448 384 -448 c 0
 84 -448 0 -300 0 0 c 0
EndSplineSet
Validated: 1
EndChar

StartChar: u1D627
Encoding: 120359 120359 687
Width: 832
GlyphClass: 2
Flags: MW
LayerCount: 2
Fore
SplineSet
0 0 m 0
 0 300 84 448 384 448 c 0
 684 448 768 300 768 0 c 0
 768 -300 684 -448 384 -448 c 0
 84 -448 0 -300 0 0 c 0
EndSplineSet
Validated: 1
EndChar

StartChar: u1D628
Encoding: 120360 120360 688
Width: 832
GlyphClass: 2
Flags: MW
LayerCount: 2
Fore
SplineSet
0 0 m 0
 0 300 84 448 384 448 c 0
 684 448 768 300 768 0 c 0
 768 -300 684 -448 384 -448 c 0
 84 -448 0 -300 0 0 c 0
EndSplineSet
Validated: 1
EndChar

StartChar: u1D629
Encoding: 120361 120361 689
Width: 832
GlyphClass: 2
Flags: MW
LayerCount: 2
Fore
SplineSet
0 0 m 0
 0 300 84 448 384 448 c 0
 684 448 768 300 768 0 c 0
 768 -300 684 -448 384 -448 c 0
 84 -448 0 -300 0 0 c 0
EndSplineSet
Validated: 1
EndChar

StartChar: u1D62A
Encoding: 120362 120362 690
Width: 832
GlyphClass: 2
Flags: MW
LayerCount: 2
Fore
SplineSet
0 0 m 0
 0 300 84 448 384 448 c 0
 684 448 768 300 768 0 c 0
 768 -300 684 -448 384 -448 c 0
 84 -448 0 -300 0 0 c 0
EndSplineSet
Validated: 1
EndChar

StartChar: u1D62B
Encoding: 120363 120363 691
Width: 832
GlyphClass: 2
Flags: MW
LayerCount: 2
Fore
SplineSet
0 0 m 0
 0 300 84 448 384 448 c 0
 684 448 768 300 768 0 c 0
 768 -300 684 -448 384 -448 c 0
 84 -448 0 -300 0 0 c 0
EndSplineSet
Validated: 1
EndChar

StartChar: u1D62C
Encoding: 120364 120364 692
Width: 832
GlyphClass: 2
Flags: MW
LayerCount: 2
Fore
SplineSet
0 0 m 0
 0 300 84 448 384 448 c 0
 684 448 768 300 768 0 c 0
 768 -300 684 -448 384 -448 c 0
 84 -448 0 -300 0 0 c 0
EndSplineSet
Validated: 1
EndChar

StartChar: u1D62D
Encoding: 120365 120365 693
Width: 832
GlyphClass: 2
Flags: MW
LayerCount: 2
Fore
SplineSet
0 0 m 0
 0 300 84 448 384 448 c 0
 684 448 768 300 768 0 c 0
 768 -300 684 -448 384 -448 c 0
 84 -448 0 -300 0 0 c 0
EndSplineSet
Validated: 1
EndChar

StartChar: u1D62E
Encoding: 120366 120366 694
Width: 832
GlyphClass: 2
Flags: MW
LayerCount: 2
Fore
SplineSet
0 0 m 0
 0 300 84 448 384 448 c 0
 684 448 768 300 768 0 c 0
 768 -300 684 -448 384 -448 c 0
 84 -448 0 -300 0 0 c 0
EndSplineSet
Validated: 1
EndChar

StartChar: u1D62F
Encoding: 120367 120367 695
Width: 832
GlyphClass: 2
Flags: MW
LayerCount: 2
Fore
SplineSet
0 0 m 0
 0 300 84 448 384 448 c 0
 684 448 768 300 768 0 c 0
 768 -300 684 -448 384 -448 c 0
 84 -448 0 -300 0 0 c 0
EndSplineSet
Validated: 1
EndChar

StartChar: u1D630
Encoding: 120368 120368 696
Width: 832
GlyphClass: 2
Flags: MW
LayerCount: 2
Fore
SplineSet
0 0 m 0
 0 300 84 448 384 448 c 0
 684 448 768 300 768 0 c 0
 768 -300 684 -448 384 -448 c 0
 84 -448 0 -300 0 0 c 0
EndSplineSet
Validated: 1
EndChar

StartChar: u1D631
Encoding: 120369 120369 697
Width: 832
GlyphClass: 2
Flags: MW
LayerCount: 2
Fore
SplineSet
0 0 m 0
 0 300 84 448 384 448 c 0
 684 448 768 300 768 0 c 0
 768 -300 684 -448 384 -448 c 0
 84 -448 0 -300 0 0 c 0
EndSplineSet
Validated: 1
EndChar

StartChar: u1D632
Encoding: 120370 120370 698
Width: 832
GlyphClass: 2
Flags: MW
LayerCount: 2
Fore
SplineSet
0 0 m 0
 0 300 84 448 384 448 c 0
 684 448 768 300 768 0 c 0
 768 -300 684 -448 384 -448 c 0
 84 -448 0 -300 0 0 c 0
EndSplineSet
Validated: 1
EndChar

StartChar: u1D633
Encoding: 120371 120371 699
Width: 832
GlyphClass: 2
Flags: MW
LayerCount: 2
Fore
SplineSet
0 0 m 0
 0 300 84 448 384 448 c 0
 684 448 768 300 768 0 c 0
 768 -300 684 -448 384 -448 c 0
 84 -448 0 -300 0 0 c 0
EndSplineSet
Validated: 1
EndChar

StartChar: u1D634
Encoding: 120372 120372 700
Width: 832
GlyphClass: 2
Flags: MW
LayerCount: 2
Fore
SplineSet
0 0 m 0
 0 300 84 448 384 448 c 0
 684 448 768 300 768 0 c 0
 768 -300 684 -448 384 -448 c 0
 84 -448 0 -300 0 0 c 0
EndSplineSet
Validated: 1
EndChar

StartChar: u1D635
Encoding: 120373 120373 701
Width: 832
GlyphClass: 2
Flags: MW
LayerCount: 2
Fore
SplineSet
0 0 m 0
 0 300 84 448 384 448 c 0
 684 448 768 300 768 0 c 0
 768 -300 684 -448 384 -448 c 0
 84 -448 0 -300 0 0 c 0
EndSplineSet
Validated: 1
EndChar

StartChar: u1D636
Encoding: 120374 120374 702
Width: 832
GlyphClass: 2
Flags: MW
LayerCount: 2
Fore
SplineSet
0 0 m 0
 0 300 84 448 384 448 c 0
 684 448 768 300 768 0 c 0
 768 -300 684 -448 384 -448 c 0
 84 -448 0 -300 0 0 c 0
EndSplineSet
Validated: 1
EndChar

StartChar: u1D637
Encoding: 120375 120375 703
Width: 832
GlyphClass: 2
Flags: MW
LayerCount: 2
Fore
SplineSet
0 0 m 0
 0 300 84 448 384 448 c 0
 684 448 768 300 768 0 c 0
 768 -300 684 -448 384 -448 c 0
 84 -448 0 -300 0 0 c 0
EndSplineSet
Validated: 1
EndChar

StartChar: u1D638
Encoding: 120376 120376 704
Width: 832
GlyphClass: 2
Flags: MW
LayerCount: 2
Fore
SplineSet
0 0 m 0
 0 300 84 448 384 448 c 0
 684 448 768 300 768 0 c 0
 768 -300 684 -448 384 -448 c 0
 84 -448 0 -300 0 0 c 0
EndSplineSet
Validated: 1
EndChar

StartChar: u1D639
Encoding: 120377 120377 705
Width: 832
GlyphClass: 2
Flags: MW
LayerCount: 2
Fore
SplineSet
0 0 m 0
 0 300 84 448 384 448 c 0
 684 448 768 300 768 0 c 0
 768 -300 684 -448 384 -448 c 0
 84 -448 0 -300 0 0 c 0
EndSplineSet
Validated: 1
EndChar

StartChar: u1D63A
Encoding: 120378 120378 706
Width: 832
GlyphClass: 2
Flags: MW
LayerCount: 2
Fore
SplineSet
0 0 m 0
 0 300 84 448 384 448 c 0
 684 448 768 300 768 0 c 0
 768 -300 684 -448 384 -448 c 0
 84 -448 0 -300 0 0 c 0
EndSplineSet
Validated: 1
EndChar

StartChar: u1D63B
Encoding: 120379 120379 707
Width: 832
GlyphClass: 2
Flags: MW
LayerCount: 2
Fore
SplineSet
0 0 m 0
 0 300 84 448 384 448 c 0
 684 448 768 300 768 0 c 0
 768 -300 684 -448 384 -448 c 0
 84 -448 0 -300 0 0 c 0
EndSplineSet
Validated: 1
EndChar

StartChar: u1D63C
Encoding: 120380 120380 708
Width: 384
GlyphClass: 2
Flags: HMW
LayerCount: 2
Fore
SplineSet
0 0 m 0
 0 8 120 448 128 448 c 4
 136 448 256 8 256 0 c 0
 256 -8 136 -448 128 -448 c 0
 120 -448 0 -8 0 0 c 0
EndSplineSet
Validated: 1
EndChar

StartChar: u1D63D
Encoding: 120381 120381 709
Width: 384
GlyphClass: 2
Flags: HMW
LayerCount: 2
Fore
SplineSet
0 0 m 0
 0 8 120 448 128 448 c 4
 136 448 256 8 256 0 c 0
 256 -8 136 -448 128 -448 c 0
 120 -448 0 -8 0 0 c 0
EndSplineSet
Validated: 1
EndChar

StartChar: u1D63E
Encoding: 120382 120382 710
Width: 384
GlyphClass: 2
Flags: HMW
LayerCount: 2
Fore
SplineSet
0 0 m 0
 0 8 120 448 128 448 c 4
 136 448 256 8 256 0 c 0
 256 -8 136 -448 128 -448 c 0
 120 -448 0 -8 0 0 c 0
EndSplineSet
Validated: 1
EndChar

StartChar: u1D63F
Encoding: 120383 120383 711
Width: 384
GlyphClass: 2
Flags: HMW
LayerCount: 2
Fore
SplineSet
0 0 m 0
 0 8 120 448 128 448 c 4
 136 448 256 8 256 0 c 0
 256 -8 136 -448 128 -448 c 0
 120 -448 0 -8 0 0 c 0
EndSplineSet
Validated: 1
EndChar

StartChar: u1D640
Encoding: 120384 120384 712
Width: 384
GlyphClass: 2
Flags: HMW
LayerCount: 2
Fore
SplineSet
0 0 m 0
 0 8 120 448 128 448 c 4
 136 448 256 8 256 0 c 0
 256 -8 136 -448 128 -448 c 0
 120 -448 0 -8 0 0 c 0
EndSplineSet
Validated: 1
EndChar

StartChar: u1D641
Encoding: 120385 120385 713
Width: 384
GlyphClass: 2
Flags: HMW
LayerCount: 2
Fore
SplineSet
0 0 m 0
 0 8 120 448 128 448 c 4
 136 448 256 8 256 0 c 0
 256 -8 136 -448 128 -448 c 0
 120 -448 0 -8 0 0 c 0
EndSplineSet
Validated: 1
EndChar

StartChar: u1D642
Encoding: 120386 120386 714
Width: 384
GlyphClass: 2
Flags: HMW
LayerCount: 2
Fore
SplineSet
0 0 m 0
 0 8 120 448 128 448 c 4
 136 448 256 8 256 0 c 0
 256 -8 136 -448 128 -448 c 0
 120 -448 0 -8 0 0 c 0
EndSplineSet
Validated: 1
EndChar

StartChar: u1D643
Encoding: 120387 120387 715
Width: 384
GlyphClass: 2
Flags: HMW
LayerCount: 2
Fore
SplineSet
0 0 m 0
 0 8 120 448 128 448 c 4
 136 448 256 8 256 0 c 0
 256 -8 136 -448 128 -448 c 0
 120 -448 0 -8 0 0 c 0
EndSplineSet
Validated: 1
EndChar

StartChar: u1D644
Encoding: 120388 120388 716
Width: 384
GlyphClass: 2
Flags: HMW
LayerCount: 2
Fore
SplineSet
0 0 m 0
 0 8 120 448 128 448 c 4
 136 448 256 8 256 0 c 0
 256 -8 136 -448 128 -448 c 0
 120 -448 0 -8 0 0 c 0
EndSplineSet
Validated: 1
EndChar

StartChar: u1D645
Encoding: 120389 120389 717
Width: 384
GlyphClass: 2
Flags: HMW
LayerCount: 2
Fore
SplineSet
0 0 m 0
 0 8 120 448 128 448 c 4
 136 448 256 8 256 0 c 0
 256 -8 136 -448 128 -448 c 0
 120 -448 0 -8 0 0 c 0
EndSplineSet
Validated: 1
EndChar

StartChar: u1D646
Encoding: 120390 120390 718
Width: 384
GlyphClass: 2
Flags: HMW
LayerCount: 2
Fore
SplineSet
0 0 m 0
 0 8 120 448 128 448 c 4
 136 448 256 8 256 0 c 0
 256 -8 136 -448 128 -448 c 0
 120 -448 0 -8 0 0 c 0
EndSplineSet
Validated: 1
EndChar

StartChar: u1D647
Encoding: 120391 120391 719
Width: 384
GlyphClass: 2
Flags: HMW
LayerCount: 2
Fore
SplineSet
0 0 m 0
 0 8 120 448 128 448 c 4
 136 448 256 8 256 0 c 0
 256 -8 136 -448 128 -448 c 0
 120 -448 0 -8 0 0 c 0
EndSplineSet
Validated: 1
EndChar

StartChar: u1D648
Encoding: 120392 120392 720
Width: 384
GlyphClass: 2
Flags: HMW
LayerCount: 2
Fore
SplineSet
0 0 m 0
 0 8 120 448 128 448 c 4
 136 448 256 8 256 0 c 0
 256 -8 136 -448 128 -448 c 0
 120 -448 0 -8 0 0 c 0
EndSplineSet
Validated: 1
EndChar

StartChar: u1D649
Encoding: 120393 120393 721
Width: 384
GlyphClass: 2
Flags: HMW
LayerCount: 2
Fore
SplineSet
0 0 m 0
 0 8 120 448 128 448 c 4
 136 448 256 8 256 0 c 0
 256 -8 136 -448 128 -448 c 0
 120 -448 0 -8 0 0 c 0
EndSplineSet
Validated: 1
EndChar

StartChar: u1D64A
Encoding: 120394 120394 722
Width: 384
GlyphClass: 2
Flags: HMW
LayerCount: 2
Fore
SplineSet
0 0 m 0
 0 8 120 448 128 448 c 4
 136 448 256 8 256 0 c 0
 256 -8 136 -448 128 -448 c 0
 120 -448 0 -8 0 0 c 0
EndSplineSet
Validated: 1
EndChar

StartChar: u1D64B
Encoding: 120395 120395 723
Width: 384
GlyphClass: 2
Flags: HMW
LayerCount: 2
Fore
SplineSet
0 0 m 0
 0 8 120 448 128 448 c 4
 136 448 256 8 256 0 c 0
 256 -8 136 -448 128 -448 c 0
 120 -448 0 -8 0 0 c 0
EndSplineSet
Validated: 1
EndChar

StartChar: u1D64C
Encoding: 120396 120396 724
Width: 384
GlyphClass: 2
Flags: HMW
LayerCount: 2
Fore
SplineSet
0 0 m 0
 0 8 120 448 128 448 c 4
 136 448 256 8 256 0 c 0
 256 -8 136 -448 128 -448 c 0
 120 -448 0 -8 0 0 c 0
EndSplineSet
Validated: 1
EndChar

StartChar: u1D64D
Encoding: 120397 120397 725
Width: 384
GlyphClass: 2
Flags: HMW
LayerCount: 2
Fore
SplineSet
0 0 m 0
 0 8 120 448 128 448 c 4
 136 448 256 8 256 0 c 0
 256 -8 136 -448 128 -448 c 0
 120 -448 0 -8 0 0 c 0
EndSplineSet
Validated: 1
EndChar

StartChar: u1D64E
Encoding: 120398 120398 726
Width: 384
GlyphClass: 2
Flags: HMW
LayerCount: 2
Fore
SplineSet
0 0 m 0
 0 8 120 448 128 448 c 4
 136 448 256 8 256 0 c 0
 256 -8 136 -448 128 -448 c 0
 120 -448 0 -8 0 0 c 0
EndSplineSet
Validated: 1
EndChar

StartChar: u1D64F
Encoding: 120399 120399 727
Width: 384
GlyphClass: 2
Flags: HMW
LayerCount: 2
Fore
SplineSet
0 0 m 0
 0 8 120 448 128 448 c 4
 136 448 256 8 256 0 c 0
 256 -8 136 -448 128 -448 c 0
 120 -448 0 -8 0 0 c 0
EndSplineSet
Validated: 1
EndChar

StartChar: u1D650
Encoding: 120400 120400 728
Width: 384
GlyphClass: 2
Flags: HMW
LayerCount: 2
Fore
SplineSet
0 0 m 0
 0 8 120 448 128 448 c 4
 136 448 256 8 256 0 c 0
 256 -8 136 -448 128 -448 c 0
 120 -448 0 -8 0 0 c 0
EndSplineSet
Validated: 1
EndChar

StartChar: u1D651
Encoding: 120401 120401 729
Width: 384
GlyphClass: 2
Flags: HMW
LayerCount: 2
Fore
SplineSet
0 0 m 0
 0 8 120 448 128 448 c 4
 136 448 256 8 256 0 c 0
 256 -8 136 -448 128 -448 c 0
 120 -448 0 -8 0 0 c 0
EndSplineSet
Validated: 1
EndChar

StartChar: u1D652
Encoding: 120402 120402 730
Width: 384
GlyphClass: 2
Flags: HMW
LayerCount: 2
Fore
SplineSet
0 0 m 0
 0 8 120 448 128 448 c 4
 136 448 256 8 256 0 c 0
 256 -8 136 -448 128 -448 c 0
 120 -448 0 -8 0 0 c 0
EndSplineSet
Validated: 1
EndChar

StartChar: u1D653
Encoding: 120403 120403 731
Width: 384
GlyphClass: 2
Flags: HMW
LayerCount: 2
Fore
SplineSet
0 0 m 0
 0 8 120 448 128 448 c 4
 136 448 256 8 256 0 c 0
 256 -8 136 -448 128 -448 c 0
 120 -448 0 -8 0 0 c 0
EndSplineSet
Validated: 1
EndChar

StartChar: u1D654
Encoding: 120404 120404 732
Width: 384
GlyphClass: 2
Flags: HMW
LayerCount: 2
Fore
SplineSet
0 0 m 0
 0 8 120 448 128 448 c 4
 136 448 256 8 256 0 c 0
 256 -8 136 -448 128 -448 c 0
 120 -448 0 -8 0 0 c 0
EndSplineSet
Validated: 1
EndChar

StartChar: u1D655
Encoding: 120405 120405 733
Width: 384
GlyphClass: 2
Flags: HMW
LayerCount: 2
Fore
SplineSet
0 0 m 0
 0 8 120 448 128 448 c 4
 136 448 256 8 256 0 c 0
 256 -8 136 -448 128 -448 c 0
 120 -448 0 -8 0 0 c 0
EndSplineSet
Validated: 1
EndChar

StartChar: u1D656
Encoding: 120406 120406 734
Width: 384
GlyphClass: 2
Flags: HMW
LayerCount: 2
Fore
SplineSet
0 0 m 0
 0 8 120 448 128 448 c 4
 136 448 256 8 256 0 c 0
 256 -8 136 -448 128 -448 c 0
 120 -448 0 -8 0 0 c 0
EndSplineSet
Validated: 1
EndChar

StartChar: u1D657
Encoding: 120407 120407 735
Width: 384
GlyphClass: 2
Flags: HMW
LayerCount: 2
Fore
SplineSet
0 0 m 0
 0 8 120 448 128 448 c 4
 136 448 256 8 256 0 c 0
 256 -8 136 -448 128 -448 c 0
 120 -448 0 -8 0 0 c 0
EndSplineSet
Validated: 1
EndChar

StartChar: u1D658
Encoding: 120408 120408 736
Width: 384
GlyphClass: 2
Flags: HMW
LayerCount: 2
Fore
SplineSet
0 0 m 0
 0 8 120 448 128 448 c 4
 136 448 256 8 256 0 c 0
 256 -8 136 -448 128 -448 c 0
 120 -448 0 -8 0 0 c 0
EndSplineSet
Validated: 1
EndChar

StartChar: u1D659
Encoding: 120409 120409 737
Width: 384
GlyphClass: 2
Flags: HMW
LayerCount: 2
Fore
SplineSet
0 0 m 0
 0 8 120 448 128 448 c 4
 136 448 256 8 256 0 c 0
 256 -8 136 -448 128 -448 c 0
 120 -448 0 -8 0 0 c 0
EndSplineSet
Validated: 1
EndChar

StartChar: u1D65A
Encoding: 120410 120410 738
Width: 384
GlyphClass: 2
Flags: HMW
LayerCount: 2
Fore
SplineSet
0 0 m 0
 0 8 120 448 128 448 c 4
 136 448 256 8 256 0 c 0
 256 -8 136 -448 128 -448 c 0
 120 -448 0 -8 0 0 c 0
EndSplineSet
Validated: 1
EndChar

StartChar: u1D65B
Encoding: 120411 120411 739
Width: 384
GlyphClass: 2
Flags: HMW
LayerCount: 2
Fore
SplineSet
0 0 m 0
 0 8 120 448 128 448 c 4
 136 448 256 8 256 0 c 0
 256 -8 136 -448 128 -448 c 0
 120 -448 0 -8 0 0 c 0
EndSplineSet
Validated: 1
EndChar

StartChar: u1D65C
Encoding: 120412 120412 740
Width: 384
GlyphClass: 2
Flags: HMW
LayerCount: 2
Fore
SplineSet
0 0 m 0
 0 8 120 448 128 448 c 4
 136 448 256 8 256 0 c 0
 256 -8 136 -448 128 -448 c 0
 120 -448 0 -8 0 0 c 0
EndSplineSet
Validated: 1
EndChar

StartChar: u1D65D
Encoding: 120413 120413 741
Width: 384
GlyphClass: 2
Flags: HMW
LayerCount: 2
Fore
SplineSet
0 0 m 0
 0 8 120 448 128 448 c 4
 136 448 256 8 256 0 c 0
 256 -8 136 -448 128 -448 c 0
 120 -448 0 -8 0 0 c 0
EndSplineSet
Validated: 1
EndChar

StartChar: u1D65E
Encoding: 120414 120414 742
Width: 384
GlyphClass: 2
Flags: HMW
LayerCount: 2
Fore
SplineSet
0 0 m 0
 0 8 120 448 128 448 c 4
 136 448 256 8 256 0 c 0
 256 -8 136 -448 128 -448 c 0
 120 -448 0 -8 0 0 c 0
EndSplineSet
Validated: 1
EndChar

StartChar: u1D65F
Encoding: 120415 120415 743
Width: 384
GlyphClass: 2
Flags: HMW
LayerCount: 2
Fore
SplineSet
0 0 m 0
 0 8 120 448 128 448 c 4
 136 448 256 8 256 0 c 0
 256 -8 136 -448 128 -448 c 0
 120 -448 0 -8 0 0 c 0
EndSplineSet
Validated: 1
EndChar

StartChar: u1D660
Encoding: 120416 120416 744
Width: 384
GlyphClass: 2
Flags: HMW
LayerCount: 2
Fore
SplineSet
0 0 m 0
 0 8 120 448 128 448 c 4
 136 448 256 8 256 0 c 0
 256 -8 136 -448 128 -448 c 0
 120 -448 0 -8 0 0 c 0
EndSplineSet
Validated: 1
EndChar

StartChar: u1D661
Encoding: 120417 120417 745
Width: 384
GlyphClass: 2
Flags: HMW
LayerCount: 2
Fore
SplineSet
0 0 m 0
 0 8 120 448 128 448 c 4
 136 448 256 8 256 0 c 0
 256 -8 136 -448 128 -448 c 0
 120 -448 0 -8 0 0 c 0
EndSplineSet
Validated: 1
EndChar

StartChar: u1D662
Encoding: 120418 120418 746
Width: 384
GlyphClass: 2
Flags: HMW
LayerCount: 2
Fore
SplineSet
0 0 m 0
 0 8 120 448 128 448 c 4
 136 448 256 8 256 0 c 0
 256 -8 136 -448 128 -448 c 0
 120 -448 0 -8 0 0 c 0
EndSplineSet
Validated: 1
EndChar

StartChar: u1D663
Encoding: 120419 120419 747
Width: 384
GlyphClass: 2
Flags: HMW
LayerCount: 2
Fore
SplineSet
0 0 m 0
 0 8 120 448 128 448 c 4
 136 448 256 8 256 0 c 0
 256 -8 136 -448 128 -448 c 0
 120 -448 0 -8 0 0 c 0
EndSplineSet
Validated: 1
EndChar

StartChar: u1D664
Encoding: 120420 120420 748
Width: 384
GlyphClass: 2
Flags: HMW
LayerCount: 2
Fore
SplineSet
0 0 m 0
 0 8 120 448 128 448 c 4
 136 448 256 8 256 0 c 0
 256 -8 136 -448 128 -448 c 0
 120 -448 0 -8 0 0 c 0
EndSplineSet
Validated: 1
EndChar

StartChar: u1D665
Encoding: 120421 120421 749
Width: 384
GlyphClass: 2
Flags: HMW
LayerCount: 2
Fore
SplineSet
0 0 m 0
 0 8 120 448 128 448 c 4
 136 448 256 8 256 0 c 0
 256 -8 136 -448 128 -448 c 0
 120 -448 0 -8 0 0 c 0
EndSplineSet
Validated: 1
EndChar

StartChar: u1D666
Encoding: 120422 120422 750
Width: 384
GlyphClass: 2
Flags: HMW
LayerCount: 2
Fore
SplineSet
0 0 m 0
 0 8 120 448 128 448 c 4
 136 448 256 8 256 0 c 0
 256 -8 136 -448 128 -448 c 0
 120 -448 0 -8 0 0 c 0
EndSplineSet
Validated: 1
EndChar

StartChar: u1D667
Encoding: 120423 120423 751
Width: 384
GlyphClass: 2
Flags: HMW
LayerCount: 2
Fore
SplineSet
0 0 m 0
 0 8 120 448 128 448 c 4
 136 448 256 8 256 0 c 0
 256 -8 136 -448 128 -448 c 0
 120 -448 0 -8 0 0 c 0
EndSplineSet
Validated: 1
EndChar

StartChar: u1D668
Encoding: 120424 120424 752
Width: 384
GlyphClass: 2
Flags: HMW
LayerCount: 2
Fore
SplineSet
0 0 m 0
 0 8 120 448 128 448 c 4
 136 448 256 8 256 0 c 0
 256 -8 136 -448 128 -448 c 0
 120 -448 0 -8 0 0 c 0
EndSplineSet
Validated: 1
EndChar

StartChar: u1D669
Encoding: 120425 120425 753
Width: 384
GlyphClass: 2
Flags: HMW
LayerCount: 2
Fore
SplineSet
0 0 m 0
 0 8 120 448 128 448 c 4
 136 448 256 8 256 0 c 0
 256 -8 136 -448 128 -448 c 0
 120 -448 0 -8 0 0 c 0
EndSplineSet
Validated: 1
EndChar

StartChar: u1D66A
Encoding: 120426 120426 754
Width: 384
GlyphClass: 2
Flags: HMW
LayerCount: 2
Fore
SplineSet
0 0 m 0
 0 8 120 448 128 448 c 4
 136 448 256 8 256 0 c 0
 256 -8 136 -448 128 -448 c 0
 120 -448 0 -8 0 0 c 0
EndSplineSet
Validated: 1
EndChar

StartChar: u1D66B
Encoding: 120427 120427 755
Width: 384
GlyphClass: 2
Flags: HMW
LayerCount: 2
Fore
SplineSet
0 0 m 0
 0 8 120 448 128 448 c 4
 136 448 256 8 256 0 c 0
 256 -8 136 -448 128 -448 c 0
 120 -448 0 -8 0 0 c 0
EndSplineSet
Validated: 1
EndChar

StartChar: u1D66C
Encoding: 120428 120428 756
Width: 384
GlyphClass: 2
Flags: HMW
LayerCount: 2
Fore
SplineSet
0 0 m 0
 0 8 120 448 128 448 c 4
 136 448 256 8 256 0 c 0
 256 -8 136 -448 128 -448 c 0
 120 -448 0 -8 0 0 c 0
EndSplineSet
Validated: 1
EndChar

StartChar: u1D66D
Encoding: 120429 120429 757
Width: 384
GlyphClass: 2
Flags: HMW
LayerCount: 2
Fore
SplineSet
0 0 m 0
 0 8 120 448 128 448 c 4
 136 448 256 8 256 0 c 0
 256 -8 136 -448 128 -448 c 0
 120 -448 0 -8 0 0 c 0
EndSplineSet
Validated: 1
EndChar

StartChar: u1D66E
Encoding: 120430 120430 758
Width: 384
GlyphClass: 2
Flags: HMW
LayerCount: 2
Fore
SplineSet
0 0 m 0
 0 8 120 448 128 448 c 4
 136 448 256 8 256 0 c 0
 256 -8 136 -448 128 -448 c 0
 120 -448 0 -8 0 0 c 0
EndSplineSet
Validated: 1
EndChar

StartChar: u1D66F
Encoding: 120431 120431 759
Width: 384
GlyphClass: 2
Flags: HMW
LayerCount: 2
Fore
SplineSet
0 0 m 0
 0 8 120 448 128 448 c 4
 136 448 256 8 256 0 c 0
 256 -8 136 -448 128 -448 c 0
 120 -448 0 -8 0 0 c 0
EndSplineSet
Validated: 1
EndChar

StartChar: u1D670
Encoding: 120432 120432 760
Width: 896
GlyphClass: 2
Flags: MW
LayerCount: 2
Fore
SplineSet
16 496 m 5
 16 -496 l 1
 880 -496 l 1
 880 496 l 1
 16 496 l 5
0 512 m 1
 896 512 l 1
 896 -512 l 1
 0 -512 l 1
 0 512 l 1
EndSplineSet
Validated: 1
EndChar

StartChar: u1D671
Encoding: 120433 120433 761
Width: 896
GlyphClass: 2
Flags: MW
LayerCount: 2
Fore
SplineSet
16 496 m 5
 16 -496 l 1
 880 -496 l 1
 880 496 l 1
 16 496 l 5
0 512 m 1
 896 512 l 1
 896 -512 l 1
 0 -512 l 1
 0 512 l 1
EndSplineSet
Validated: 1
EndChar

StartChar: u1D672
Encoding: 120434 120434 762
Width: 896
GlyphClass: 2
Flags: MW
LayerCount: 2
Fore
SplineSet
16 496 m 5
 16 -496 l 1
 880 -496 l 1
 880 496 l 1
 16 496 l 5
0 512 m 1
 896 512 l 1
 896 -512 l 1
 0 -512 l 1
 0 512 l 1
EndSplineSet
Validated: 1
EndChar

StartChar: u1D673
Encoding: 120435 120435 763
Width: 896
GlyphClass: 2
Flags: MW
LayerCount: 2
Fore
SplineSet
16 496 m 5
 16 -496 l 1
 880 -496 l 1
 880 496 l 1
 16 496 l 5
0 512 m 1
 896 512 l 1
 896 -512 l 1
 0 -512 l 1
 0 512 l 1
EndSplineSet
Validated: 1
EndChar

StartChar: u1D674
Encoding: 120436 120436 764
Width: 896
GlyphClass: 2
Flags: MW
LayerCount: 2
Fore
SplineSet
16 496 m 5
 16 -496 l 1
 880 -496 l 1
 880 496 l 1
 16 496 l 5
0 512 m 1
 896 512 l 1
 896 -512 l 1
 0 -512 l 1
 0 512 l 1
EndSplineSet
Validated: 1
EndChar

StartChar: u1D675
Encoding: 120437 120437 765
Width: 896
GlyphClass: 2
Flags: MW
LayerCount: 2
Fore
SplineSet
16 496 m 5
 16 -496 l 1
 880 -496 l 1
 880 496 l 1
 16 496 l 5
0 512 m 1
 896 512 l 1
 896 -512 l 1
 0 -512 l 1
 0 512 l 1
EndSplineSet
Validated: 1
EndChar

StartChar: u1D676
Encoding: 120438 120438 766
Width: 896
GlyphClass: 2
Flags: MW
LayerCount: 2
Fore
SplineSet
16 496 m 5
 16 -496 l 1
 880 -496 l 1
 880 496 l 1
 16 496 l 5
0 512 m 1
 896 512 l 1
 896 -512 l 1
 0 -512 l 1
 0 512 l 1
EndSplineSet
Validated: 1
EndChar

StartChar: u1D677
Encoding: 120439 120439 767
Width: 896
GlyphClass: 2
Flags: MW
LayerCount: 2
Fore
SplineSet
16 496 m 5
 16 -496 l 1
 880 -496 l 1
 880 496 l 1
 16 496 l 5
0 512 m 1
 896 512 l 1
 896 -512 l 1
 0 -512 l 1
 0 512 l 1
EndSplineSet
Validated: 1
EndChar

StartChar: u1D678
Encoding: 120440 120440 768
Width: 896
GlyphClass: 2
Flags: MW
LayerCount: 2
Fore
SplineSet
16 496 m 5
 16 -496 l 1
 880 -496 l 1
 880 496 l 1
 16 496 l 5
0 512 m 1
 896 512 l 1
 896 -512 l 1
 0 -512 l 1
 0 512 l 1
EndSplineSet
Validated: 1
EndChar

StartChar: u1D679
Encoding: 120441 120441 769
Width: 896
GlyphClass: 2
Flags: MW
LayerCount: 2
Fore
SplineSet
16 496 m 5
 16 -496 l 1
 880 -496 l 1
 880 496 l 1
 16 496 l 5
0 512 m 1
 896 512 l 1
 896 -512 l 1
 0 -512 l 1
 0 512 l 1
EndSplineSet
Validated: 1
EndChar

StartChar: u1D67A
Encoding: 120442 120442 770
Width: 896
GlyphClass: 2
Flags: MW
LayerCount: 2
Fore
SplineSet
16 496 m 5
 16 -496 l 1
 880 -496 l 1
 880 496 l 1
 16 496 l 5
0 512 m 1
 896 512 l 1
 896 -512 l 1
 0 -512 l 1
 0 512 l 1
EndSplineSet
Validated: 1
EndChar

StartChar: u1D67B
Encoding: 120443 120443 771
Width: 896
GlyphClass: 2
Flags: MW
LayerCount: 2
Fore
SplineSet
16 496 m 5
 16 -496 l 1
 880 -496 l 1
 880 496 l 1
 16 496 l 5
0 512 m 1
 896 512 l 1
 896 -512 l 1
 0 -512 l 1
 0 512 l 1
EndSplineSet
Validated: 1
EndChar

StartChar: u1D67C
Encoding: 120444 120444 772
Width: 896
GlyphClass: 2
Flags: MW
LayerCount: 2
Fore
SplineSet
16 496 m 5
 16 -496 l 1
 880 -496 l 1
 880 496 l 1
 16 496 l 5
0 512 m 1
 896 512 l 1
 896 -512 l 1
 0 -512 l 1
 0 512 l 1
EndSplineSet
Validated: 1
EndChar

StartChar: u1D67D
Encoding: 120445 120445 773
Width: 896
GlyphClass: 2
Flags: MW
LayerCount: 2
Fore
SplineSet
16 496 m 5
 16 -496 l 1
 880 -496 l 1
 880 496 l 1
 16 496 l 5
0 512 m 1
 896 512 l 1
 896 -512 l 1
 0 -512 l 1
 0 512 l 1
EndSplineSet
Validated: 1
EndChar

StartChar: u1D67E
Encoding: 120446 120446 774
Width: 896
GlyphClass: 2
Flags: MW
LayerCount: 2
Fore
SplineSet
16 496 m 5
 16 -496 l 1
 880 -496 l 1
 880 496 l 1
 16 496 l 5
0 512 m 1
 896 512 l 1
 896 -512 l 1
 0 -512 l 1
 0 512 l 1
EndSplineSet
Validated: 1
EndChar

StartChar: u1D67F
Encoding: 120447 120447 775
Width: 896
GlyphClass: 2
Flags: MW
LayerCount: 2
Fore
SplineSet
16 496 m 5
 16 -496 l 1
 880 -496 l 1
 880 496 l 1
 16 496 l 5
0 512 m 1
 896 512 l 1
 896 -512 l 1
 0 -512 l 1
 0 512 l 1
EndSplineSet
Validated: 1
EndChar

StartChar: u1D680
Encoding: 120448 120448 776
Width: 896
GlyphClass: 2
Flags: MW
LayerCount: 2
Fore
SplineSet
16 496 m 5
 16 -496 l 1
 880 -496 l 1
 880 496 l 1
 16 496 l 5
0 512 m 1
 896 512 l 1
 896 -512 l 1
 0 -512 l 1
 0 512 l 1
EndSplineSet
Validated: 1
EndChar

StartChar: u1D681
Encoding: 120449 120449 777
Width: 896
GlyphClass: 2
Flags: MW
LayerCount: 2
Fore
SplineSet
16 496 m 5
 16 -496 l 1
 880 -496 l 1
 880 496 l 1
 16 496 l 5
0 512 m 1
 896 512 l 1
 896 -512 l 1
 0 -512 l 1
 0 512 l 1
EndSplineSet
Validated: 1
EndChar

StartChar: u1D682
Encoding: 120450 120450 778
Width: 896
GlyphClass: 2
Flags: MW
LayerCount: 2
Fore
SplineSet
16 496 m 5
 16 -496 l 1
 880 -496 l 1
 880 496 l 1
 16 496 l 5
0 512 m 1
 896 512 l 1
 896 -512 l 1
 0 -512 l 1
 0 512 l 1
EndSplineSet
Validated: 1
EndChar

StartChar: u1D683
Encoding: 120451 120451 779
Width: 896
GlyphClass: 2
Flags: MW
LayerCount: 2
Fore
SplineSet
16 496 m 5
 16 -496 l 1
 880 -496 l 1
 880 496 l 1
 16 496 l 5
0 512 m 1
 896 512 l 1
 896 -512 l 1
 0 -512 l 1
 0 512 l 1
EndSplineSet
Validated: 1
EndChar

StartChar: u1D684
Encoding: 120452 120452 780
Width: 896
GlyphClass: 2
Flags: MW
LayerCount: 2
Fore
SplineSet
16 496 m 5
 16 -496 l 1
 880 -496 l 1
 880 496 l 1
 16 496 l 5
0 512 m 1
 896 512 l 1
 896 -512 l 1
 0 -512 l 1
 0 512 l 1
EndSplineSet
Validated: 1
EndChar

StartChar: u1D685
Encoding: 120453 120453 781
Width: 896
GlyphClass: 2
Flags: MW
LayerCount: 2
Fore
SplineSet
16 496 m 5
 16 -496 l 1
 880 -496 l 1
 880 496 l 1
 16 496 l 5
0 512 m 1
 896 512 l 1
 896 -512 l 1
 0 -512 l 1
 0 512 l 1
EndSplineSet
Validated: 1
EndChar

StartChar: u1D686
Encoding: 120454 120454 782
Width: 896
GlyphClass: 2
Flags: MW
LayerCount: 2
Fore
SplineSet
16 496 m 5
 16 -496 l 1
 880 -496 l 1
 880 496 l 1
 16 496 l 5
0 512 m 1
 896 512 l 1
 896 -512 l 1
 0 -512 l 1
 0 512 l 1
EndSplineSet
Validated: 1
EndChar

StartChar: u1D687
Encoding: 120455 120455 783
Width: 896
GlyphClass: 2
Flags: MW
LayerCount: 2
Fore
SplineSet
16 496 m 5
 16 -496 l 1
 880 -496 l 1
 880 496 l 1
 16 496 l 5
0 512 m 1
 896 512 l 1
 896 -512 l 1
 0 -512 l 1
 0 512 l 1
EndSplineSet
Validated: 1
EndChar

StartChar: u1D688
Encoding: 120456 120456 784
Width: 896
GlyphClass: 2
Flags: MW
LayerCount: 2
Fore
SplineSet
16 496 m 5
 16 -496 l 1
 880 -496 l 1
 880 496 l 1
 16 496 l 5
0 512 m 1
 896 512 l 1
 896 -512 l 1
 0 -512 l 1
 0 512 l 1
EndSplineSet
Validated: 1
EndChar

StartChar: u1D689
Encoding: 120457 120457 785
Width: 896
GlyphClass: 2
Flags: MW
LayerCount: 2
Fore
SplineSet
16 496 m 5
 16 -496 l 1
 880 -496 l 1
 880 496 l 1
 16 496 l 5
0 512 m 1
 896 512 l 1
 896 -512 l 1
 0 -512 l 1
 0 512 l 1
EndSplineSet
Validated: 1
EndChar

StartChar: u1D68A
Encoding: 120458 120458 786
Width: 896
GlyphClass: 2
Flags: MW
LayerCount: 2
Fore
SplineSet
16 496 m 5
 16 -496 l 1
 880 -496 l 1
 880 496 l 1
 16 496 l 5
0 512 m 1
 896 512 l 1
 896 -512 l 1
 0 -512 l 1
 0 512 l 1
EndSplineSet
Validated: 1
EndChar

StartChar: u1D68B
Encoding: 120459 120459 787
Width: 896
GlyphClass: 2
Flags: MW
LayerCount: 2
Fore
SplineSet
16 496 m 5
 16 -496 l 1
 880 -496 l 1
 880 496 l 1
 16 496 l 5
0 512 m 1
 896 512 l 1
 896 -512 l 1
 0 -512 l 1
 0 512 l 1
EndSplineSet
Validated: 1
EndChar

StartChar: u1D68C
Encoding: 120460 120460 788
Width: 896
GlyphClass: 2
Flags: MW
LayerCount: 2
Fore
SplineSet
16 496 m 5
 16 -496 l 1
 880 -496 l 1
 880 496 l 1
 16 496 l 5
0 512 m 1
 896 512 l 1
 896 -512 l 1
 0 -512 l 1
 0 512 l 1
EndSplineSet
Validated: 1
EndChar

StartChar: u1D68D
Encoding: 120461 120461 789
Width: 896
GlyphClass: 2
Flags: MW
LayerCount: 2
Fore
SplineSet
16 496 m 5
 16 -496 l 1
 880 -496 l 1
 880 496 l 1
 16 496 l 5
0 512 m 1
 896 512 l 1
 896 -512 l 1
 0 -512 l 1
 0 512 l 1
EndSplineSet
Validated: 1
EndChar

StartChar: u1D68E
Encoding: 120462 120462 790
Width: 896
GlyphClass: 2
Flags: MW
LayerCount: 2
Fore
SplineSet
16 496 m 5
 16 -496 l 1
 880 -496 l 1
 880 496 l 1
 16 496 l 5
0 512 m 1
 896 512 l 1
 896 -512 l 1
 0 -512 l 1
 0 512 l 1
EndSplineSet
Validated: 1
EndChar

StartChar: u1D68F
Encoding: 120463 120463 791
Width: 896
GlyphClass: 2
Flags: MW
LayerCount: 2
Fore
SplineSet
16 496 m 5
 16 -496 l 1
 880 -496 l 1
 880 496 l 1
 16 496 l 5
0 512 m 1
 896 512 l 1
 896 -512 l 1
 0 -512 l 1
 0 512 l 1
EndSplineSet
Validated: 1
EndChar

StartChar: u1D690
Encoding: 120464 120464 792
Width: 896
GlyphClass: 2
Flags: MW
LayerCount: 2
Fore
SplineSet
16 496 m 5
 16 -496 l 1
 880 -496 l 1
 880 496 l 1
 16 496 l 5
0 512 m 1
 896 512 l 1
 896 -512 l 1
 0 -512 l 1
 0 512 l 1
EndSplineSet
Validated: 1
EndChar

StartChar: u1D691
Encoding: 120465 120465 793
Width: 896
GlyphClass: 2
Flags: MW
LayerCount: 2
Fore
SplineSet
16 496 m 5
 16 -496 l 1
 880 -496 l 1
 880 496 l 1
 16 496 l 5
0 512 m 1
 896 512 l 1
 896 -512 l 1
 0 -512 l 1
 0 512 l 1
EndSplineSet
Validated: 1
EndChar

StartChar: u1D692
Encoding: 120466 120466 794
Width: 896
GlyphClass: 2
Flags: MW
LayerCount: 2
Fore
SplineSet
16 496 m 5
 16 -496 l 1
 880 -496 l 1
 880 496 l 1
 16 496 l 5
0 512 m 1
 896 512 l 1
 896 -512 l 1
 0 -512 l 1
 0 512 l 1
EndSplineSet
Validated: 1
EndChar

StartChar: u1D693
Encoding: 120467 120467 795
Width: 896
GlyphClass: 2
Flags: MW
LayerCount: 2
Fore
SplineSet
16 496 m 5
 16 -496 l 1
 880 -496 l 1
 880 496 l 1
 16 496 l 5
0 512 m 1
 896 512 l 1
 896 -512 l 1
 0 -512 l 1
 0 512 l 1
EndSplineSet
Validated: 1
EndChar

StartChar: u1D694
Encoding: 120468 120468 796
Width: 896
GlyphClass: 2
Flags: MW
LayerCount: 2
Fore
SplineSet
16 496 m 5
 16 -496 l 1
 880 -496 l 1
 880 496 l 1
 16 496 l 5
0 512 m 1
 896 512 l 1
 896 -512 l 1
 0 -512 l 1
 0 512 l 1
EndSplineSet
Validated: 1
EndChar

StartChar: u1D695
Encoding: 120469 120469 797
Width: 896
GlyphClass: 2
Flags: MW
LayerCount: 2
Fore
SplineSet
16 496 m 5
 16 -496 l 1
 880 -496 l 1
 880 496 l 1
 16 496 l 5
0 512 m 1
 896 512 l 1
 896 -512 l 1
 0 -512 l 1
 0 512 l 1
EndSplineSet
Validated: 1
EndChar

StartChar: u1D696
Encoding: 120470 120470 798
Width: 896
GlyphClass: 2
Flags: MW
LayerCount: 2
Fore
SplineSet
16 496 m 5
 16 -496 l 1
 880 -496 l 1
 880 496 l 1
 16 496 l 5
0 512 m 1
 896 512 l 1
 896 -512 l 1
 0 -512 l 1
 0 512 l 1
EndSplineSet
Validated: 1
EndChar

StartChar: u1D697
Encoding: 120471 120471 799
Width: 896
GlyphClass: 2
Flags: MW
LayerCount: 2
Fore
SplineSet
16 496 m 5
 16 -496 l 1
 880 -496 l 1
 880 496 l 1
 16 496 l 5
0 512 m 1
 896 512 l 1
 896 -512 l 1
 0 -512 l 1
 0 512 l 1
EndSplineSet
Validated: 1
EndChar

StartChar: u1D698
Encoding: 120472 120472 800
Width: 896
GlyphClass: 2
Flags: MW
LayerCount: 2
Fore
SplineSet
16 496 m 5
 16 -496 l 1
 880 -496 l 1
 880 496 l 1
 16 496 l 5
0 512 m 1
 896 512 l 1
 896 -512 l 1
 0 -512 l 1
 0 512 l 1
EndSplineSet
Validated: 1
EndChar

StartChar: u1D699
Encoding: 120473 120473 801
Width: 896
GlyphClass: 2
Flags: MW
LayerCount: 2
Fore
SplineSet
16 496 m 5
 16 -496 l 1
 880 -496 l 1
 880 496 l 1
 16 496 l 5
0 512 m 1
 896 512 l 1
 896 -512 l 1
 0 -512 l 1
 0 512 l 1
EndSplineSet
Validated: 1
EndChar

StartChar: u1D69A
Encoding: 120474 120474 802
Width: 896
GlyphClass: 2
Flags: MW
LayerCount: 2
Fore
SplineSet
16 496 m 5
 16 -496 l 1
 880 -496 l 1
 880 496 l 1
 16 496 l 5
0 512 m 1
 896 512 l 1
 896 -512 l 1
 0 -512 l 1
 0 512 l 1
EndSplineSet
Validated: 1
EndChar

StartChar: u1D69B
Encoding: 120475 120475 803
Width: 896
GlyphClass: 2
Flags: MW
LayerCount: 2
Fore
SplineSet
16 496 m 5
 16 -496 l 1
 880 -496 l 1
 880 496 l 1
 16 496 l 5
0 512 m 1
 896 512 l 1
 896 -512 l 1
 0 -512 l 1
 0 512 l 1
EndSplineSet
Validated: 1
EndChar

StartChar: u1D69C
Encoding: 120476 120476 804
Width: 896
GlyphClass: 2
Flags: MW
LayerCount: 2
Fore
SplineSet
16 496 m 5
 16 -496 l 1
 880 -496 l 1
 880 496 l 1
 16 496 l 5
0 512 m 1
 896 512 l 1
 896 -512 l 1
 0 -512 l 1
 0 512 l 1
EndSplineSet
Validated: 1
EndChar

StartChar: u1D69D
Encoding: 120477 120477 805
Width: 896
GlyphClass: 2
Flags: MW
LayerCount: 2
Fore
SplineSet
16 496 m 5
 16 -496 l 1
 880 -496 l 1
 880 496 l 1
 16 496 l 5
0 512 m 1
 896 512 l 1
 896 -512 l 1
 0 -512 l 1
 0 512 l 1
EndSplineSet
Validated: 1
EndChar

StartChar: u1D69E
Encoding: 120478 120478 806
Width: 896
GlyphClass: 2
Flags: MW
LayerCount: 2
Fore
SplineSet
16 496 m 5
 16 -496 l 1
 880 -496 l 1
 880 496 l 1
 16 496 l 5
0 512 m 1
 896 512 l 1
 896 -512 l 1
 0 -512 l 1
 0 512 l 1
EndSplineSet
Validated: 1
EndChar

StartChar: u1D69F
Encoding: 120479 120479 807
Width: 896
GlyphClass: 2
Flags: MW
LayerCount: 2
Fore
SplineSet
16 496 m 5
 16 -496 l 1
 880 -496 l 1
 880 496 l 1
 16 496 l 5
0 512 m 1
 896 512 l 1
 896 -512 l 1
 0 -512 l 1
 0 512 l 1
EndSplineSet
Validated: 1
EndChar

StartChar: u1D6A0
Encoding: 120480 120480 808
Width: 896
GlyphClass: 2
Flags: MW
LayerCount: 2
Fore
SplineSet
16 496 m 5
 16 -496 l 1
 880 -496 l 1
 880 496 l 1
 16 496 l 5
0 512 m 1
 896 512 l 1
 896 -512 l 1
 0 -512 l 1
 0 512 l 1
EndSplineSet
Validated: 1
EndChar

StartChar: u1D6A1
Encoding: 120481 120481 809
Width: 896
GlyphClass: 2
Flags: MW
LayerCount: 2
Fore
SplineSet
16 496 m 5
 16 -496 l 1
 880 -496 l 1
 880 496 l 1
 16 496 l 5
0 512 m 1
 896 512 l 1
 896 -512 l 1
 0 -512 l 1
 0 512 l 1
EndSplineSet
Validated: 1
EndChar

StartChar: u1D6A2
Encoding: 120482 120482 810
Width: 896
GlyphClass: 2
Flags: MW
LayerCount: 2
Fore
SplineSet
16 496 m 5
 16 -496 l 1
 880 -496 l 1
 880 496 l 1
 16 496 l 5
0 512 m 1
 896 512 l 1
 896 -512 l 1
 0 -512 l 1
 0 512 l 1
EndSplineSet
Validated: 1
EndChar

StartChar: u1D6A3
Encoding: 120483 120483 811
Width: 896
GlyphClass: 2
Flags: MW
LayerCount: 2
Fore
SplineSet
16 496 m 5
 16 -496 l 1
 880 -496 l 1
 880 496 l 1
 16 496 l 5
0 512 m 1
 896 512 l 1
 896 -512 l 1
 0 -512 l 1
 0 512 l 1
EndSplineSet
Validated: 1
EndChar

StartChar: u1D6A4
Encoding: 120484 120484 812
Width: 768
GlyphClass: 2
Flags: MW
LayerCount: 2
Fore
SplineSet
0 -512 m 1
 256 512 l 1
 768 512 l 1
 512 -512 l 1
 0 -512 l 1
EndSplineSet
Validated: 1
EndChar

StartChar: u1D6A5
Encoding: 120485 120485 813
Width: 768
GlyphClass: 2
Flags: MW
LayerCount: 2
Fore
SplineSet
0 -512 m 1
 256 512 l 1
 768 512 l 1
 512 -512 l 1
 0 -512 l 1
EndSplineSet
Validated: 1
EndChar

StartChar: u1D6A8
Encoding: 120488 120488 814
Width: 512
GlyphClass: 2
Flags: MW
LayerCount: 2
Fore
SplineSet
0 512 m 1
 512 512 l 1
 512 -512 l 1
 0 -512 l 1
 0 512 l 1
EndSplineSet
Validated: 1
EndChar

StartChar: u1D6A9
Encoding: 120489 120489 815
Width: 512
GlyphClass: 2
Flags: MW
LayerCount: 2
Fore
SplineSet
0 512 m 1
 512 512 l 1
 512 -512 l 1
 0 -512 l 1
 0 512 l 1
EndSplineSet
Validated: 1
EndChar

StartChar: u1D6AA
Encoding: 120490 120490 816
Width: 512
GlyphClass: 2
Flags: MW
LayerCount: 2
Fore
SplineSet
0 512 m 1
 512 512 l 1
 512 -512 l 1
 0 -512 l 1
 0 512 l 1
EndSplineSet
Validated: 1
EndChar

StartChar: u1D6AB
Encoding: 120491 120491 817
Width: 512
GlyphClass: 2
Flags: MW
LayerCount: 2
Fore
SplineSet
0 512 m 1
 512 512 l 1
 512 -512 l 1
 0 -512 l 1
 0 512 l 1
EndSplineSet
Validated: 1
EndChar

StartChar: u1D6AC
Encoding: 120492 120492 818
Width: 512
GlyphClass: 2
Flags: MW
LayerCount: 2
Fore
SplineSet
0 512 m 1
 512 512 l 1
 512 -512 l 1
 0 -512 l 1
 0 512 l 1
EndSplineSet
Validated: 1
EndChar

StartChar: u1D6AD
Encoding: 120493 120493 819
Width: 512
GlyphClass: 2
Flags: MW
LayerCount: 2
Fore
SplineSet
0 512 m 1
 512 512 l 1
 512 -512 l 1
 0 -512 l 1
 0 512 l 1
EndSplineSet
Validated: 1
EndChar

StartChar: u1D6AE
Encoding: 120494 120494 820
Width: 512
GlyphClass: 2
Flags: MW
LayerCount: 2
Fore
SplineSet
0 512 m 1
 512 512 l 1
 512 -512 l 1
 0 -512 l 1
 0 512 l 1
EndSplineSet
Validated: 1
EndChar

StartChar: u1D6AF
Encoding: 120495 120495 821
Width: 512
GlyphClass: 2
Flags: MW
LayerCount: 2
Fore
SplineSet
0 512 m 1
 512 512 l 1
 512 -512 l 1
 0 -512 l 1
 0 512 l 1
EndSplineSet
Validated: 1
EndChar

StartChar: u1D6B0
Encoding: 120496 120496 822
Width: 512
GlyphClass: 2
Flags: MW
LayerCount: 2
Fore
SplineSet
0 512 m 1
 512 512 l 1
 512 -512 l 1
 0 -512 l 1
 0 512 l 1
EndSplineSet
Validated: 1
EndChar

StartChar: u1D6B1
Encoding: 120497 120497 823
Width: 512
GlyphClass: 2
Flags: MW
LayerCount: 2
Fore
SplineSet
0 512 m 1
 512 512 l 1
 512 -512 l 1
 0 -512 l 1
 0 512 l 1
EndSplineSet
Validated: 1
EndChar

StartChar: u1D6B2
Encoding: 120498 120498 824
Width: 512
GlyphClass: 2
Flags: MW
LayerCount: 2
Fore
SplineSet
0 512 m 1
 512 512 l 1
 512 -512 l 1
 0 -512 l 1
 0 512 l 1
EndSplineSet
Validated: 1
EndChar

StartChar: u1D6B3
Encoding: 120499 120499 825
Width: 512
GlyphClass: 2
Flags: MW
LayerCount: 2
Fore
SplineSet
0 512 m 1
 512 512 l 1
 512 -512 l 1
 0 -512 l 1
 0 512 l 1
EndSplineSet
Validated: 1
EndChar

StartChar: u1D6B4
Encoding: 120500 120500 826
Width: 512
GlyphClass: 2
Flags: MW
LayerCount: 2
Fore
SplineSet
0 512 m 1
 512 512 l 1
 512 -512 l 1
 0 -512 l 1
 0 512 l 1
EndSplineSet
Validated: 1
EndChar

StartChar: u1D6B5
Encoding: 120501 120501 827
Width: 512
GlyphClass: 2
Flags: MW
LayerCount: 2
Fore
SplineSet
0 512 m 1
 512 512 l 1
 512 -512 l 1
 0 -512 l 1
 0 512 l 1
EndSplineSet
Validated: 1
EndChar

StartChar: u1D6B6
Encoding: 120502 120502 828
Width: 512
GlyphClass: 2
Flags: MW
LayerCount: 2
Fore
SplineSet
0 512 m 1
 512 512 l 1
 512 -512 l 1
 0 -512 l 1
 0 512 l 1
EndSplineSet
Validated: 1
EndChar

StartChar: u1D6B7
Encoding: 120503 120503 829
Width: 512
GlyphClass: 2
Flags: MW
LayerCount: 2
Fore
SplineSet
0 512 m 1
 512 512 l 1
 512 -512 l 1
 0 -512 l 1
 0 512 l 1
EndSplineSet
Validated: 1
EndChar

StartChar: u1D6B8
Encoding: 120504 120504 830
Width: 512
GlyphClass: 2
Flags: MW
LayerCount: 2
Fore
SplineSet
0 512 m 1
 512 512 l 1
 512 -512 l 1
 0 -512 l 1
 0 512 l 1
EndSplineSet
Validated: 1
EndChar

StartChar: u1D6B9
Encoding: 120505 120505 831
Width: 512
GlyphClass: 2
Flags: MW
LayerCount: 2
Fore
SplineSet
0 512 m 1
 512 512 l 1
 512 -512 l 1
 0 -512 l 1
 0 512 l 1
EndSplineSet
Validated: 1
EndChar

StartChar: u1D6BA
Encoding: 120506 120506 832
Width: 512
GlyphClass: 2
Flags: MW
LayerCount: 2
Fore
SplineSet
0 512 m 1
 512 512 l 1
 512 -512 l 1
 0 -512 l 1
 0 512 l 1
EndSplineSet
Validated: 1
EndChar

StartChar: u1D6BB
Encoding: 120507 120507 833
Width: 512
GlyphClass: 2
Flags: MW
LayerCount: 2
Fore
SplineSet
0 512 m 1
 512 512 l 1
 512 -512 l 1
 0 -512 l 1
 0 512 l 1
EndSplineSet
Validated: 1
EndChar

StartChar: u1D6BC
Encoding: 120508 120508 834
Width: 512
GlyphClass: 2
Flags: MW
LayerCount: 2
Fore
SplineSet
0 512 m 1
 512 512 l 1
 512 -512 l 1
 0 -512 l 1
 0 512 l 1
EndSplineSet
Validated: 1
EndChar

StartChar: u1D6BD
Encoding: 120509 120509 835
Width: 512
GlyphClass: 2
Flags: MW
LayerCount: 2
Fore
SplineSet
0 512 m 1
 512 512 l 1
 512 -512 l 1
 0 -512 l 1
 0 512 l 1
EndSplineSet
Validated: 1
EndChar

StartChar: u1D6BE
Encoding: 120510 120510 836
Width: 512
GlyphClass: 2
Flags: MW
LayerCount: 2
Fore
SplineSet
0 512 m 1
 512 512 l 1
 512 -512 l 1
 0 -512 l 1
 0 512 l 1
EndSplineSet
Validated: 1
EndChar

StartChar: u1D6BF
Encoding: 120511 120511 837
Width: 512
GlyphClass: 2
Flags: MW
LayerCount: 2
Fore
SplineSet
0 512 m 1
 512 512 l 1
 512 -512 l 1
 0 -512 l 1
 0 512 l 1
EndSplineSet
Validated: 1
EndChar

StartChar: u1D6C0
Encoding: 120512 120512 838
Width: 512
GlyphClass: 2
Flags: MW
LayerCount: 2
Fore
SplineSet
0 512 m 1
 512 512 l 1
 512 -512 l 1
 0 -512 l 1
 0 512 l 1
EndSplineSet
Validated: 1
EndChar

StartChar: u1D6C1
Encoding: 120513 120513 839
Width: 512
GlyphClass: 2
Flags: MW
LayerCount: 2
Fore
SplineSet
0 512 m 1
 512 512 l 1
 512 -512 l 1
 0 -512 l 1
 0 512 l 1
EndSplineSet
Validated: 1
EndChar

StartChar: u1D6C2
Encoding: 120514 120514 840
Width: 512
GlyphClass: 2
Flags: MW
LayerCount: 2
Fore
SplineSet
0 512 m 1
 512 512 l 1
 512 -512 l 1
 0 -512 l 1
 0 512 l 1
EndSplineSet
Validated: 1
EndChar

StartChar: u1D6C3
Encoding: 120515 120515 841
Width: 512
GlyphClass: 2
Flags: MW
LayerCount: 2
Fore
SplineSet
0 512 m 1
 512 512 l 1
 512 -512 l 1
 0 -512 l 1
 0 512 l 1
EndSplineSet
Validated: 1
EndChar

StartChar: u1D6C4
Encoding: 120516 120516 842
Width: 512
GlyphClass: 2
Flags: MW
LayerCount: 2
Fore
SplineSet
0 512 m 1
 512 512 l 1
 512 -512 l 1
 0 -512 l 1
 0 512 l 1
EndSplineSet
Validated: 1
EndChar

StartChar: u1D6C5
Encoding: 120517 120517 843
Width: 512
GlyphClass: 2
Flags: MW
LayerCount: 2
Fore
SplineSet
0 512 m 1
 512 512 l 1
 512 -512 l 1
 0 -512 l 1
 0 512 l 1
EndSplineSet
Validated: 1
EndChar

StartChar: u1D6C6
Encoding: 120518 120518 844
Width: 512
GlyphClass: 2
Flags: MW
LayerCount: 2
Fore
SplineSet
0 512 m 1
 512 512 l 1
 512 -512 l 1
 0 -512 l 1
 0 512 l 1
EndSplineSet
Validated: 1
EndChar

StartChar: u1D6C7
Encoding: 120519 120519 845
Width: 512
GlyphClass: 2
Flags: MW
LayerCount: 2
Fore
SplineSet
0 512 m 1
 512 512 l 1
 512 -512 l 1
 0 -512 l 1
 0 512 l 1
EndSplineSet
Validated: 1
EndChar

StartChar: u1D6C8
Encoding: 120520 120520 846
Width: 512
GlyphClass: 2
Flags: MW
LayerCount: 2
Fore
SplineSet
0 512 m 1
 512 512 l 1
 512 -512 l 1
 0 -512 l 1
 0 512 l 1
EndSplineSet
Validated: 1
EndChar

StartChar: u1D6C9
Encoding: 120521 120521 847
Width: 512
GlyphClass: 2
Flags: MW
LayerCount: 2
Fore
SplineSet
0 512 m 1
 512 512 l 1
 512 -512 l 1
 0 -512 l 1
 0 512 l 1
EndSplineSet
Validated: 1
EndChar

StartChar: u1D6CA
Encoding: 120522 120522 848
Width: 512
GlyphClass: 2
Flags: MW
LayerCount: 2
Fore
SplineSet
0 512 m 1
 512 512 l 1
 512 -512 l 1
 0 -512 l 1
 0 512 l 1
EndSplineSet
Validated: 1
EndChar

StartChar: u1D6CB
Encoding: 120523 120523 849
Width: 512
GlyphClass: 2
Flags: MW
LayerCount: 2
Fore
SplineSet
0 512 m 1
 512 512 l 1
 512 -512 l 1
 0 -512 l 1
 0 512 l 1
EndSplineSet
Validated: 1
EndChar

StartChar: u1D6CC
Encoding: 120524 120524 850
Width: 512
GlyphClass: 2
Flags: MW
LayerCount: 2
Fore
SplineSet
0 512 m 1
 512 512 l 1
 512 -512 l 1
 0 -512 l 1
 0 512 l 1
EndSplineSet
Validated: 1
EndChar

StartChar: u1D6CD
Encoding: 120525 120525 851
Width: 512
GlyphClass: 2
Flags: MW
LayerCount: 2
Fore
SplineSet
0 512 m 1
 512 512 l 1
 512 -512 l 1
 0 -512 l 1
 0 512 l 1
EndSplineSet
Validated: 1
EndChar

StartChar: u1D6CE
Encoding: 120526 120526 852
Width: 512
GlyphClass: 2
Flags: MW
LayerCount: 2
Fore
SplineSet
0 512 m 1
 512 512 l 1
 512 -512 l 1
 0 -512 l 1
 0 512 l 1
EndSplineSet
Validated: 1
EndChar

StartChar: u1D6CF
Encoding: 120527 120527 853
Width: 512
GlyphClass: 2
Flags: MW
LayerCount: 2
Fore
SplineSet
0 512 m 1
 512 512 l 1
 512 -512 l 1
 0 -512 l 1
 0 512 l 1
EndSplineSet
Validated: 1
EndChar

StartChar: u1D6D0
Encoding: 120528 120528 854
Width: 512
GlyphClass: 2
Flags: MW
LayerCount: 2
Fore
SplineSet
0 512 m 1
 512 512 l 1
 512 -512 l 1
 0 -512 l 1
 0 512 l 1
EndSplineSet
Validated: 1
EndChar

StartChar: u1D6D1
Encoding: 120529 120529 855
Width: 512
GlyphClass: 2
Flags: MW
LayerCount: 2
Fore
SplineSet
0 512 m 1
 512 512 l 1
 512 -512 l 1
 0 -512 l 1
 0 512 l 1
EndSplineSet
Validated: 1
EndChar

StartChar: u1D6D2
Encoding: 120530 120530 856
Width: 512
GlyphClass: 2
Flags: MW
LayerCount: 2
Fore
SplineSet
0 512 m 1
 512 512 l 1
 512 -512 l 1
 0 -512 l 1
 0 512 l 1
EndSplineSet
Validated: 1
EndChar

StartChar: u1D6D3
Encoding: 120531 120531 857
Width: 512
GlyphClass: 2
Flags: MW
LayerCount: 2
Fore
SplineSet
0 512 m 1
 512 512 l 1
 512 -512 l 1
 0 -512 l 1
 0 512 l 1
EndSplineSet
Validated: 1
EndChar

